<mxfile host="app.diagrams.net" modified="2022-09-26T10:10:08.760Z" agent="5.0 (Macintosh; Intel Mac OS X 10_15_7) AppleWebKit/605.1.15 (KHTML, like Gecko) Version/16.0 Safari/605.1.15" etag="x3hJDOCe6EbxR-jJSbAL" version="20.3.6" type="github">
  <diagram id="vhmD8P6GPRtBQfuPzkEF" name="第 1 页">
    <mxGraphModel dx="940" dy="2025" grid="1" gridSize="10" guides="1" tooltips="1" connect="1" arrows="1" fold="1" page="1" pageScale="1" pageWidth="827" pageHeight="1169" math="0" shadow="0">
      <root>
        <mxCell id="0" />
        <mxCell id="1" parent="0" />
        <mxCell id="_ijwNodeHtskEvnJ04O--2" value="" style="shape=image;verticalLabelPosition=bottom;labelBackgroundColor=default;verticalAlign=top;aspect=fixed;imageAspect=0;image=data:image/svg+xml,PHN2ZyB4bWxuczp4bGluaz0iaHR0cDovL3d3dy53My5vcmcvMTk5OS94bGluayIgeG1sbnM9Imh0dHA6Ly93d3cudzMub3JnLzIwMDAvc3ZnIiB2ZXJzaW9uPSIxLjEiIGhlaWdodD0iMTc3Mi41IiB3aWR0aD0iMTA1NCIgaWQ9IlN2Z2pzU3ZnMTgyNCIgdmlld0JveD0iMCAwIDEwNTQgMTc3Mi41Ij48ZGVmcyBpZD0iU3ZnanNEZWZzMTgyNSI+PG1hcmtlciBzdHJva2UtZGFzaGFycmF5PSIwLDAiIG1hcmtlclVuaXRzPSJ1c2VyU3BhY2VPblVzZSIgb3JpZW50PSJhdXRvIiB2aWV3Qm94PSIwIDAgMTQgMTAiIHJlZlk9IjUiIHJlZlg9IjEwIiBtYXJrZXJIZWlnaHQ9IjEwIiBtYXJrZXJXaWR0aD0iMTQiIGlkPSJTdmdqc01hcmtlcjE4NDIiPjxwYXRoIHN0cm9rZS13aWR0aD0iMSIgc3Ryb2tlPSIjMzIzMjMyIiBmaWxsPSIjMzIzMjMyIiBkPSJNMCwwIEwxNCw1IEwwLDEwIEwwLDAiIGlkPSJTdmdqc1BhdGgxODQzIi8+PC9tYXJrZXI+PG1hcmtlciBzdHJva2UtZGFzaGFycmF5PSIwLDAiIG1hcmtlclVuaXRzPSJ1c2VyU3BhY2VPblVzZSIgb3JpZW50PSJhdXRvIiB2aWV3Qm94PSIwIDAgMTQgMTAiIHJlZlk9IjUiIHJlZlg9IjEwIiBtYXJrZXJIZWlnaHQ9IjEwIiBtYXJrZXJXaWR0aD0iMTQiIGlkPSJTdmdqc01hcmtlcjE4NTYiPjxwYXRoIHN0cm9rZS13aWR0aD0iMSIgc3Ryb2tlPSIjMzIzMjMyIiBmaWxsPSIjMzIzMjMyIiBkPSJNMCwwIEwxNCw1IEwwLDEwIEwwLDAiIGlkPSJTdmdqc1BhdGgxODU3Ii8+PC9tYXJrZXI+PG1hcmtlciBzdHJva2UtZGFzaGFycmF5PSIwLDAiIG1hcmtlclVuaXRzPSJ1c2VyU3BhY2VPblVzZSIgb3JpZW50PSJhdXRvIiB2aWV3Qm94PSIwIDAgMTQgMTAiIHJlZlk9IjUiIHJlZlg9IjEwIiBtYXJrZXJIZWlnaHQ9IjEwIiBtYXJrZXJXaWR0aD0iMTQiIGlkPSJTdmdqc01hcmtlcjE4NzIiPjxwYXRoIHN0cm9rZS13aWR0aD0iMSIgc3Ryb2tlPSIjMzIzMjMyIiBmaWxsPSIjMzIzMjMyIiBkPSJNMCwwIEwxNCw1IEwwLDEwIEwwLDAiIGlkPSJTdmdqc1BhdGgxODczIi8+PC9tYXJrZXI+PG1hcmtlciBzdHJva2UtZGFzaGFycmF5PSIwLDAiIG1hcmtlclVuaXRzPSJ1c2VyU3BhY2VPblVzZSIgb3JpZW50PSJhdXRvIiB2aWV3Qm94PSIwIDAgMTQgMTAiIHJlZlk9IjUiIHJlZlg9IjEwIiBtYXJrZXJIZWlnaHQ9IjEwIiBtYXJrZXJXaWR0aD0iMTQiIGlkPSJTdmdqc01hcmtlcjE4ODQiPjxwYXRoIHN0cm9rZS13aWR0aD0iMSIgc3Ryb2tlPSIjMzIzMjMyIiBmaWxsPSIjMzIzMjMyIiBkPSJNMCwwIEwxNCw1IEwwLDEwIEwwLDAiIGlkPSJTdmdqc1BhdGgxODg1Ii8+PC9tYXJrZXI+PG1hcmtlciBzdHJva2UtZGFzaGFycmF5PSIwLDAiIG1hcmtlclVuaXRzPSJ1c2VyU3BhY2VPblVzZSIgb3JpZW50PSJhdXRvIiB2aWV3Qm94PSIwIDAgMTQgMTAiIHJlZlk9IjUiIHJlZlg9IjEwIiBtYXJrZXJIZWlnaHQ9IjEwIiBtYXJrZXJXaWR0aD0iMTQiIGlkPSJTdmdqc01hcmtlcjE5MDAiPjxwYXRoIHN0cm9rZS13aWR0aD0iMSIgc3Ryb2tlPSIjMzIzMjMyIiBmaWxsPSIjMzIzMjMyIiBkPSJNMCwwIEwxNCw1IEwwLDEwIEwwLDAiIGlkPSJTdmdqc1BhdGgxOTAxIi8+PC9tYXJrZXI+PG1hcmtlciBzdHJva2UtZGFzaGFycmF5PSIwLDAiIG1hcmtlclVuaXRzPSJ1c2VyU3BhY2VPblVzZSIgb3JpZW50PSJhdXRvIiB2aWV3Qm94PSIwIDAgMTQgMTAiIHJlZlk9IjUiIHJlZlg9IjEwIiBtYXJrZXJIZWlnaHQ9IjEwIiBtYXJrZXJXaWR0aD0iMTQiIGlkPSJTdmdqc01hcmtlcjE5MDgiPjxwYXRoIHN0cm9rZS13aWR0aD0iMSIgc3Ryb2tlPSIjMzIzMjMyIiBmaWxsPSIjMzIzMjMyIiBkPSJNMCwwIEwxNCw1IEwwLDEwIEwwLDAiIGlkPSJTdmdqc1BhdGgxOTA5Ii8+PC9tYXJrZXI+PG1hcmtlciBzdHJva2UtZGFzaGFycmF5PSIwLDAiIG1hcmtlclVuaXRzPSJ1c2VyU3BhY2VPblVzZSIgb3JpZW50PSJhdXRvIiB2aWV3Qm94PSIwIDAgMTQgMTAiIHJlZlk9IjUiIHJlZlg9IjEwIiBtYXJrZXJIZWlnaHQ9IjEwIiBtYXJrZXJXaWR0aD0iMTQiIGlkPSJTdmdqc01hcmtlcjE5MjQiPjxwYXRoIHN0cm9rZS13aWR0aD0iMSIgc3Ryb2tlPSIjMzIzMjMyIiBmaWxsPSIjMzIzMjMyIiBkPSJNMCwwIEwxNCw1IEwwLDEwIEwwLDAiIGlkPSJTdmdqc1BhdGgxOTI1Ii8+PC9tYXJrZXI+PG1hcmtlciBzdHJva2UtZGFzaGFycmF5PSIwLDAiIG1hcmtlclVuaXRzPSJ1c2VyU3BhY2VPblVzZSIgb3JpZW50PSJhdXRvIiB2aWV3Qm94PSIwIDAgMTQgMTAiIHJlZlk9IjUiIHJlZlg9IjEwIiBtYXJrZXJIZWlnaHQ9IjEwIiBtYXJrZXJXaWR0aD0iMTQiIGlkPSJTdmdqc01hcmtlcjE5MjgiPjxwYXRoIHN0cm9rZS13aWR0aD0iMSIgc3Ryb2tlPSIjMzIzMjMyIiBmaWxsPSIjMzIzMjMyIiBkPSJNMCwwIEwxNCw1IEwwLDEwIEwwLDAiIGlkPSJTdmdqc1BhdGgxOTI5Ii8+PC9tYXJrZXI+PG1hcmtlciBzdHJva2UtZGFzaGFycmF5PSIwLDAiIG1hcmtlclVuaXRzPSJ1c2VyU3BhY2VPblVzZSIgb3JpZW50PSJhdXRvIiB2aWV3Qm94PSIwIDAgMTQgMTAiIHJlZlk9IjUiIHJlZlg9IjEwIiBtYXJrZXJIZWlnaHQ9IjEwIiBtYXJrZXJXaWR0aD0iMTQiIGlkPSJTdmdqc01hcmtlcjE5NDQiPjxwYXRoIHN0cm9rZS13aWR0aD0iMSIgc3Ryb2tlPSIjMzIzMjMyIiBmaWxsPSIjMzIzMjMyIiBkPSJNMCwwIEwxNCw1IEwwLDEwIEwwLDAiIGlkPSJTdmdqc1BhdGgxOTQ1Ii8+PC9tYXJrZXI+PG1hcmtlciBzdHJva2UtZGFzaGFycmF5PSIwLDAiIG1hcmtlclVuaXRzPSJ1c2VyU3BhY2VPblVzZSIgb3JpZW50PSJhdXRvIiB2aWV3Qm94PSIwIDAgMTQgMTAiIHJlZlk9IjUiIHJlZlg9IjEwIiBtYXJrZXJIZWlnaHQ9IjEwIiBtYXJrZXJXaWR0aD0iMTQiIGlkPSJTdmdqc01hcmtlcjE5NjAiPjxwYXRoIHN0cm9rZS13aWR0aD0iMSIgc3Ryb2tlPSIjMzIzMjMyIiBmaWxsPSIjMzIzMjMyIiBkPSJNMCwwIEwxNCw1IEwwLDEwIEwwLDAiIGlkPSJTdmdqc1BhdGgxOTYxIi8+PC9tYXJrZXI+PG1hcmtlciBzdHJva2UtZGFzaGFycmF5PSIwLDAiIG1hcmtlclVuaXRzPSJ1c2VyU3BhY2VPblVzZSIgb3JpZW50PSJhdXRvIiB2aWV3Qm94PSIwIDAgMjAgMTIiIHJlZlk9IjYiIHJlZlg9IjIwIiBtYXJrZXJIZWlnaHQ9IjEyIiBtYXJrZXJXaWR0aD0iMjAiIGlkPSJTdmdqc01hcmtlcjE5NzIiPjxwYXRoIHN0cm9rZS13aWR0aD0iMiIgc3Ryb2tlPSIjMzIzMjMyIiBmaWxsPSIjZmZmZmZmIiBkPSJNMiw2IEwxMCwyIEwxOCw2IEwxMCwxMEwyLDYiIGlkPSJTdmdqc1BhdGgxOTczIi8+PC9tYXJrZXI+PG1hcmtlciBzdHJva2UtZGFzaGFycmF5PSIwLDAiIG1hcmtlclVuaXRzPSJ1c2VyU3BhY2VPblVzZSIgb3JpZW50PSJhdXRvIiB2aWV3Qm94PSIwIDAgMjAgMTIiIHJlZlk9IjYiIHJlZlg9IjIwIiBtYXJrZXJIZWlnaHQ9IjEyIiBtYXJrZXJXaWR0aD0iMjAiIGlkPSJTdmdqc01hcmtlcjE5ODQiPjxwYXRoIHN0cm9rZS13aWR0aD0iMiIgc3Ryb2tlPSIjMzIzMjMyIiBmaWxsPSIjZmZmZmZmIiBkPSJNMiw2IEwxMCwyIEwxOCw2IEwxMCwxMEwyLDYiIGlkPSJTdmdqc1BhdGgxOTg1Ii8+PC9tYXJrZXI+PG1hcmtlciBzdHJva2UtZGFzaGFycmF5PSIwLDAiIG1hcmtlclVuaXRzPSJ1c2VyU3BhY2VPblVzZSIgb3JpZW50PSJhdXRvIiB2aWV3Qm94PSIwIDAgMTQgMTAiIHJlZlk9IjUiIHJlZlg9IjEwIiBtYXJrZXJIZWlnaHQ9IjEwIiBtYXJrZXJXaWR0aD0iMTQiIGlkPSJTdmdqc01hcmtlcjIwMDgiPjxwYXRoIHN0cm9rZS13aWR0aD0iMSIgc3Ryb2tlPSIjMzIzMjMyIiBmaWxsPSIjMzIzMjMyIiBkPSJNMCwwIEwxNCw1IEwwLDEwIEwwLDAiIGlkPSJTdmdqc1BhdGgyMDA5Ii8+PC9tYXJrZXI+PG1hcmtlciBzdHJva2UtZGFzaGFycmF5PSIwLDAiIG1hcmtlclVuaXRzPSJ1c2VyU3BhY2VPblVzZSIgb3JpZW50PSJhdXRvIiB2aWV3Qm94PSIwIDAgMTQgMTAiIHJlZlk9IjUiIHJlZlg9IjEwIiBtYXJrZXJIZWlnaHQ9IjEwIiBtYXJrZXJXaWR0aD0iMTQiIGlkPSJTdmdqc01hcmtlcjIwMjIiPjxwYXRoIHN0cm9rZS13aWR0aD0iMSIgc3Ryb2tlPSIjMzIzMjMyIiBmaWxsPSIjMzIzMjMyIiBkPSJNMCwwIEwxNCw1IEwwLDEwIEwwLDAiIGlkPSJTdmdqc1BhdGgyMDIzIi8+PC9tYXJrZXI+PG1hcmtlciBzdHJva2UtZGFzaGFycmF5PSIwLDAiIG1hcmtlclVuaXRzPSJ1c2VyU3BhY2VPblVzZSIgb3JpZW50PSJhdXRvIiB2aWV3Qm94PSIwIDAgMTQgMTAiIHJlZlk9IjUiIHJlZlg9IjEwIiBtYXJrZXJIZWlnaHQ9IjEwIiBtYXJrZXJXaWR0aD0iMTQiIGlkPSJTdmdqc01hcmtlcjIwMzIiPjxwYXRoIHN0cm9rZS13aWR0aD0iMSIgc3Ryb2tlPSIjMzIzMjMyIiBmaWxsPSIjMzIzMjMyIiBkPSJNMCwwIEwxNCw1IEwwLDEwIEwwLDAiIGlkPSJTdmdqc1BhdGgyMDMzIi8+PC9tYXJrZXI+PG1hcmtlciBzdHJva2UtZGFzaGFycmF5PSIwLDAiIG1hcmtlclVuaXRzPSJ1c2VyU3BhY2VPblVzZSIgb3JpZW50PSJhdXRvIiB2aWV3Qm94PSIwIDAgMTQgMTAiIHJlZlk9IjUiIHJlZlg9IjEwIiBtYXJrZXJIZWlnaHQ9IjEwIiBtYXJrZXJXaWR0aD0iMTQiIGlkPSJTdmdqc01hcmtlcjIwMzYiPjxwYXRoIHN0cm9rZS13aWR0aD0iMSIgc3Ryb2tlPSIjMzIzMjMyIiBmaWxsPSIjMzIzMjMyIiBkPSJNMCwwIEwxNCw1IEwwLDEwIEwwLDAiIGlkPSJTdmdqc1BhdGgyMDM3Ii8+PC9tYXJrZXI+PG1hcmtlciBzdHJva2UtZGFzaGFycmF5PSIwLDAiIG1hcmtlclVuaXRzPSJ1c2VyU3BhY2VPblVzZSIgb3JpZW50PSJhdXRvIiB2aWV3Qm94PSIwIDAgMTYgMTYiIHJlZlk9IjgiIHJlZlg9IjEzIiBtYXJrZXJIZWlnaHQ9IjE2IiBtYXJrZXJXaWR0aD0iMTYiIGlkPSJTdmdqc01hcmtlcjIwNDAiPjxjaXJjbGUgc3Ryb2tlLXdpZHRoPSIyIiBzdHJva2U9IiMzMjMyMzIiIGZpbGw9IiNmZmZmZmYiIGN5PSI4IiBjeD0iOCIgcj0iNCIgaWQ9IlN2Z2pzQ2lyY2xlMjA0MSIvPjwvbWFya2VyPjxtYXJrZXIgc3Ryb2tlLWRhc2hhcnJheT0iMCwwIiBtYXJrZXJVbml0cz0idXNlclNwYWNlT25Vc2UiIG9yaWVudD0iYXV0byIgdmlld0JveD0iMCAwIDE0IDEwIiByZWZZPSI1IiByZWZYPSIxMCIgbWFya2VySGVpZ2h0PSIxMCIgbWFya2VyV2lkdGg9IjE0IiBpZD0iU3ZnanNNYXJrZXIyMDU0Ij48cGF0aCBzdHJva2Utd2lkdGg9IjEiIHN0cm9rZT0iIzMyMzIzMiIgZmlsbD0iIzMyMzIzMiIgZD0iTTAsMCBMMTQsNSBMMCwxMCBMMCwwIiBpZD0iU3ZnanNQYXRoMjA1NSIvPjwvbWFya2VyPjxtYXJrZXIgc3Ryb2tlLWRhc2hhcnJheT0iMCwwIiBtYXJrZXJVbml0cz0idXNlclNwYWNlT25Vc2UiIG9yaWVudD0iYXV0byIgdmlld0JveD0iMCAwIDE0IDEwIiByZWZZPSI1IiByZWZYPSIxMCIgbWFya2VySGVpZ2h0PSIxMCIgbWFya2VyV2lkdGg9IjE0IiBpZD0iU3ZnanNNYXJrZXIyMDY0Ij48cGF0aCBzdHJva2Utd2lkdGg9IjEiIHN0cm9rZT0iIzMyMzIzMiIgZmlsbD0iIzMyMzIzMiIgZD0iTTAsMCBMMTQsNSBMMCwxMCBMMCwwIiBpZD0iU3ZnanNQYXRoMjA2NSIvPjwvbWFya2VyPjxtYXJrZXIgc3Ryb2tlLWRhc2hhcnJheT0iMCwwIiBtYXJrZXJVbml0cz0idXNlclNwYWNlT25Vc2UiIG9yaWVudD0iYXV0byIgdmlld0JveD0iMCAwIDE0IDEwIiByZWZZPSI1IiByZWZYPSIxMCIgbWFya2VySGVpZ2h0PSIxMCIgbWFya2VyV2lkdGg9IjE0IiBpZD0iU3ZnanNNYXJrZXIyMDc4Ij48cGF0aCBzdHJva2Utd2lkdGg9IjEiIHN0cm9rZT0iIzMyMzIzMiIgZmlsbD0iIzMyMzIzMiIgZD0iTTAsMCBMMTQsNSBMMCwxMCBMMCwwIiBpZD0iU3ZnanNQYXRoMjA3OSIvPjwvbWFya2VyPjxtYXJrZXIgc3Ryb2tlLWRhc2hhcnJheT0iMCwwIiBtYXJrZXJVbml0cz0idXNlclNwYWNlT25Vc2UiIG9yaWVudD0iYXV0byIgdmlld0JveD0iMCAwIDE0IDEwIiByZWZZPSI1IiByZWZYPSIxMCIgbWFya2VySGVpZ2h0PSIxMCIgbWFya2VyV2lkdGg9IjE0IiBpZD0iU3ZnanNNYXJrZXIyMDkyIj48cGF0aCBzdHJva2Utd2lkdGg9IjEiIHN0cm9rZT0iIzMyMzIzMiIgZmlsbD0iIzMyMzIzMiIgZD0iTTAsMCBMMTQsNSBMMCwxMCBMMCwwIiBpZD0iU3ZnanNQYXRoMjA5MyIvPjwvbWFya2VyPjxtYXJrZXIgc3Ryb2tlLWRhc2hhcnJheT0iMCwwIiBtYXJrZXJVbml0cz0idXNlclNwYWNlT25Vc2UiIG9yaWVudD0iYXV0byIgdmlld0JveD0iMCAwIDE0IDEwIiByZWZZPSI1IiByZWZYPSIxMCIgbWFya2VySGVpZ2h0PSIxMCIgbWFya2VyV2lkdGg9IjE0IiBpZD0iU3ZnanNNYXJrZXIyMTA4Ij48cGF0aCBzdHJva2Utd2lkdGg9IjEiIHN0cm9rZT0iIzMyMzIzMiIgZmlsbD0iIzMyMzIzMiIgZD0iTTAsMCBMMTQsNSBMMCwxMCBMMCwwIiBpZD0iU3ZnanNQYXRoMjEwOSIvPjwvbWFya2VyPjxtYXJrZXIgc3Ryb2tlLWRhc2hhcnJheT0iMCwwIiBtYXJrZXJVbml0cz0idXNlclNwYWNlT25Vc2UiIG9yaWVudD0iYXV0byIgdmlld0JveD0iMCAwIDE0IDEwIiByZWZZPSI1IiByZWZYPSIxMCIgbWFya2VySGVpZ2h0PSIxMCIgbWFya2VyV2lkdGg9IjE0IiBpZD0iU3ZnanNNYXJrZXIyMTIyIj48cGF0aCBzdHJva2Utd2lkdGg9IjEiIHN0cm9rZT0iIzMyMzIzMiIgZmlsbD0iIzMyMzIzMiIgZD0iTTAsMCBMMTQsNSBMMCwxMCBMMCwwIiBpZD0iU3ZnanNQYXRoMjEyMyIvPjwvbWFya2VyPjxtYXJrZXIgc3Ryb2tlLWRhc2hhcnJheT0iMCwwIiBtYXJrZXJVbml0cz0idXNlclNwYWNlT25Vc2UiIG9yaWVudD0iYXV0byIgdmlld0JveD0iMCAwIDE0IDEwIiByZWZZPSI1IiByZWZYPSIxMCIgbWFya2VySGVpZ2h0PSIxMCIgbWFya2VyV2lkdGg9IjE0IiBpZD0iU3ZnanNNYXJrZXIyMTM0Ij48cGF0aCBzdHJva2Utd2lkdGg9IjEiIHN0cm9rZT0iIzMyMzIzMiIgZmlsbD0iIzMyMzIzMiIgZD0iTTAsMCBMMTQsNSBMMCwxMCBMMCwwIiBpZD0iU3ZnanNQYXRoMjEzNSIvPjwvbWFya2VyPjxtYXJrZXIgc3Ryb2tlLWRhc2hhcnJheT0iMCwwIiBtYXJrZXJVbml0cz0idXNlclNwYWNlT25Vc2UiIG9yaWVudD0iYXV0byIgdmlld0JveD0iMCAwIDE0IDEwIiByZWZZPSI1IiByZWZYPSIxMCIgbWFya2VySGVpZ2h0PSIxMCIgbWFya2VyV2lkdGg9IjE0IiBpZD0iU3ZnanNNYXJrZXIyMTUwIj48cGF0aCBzdHJva2Utd2lkdGg9IjEiIHN0cm9rZT0iIzMyMzIzMiIgZmlsbD0iIzMyMzIzMiIgZD0iTTAsMCBMMTQsNSBMMCwxMCBMMCwwIiBpZD0iU3ZnanNQYXRoMjE1MSIvPjwvbWFya2VyPjxtYXJrZXIgc3Ryb2tlLWRhc2hhcnJheT0iMCwwIiBtYXJrZXJVbml0cz0idXNlclNwYWNlT25Vc2UiIG9yaWVudD0iYXV0byIgdmlld0JveD0iMCAwIDE0IDEwIiByZWZZPSI1IiByZWZYPSIxMCIgbWFya2VySGVpZ2h0PSIxMCIgbWFya2VyV2lkdGg9IjE0IiBpZD0iU3ZnanNNYXJrZXIyMTcyIj48cGF0aCBzdHJva2Utd2lkdGg9IjEiIHN0cm9rZT0iIzMyMzIzMiIgZmlsbD0iIzMyMzIzMiIgZD0iTTAsMCBMMTQsNSBMMCwxMCBMMCwwIiBpZD0iU3ZnanNQYXRoMjE3MyIvPjwvbWFya2VyPjxtYXJrZXIgc3Ryb2tlLWRhc2hhcnJheT0iMCwwIiBtYXJrZXJVbml0cz0idXNlclNwYWNlT25Vc2UiIG9yaWVudD0iYXV0byIgdmlld0JveD0iMCAwIDE0IDEwIiByZWZZPSI1IiByZWZYPSIxMCIgbWFya2VySGVpZ2h0PSIxMCIgbWFya2VyV2lkdGg9IjE0IiBpZD0iU3ZnanNNYXJrZXIyMTc2Ij48cGF0aCBzdHJva2Utd2lkdGg9IjEiIHN0cm9rZT0iIzMyMzIzMiIgZmlsbD0iIzMyMzIzMiIgZD0iTTAsMCBMMTQsNSBMMCwxMCBMMCwwIiBpZD0iU3ZnanNQYXRoMjE3NyIvPjwvbWFya2VyPjxtYXJrZXIgc3Ryb2tlLWRhc2hhcnJheT0iMCwwIiBtYXJrZXJVbml0cz0idXNlclNwYWNlT25Vc2UiIG9yaWVudD0iYXV0byIgdmlld0JveD0iMCAwIDE0IDEwIiByZWZZPSI1IiByZWZYPSIxMCIgbWFya2VySGVpZ2h0PSIxMCIgbWFya2VyV2lkdGg9IjE0IiBpZD0iU3ZnanNNYXJrZXIyMTg2Ij48cGF0aCBzdHJva2Utd2lkdGg9IjEiIHN0cm9rZT0iIzMyMzIzMiIgZmlsbD0iIzMyMzIzMiIgZD0iTTAsMCBMMTQsNSBMMCwxMCBMMCwwIiBpZD0iU3ZnanNQYXRoMjE4NyIvPjwvbWFya2VyPjxtYXJrZXIgc3Ryb2tlLWRhc2hhcnJheT0iMCwwIiBtYXJrZXJVbml0cz0idXNlclNwYWNlT25Vc2UiIG9yaWVudD0iYXV0byIgdmlld0JveD0iMCAwIDE0IDEwIiByZWZZPSI1IiByZWZYPSIxMCIgbWFya2VySGVpZ2h0PSIxMCIgbWFya2VyV2lkdGg9IjE0IiBpZD0iU3ZnanNNYXJrZXIyMTk2Ij48cGF0aCBzdHJva2Utd2lkdGg9IjEiIHN0cm9rZT0iIzMyMzIzMiIgZmlsbD0iIzMyMzIzMiIgZD0iTTAsMCBMMTQsNSBMMCwxMCBMMCwwIiBpZD0iU3ZnanNQYXRoMjE5NyIvPjwvbWFya2VyPjxtYXJrZXIgc3Ryb2tlLWRhc2hhcnJheT0iMCwwIiBtYXJrZXJVbml0cz0idXNlclNwYWNlT25Vc2UiIG9yaWVudD0iYXV0byIgdmlld0JveD0iMCAwIDE0IDEwIiByZWZZPSI1IiByZWZYPSIxMCIgbWFya2VySGVpZ2h0PSIxMCIgbWFya2VyV2lkdGg9IjE0IiBpZD0iU3ZnanNNYXJrZXIyMjEwIj48cGF0aCBzdHJva2Utd2lkdGg9IjEiIHN0cm9rZT0iIzMyMzIzMiIgZmlsbD0iIzMyMzIzMiIgZD0iTTAsMCBMMTQsNSBMMCwxMCBMMCwwIiBpZD0iU3ZnanNQYXRoMjIxMSIvPjwvbWFya2VyPjxtYXJrZXIgc3Ryb2tlLWRhc2hhcnJheT0iMCwwIiBtYXJrZXJVbml0cz0idXNlclNwYWNlT25Vc2UiIG9yaWVudD0iYXV0byIgdmlld0JveD0iMCAwIDE0IDEwIiByZWZZPSI1IiByZWZYPSIxMCIgbWFya2VySGVpZ2h0PSIxMCIgbWFya2VyV2lkdGg9IjE0IiBpZD0iU3ZnanNNYXJrZXIyMjIwIj48cGF0aCBzdHJva2Utd2lkdGg9IjEiIHN0cm9rZT0iIzMyMzIzMiIgZmlsbD0iIzMyMzIzMiIgZD0iTTAsMCBMMTQsNSBMMCwxMCBMMCwwIiBpZD0iU3ZnanNQYXRoMjIyMSIvPjwvbWFya2VyPjxtYXJrZXIgc3Ryb2tlLWRhc2hhcnJheT0iMCwwIiBtYXJrZXJVbml0cz0idXNlclNwYWNlT25Vc2UiIG9yaWVudD0iYXV0byIgdmlld0JveD0iMCAwIDIwIDEyIiByZWZZPSI2IiByZWZYPSIyMCIgbWFya2VySGVpZ2h0PSIxMiIgbWFya2VyV2lkdGg9IjIwIiBpZD0iU3ZnanNNYXJrZXIyMjI0Ij48cGF0aCBzdHJva2Utd2lkdGg9IjIiIHN0cm9rZT0iIzMyMzIzMiIgZmlsbD0iI2ZmZmZmZiIgZD0iTTIsNiBMMTAsMiBMMTgsNiBMMTAsMTBMMiw2IiBpZD0iU3ZnanNQYXRoMjIyNSIvPjwvbWFya2VyPjxtYXJrZXIgc3Ryb2tlLWRhc2hhcnJheT0iMCwwIiBtYXJrZXJVbml0cz0idXNlclNwYWNlT25Vc2UiIG9yaWVudD0iYXV0byIgdmlld0JveD0iMCAwIDE0IDEwIiByZWZZPSI1IiByZWZYPSIxMCIgbWFya2VySGVpZ2h0PSIxMCIgbWFya2VyV2lkdGg9IjE0IiBpZD0iU3ZnanNNYXJrZXIyMjQ0Ij48cGF0aCBzdHJva2Utd2lkdGg9IjEiIHN0cm9rZT0iIzMyMzIzMiIgZmlsbD0iIzMyMzIzMiIgZD0iTTAsMCBMMTQsNSBMMCwxMCBMMCwwIiBpZD0iU3ZnanNQYXRoMjI0NSIvPjwvbWFya2VyPjxtYXJrZXIgc3Ryb2tlLWRhc2hhcnJheT0iMCwwIiBtYXJrZXJVbml0cz0idXNlclNwYWNlT25Vc2UiIG9yaWVudD0iYXV0byIgdmlld0JveD0iMCAwIDE0IDEwIiByZWZZPSI1IiByZWZYPSIxMCIgbWFya2VySGVpZ2h0PSIxMCIgbWFya2VyV2lkdGg9IjE0IiBpZD0iU3ZnanNNYXJrZXIyMjQ4Ij48cGF0aCBzdHJva2Utd2lkdGg9IjEiIHN0cm9rZT0iIzMyMzIzMiIgZmlsbD0iIzMyMzIzMiIgZD0iTTAsMCBMMTQsNSBMMCwxMCBMMCwwIiBpZD0iU3ZnanNQYXRoMjI0OSIvPjwvbWFya2VyPjxtYXJrZXIgc3Ryb2tlLWRhc2hhcnJheT0iMCwwIiBtYXJrZXJVbml0cz0idXNlclNwYWNlT25Vc2UiIG9yaWVudD0iYXV0byIgdmlld0JveD0iMCAwIDE0IDEwIiByZWZZPSI1IiByZWZYPSIxMCIgbWFya2VySGVpZ2h0PSIxMCIgbWFya2VyV2lkdGg9IjE0IiBpZD0iU3ZnanNNYXJrZXIyMjYwIj48cGF0aCBzdHJva2Utd2lkdGg9IjEiIHN0cm9rZT0iIzMyMzIzMiIgZmlsbD0iIzMyMzIzMiIgZD0iTTAsMCBMMTQsNSBMMCwxMCBMMCwwIiBpZD0iU3ZnanNQYXRoMjI2MSIvPjwvbWFya2VyPjxtYXJrZXIgc3Ryb2tlLWRhc2hhcnJheT0iMCwwIiBtYXJrZXJVbml0cz0idXNlclNwYWNlT25Vc2UiIG9yaWVudD0iYXV0byIgdmlld0JveD0iMCAwIDE0IDEwIiByZWZZPSI1IiByZWZYPSIxMCIgbWFya2VySGVpZ2h0PSIxMCIgbWFya2VyV2lkdGg9IjE0IiBpZD0iU3ZnanNNYXJrZXIyMzAyIj48cGF0aCBzdHJva2Utd2lkdGg9IjEiIHN0cm9rZT0iIzMyMzIzMiIgZmlsbD0iIzMyMzIzMiIgZD0iTTAsMCBMMTQsNSBMMCwxMCBMMCwwIiBpZD0iU3ZnanNQYXRoMjMwMyIvPjwvbWFya2VyPjxtYXJrZXIgc3Ryb2tlLWRhc2hhcnJheT0iMCwwIiBtYXJrZXJVbml0cz0idXNlclNwYWNlT25Vc2UiIG9yaWVudD0iYXV0byIgdmlld0JveD0iMCAwIDE0IDEwIiByZWZZPSI1IiByZWZYPSIxMCIgbWFya2VySGVpZ2h0PSIxMCIgbWFya2VyV2lkdGg9IjE0IiBpZD0iU3ZnanNNYXJrZXIyMzI2Ij48cGF0aCBzdHJva2Utd2lkdGg9IjEiIHN0cm9rZT0iIzMyMzIzMiIgZmlsbD0iIzMyMzIzMiIgZD0iTTAsMCBMMTQsNSBMMCwxMCBMMCwwIiBpZD0iU3ZnanNQYXRoMjMyNyIvPjwvbWFya2VyPjxtYXJrZXIgc3Ryb2tlLWRhc2hhcnJheT0iMCwwIiBtYXJrZXJVbml0cz0idXNlclNwYWNlT25Vc2UiIG9yaWVudD0iYXV0byIgdmlld0JveD0iMCAwIDE0IDEwIiByZWZZPSI1IiByZWZYPSIxMCIgbWFya2VySGVpZ2h0PSIxMCIgbWFya2VyV2lkdGg9IjE0IiBpZD0iU3ZnanNNYXJrZXIyMzM0Ij48cGF0aCBzdHJva2Utd2lkdGg9IjEiIHN0cm9rZT0iIzMyMzIzMiIgZmlsbD0iIzMyMzIzMiIgZD0iTTAsMCBMMTQsNSBMMCwxMCBMMCwwIiBpZD0iU3ZnanNQYXRoMjMzNSIvPjwvbWFya2VyPjxtYXJrZXIgc3Ryb2tlLWRhc2hhcnJheT0iMCwwIiBtYXJrZXJVbml0cz0idXNlclNwYWNlT25Vc2UiIG9yaWVudD0iYXV0byIgdmlld0JveD0iMCAwIDE0IDEwIiByZWZZPSI1IiByZWZYPSIxMCIgbWFya2VySGVpZ2h0PSIxMCIgbWFya2VyV2lkdGg9IjE0IiBpZD0iU3ZnanNNYXJrZXIyMzU0Ij48cGF0aCBzdHJva2Utd2lkdGg9IjEiIHN0cm9rZT0iIzMyMzIzMiIgZmlsbD0iIzMyMzIzMiIgZD0iTTAsMCBMMTQsNSBMMCwxMCBMMCwwIiBpZD0iU3ZnanNQYXRoMjM1NSIvPjwvbWFya2VyPjxtYXJrZXIgc3Ryb2tlLWRhc2hhcnJheT0iMCwwIiBtYXJrZXJVbml0cz0idXNlclNwYWNlT25Vc2UiIG9yaWVudD0iYXV0byIgdmlld0JveD0iMCAwIDE0IDEwIiByZWZZPSI1IiByZWZYPSIxMCIgbWFya2VySGVpZ2h0PSIxMCIgbWFya2VyV2lkdGg9IjE0IiBpZD0iU3ZnanNNYXJrZXIyMzc2Ij48cGF0aCBzdHJva2Utd2lkdGg9IjEiIHN0cm9rZT0iIzMyMzIzMiIgZmlsbD0iIzMyMzIzMiIgZD0iTTAsMCBMMTQsNSBMMCwxMCBMMCwwIiBpZD0iU3ZnanNQYXRoMjM3NyIvPjwvbWFya2VyPjxtYXJrZXIgc3Ryb2tlLWRhc2hhcnJheT0iMCwwIiBtYXJrZXJVbml0cz0idXNlclNwYWNlT25Vc2UiIG9yaWVudD0iYXV0byIgdmlld0JveD0iMCAwIDE0IDEwIiByZWZZPSI1IiByZWZYPSIxMCIgbWFya2VySGVpZ2h0PSIxMCIgbWFya2VyV2lkdGg9IjE0IiBpZD0iU3ZnanNNYXJrZXIyMzk4Ij48cGF0aCBzdHJva2Utd2lkdGg9IjEiIHN0cm9rZT0iIzMyMzIzMiIgZmlsbD0iIzMyMzIzMiIgZD0iTTAsMCBMMTQsNSBMMCwxMCBMMCwwIiBpZD0iU3ZnanNQYXRoMjM5OSIvPjwvbWFya2VyPjxtYXJrZXIgc3Ryb2tlLWRhc2hhcnJheT0iMCwwIiBtYXJrZXJVbml0cz0idXNlclNwYWNlT25Vc2UiIG9yaWVudD0iYXV0byIgdmlld0JveD0iMCAwIDE0IDEwIiByZWZZPSI1IiByZWZYPSIxMCIgbWFya2VySGVpZ2h0PSIxMCIgbWFya2VyV2lkdGg9IjE0IiBpZD0iU3ZnanNNYXJrZXIyNDA2Ij48cGF0aCBzdHJva2Utd2lkdGg9IjEiIHN0cm9rZT0iIzMyMzIzMiIgZmlsbD0iIzMyMzIzMiIgZD0iTTAsMCBMMTQsNSBMMCwxMCBMMCwwIiBpZD0iU3ZnanNQYXRoMjQwNyIvPjwvbWFya2VyPjxtYXJrZXIgc3Ryb2tlLWRhc2hhcnJheT0iMCwwIiBtYXJrZXJVbml0cz0idXNlclNwYWNlT25Vc2UiIG9yaWVudD0iYXV0byIgdmlld0JveD0iMCAwIDE0IDEwIiByZWZZPSI1IiByZWZYPSIxMCIgbWFya2VySGVpZ2h0PSIxMCIgbWFya2VyV2lkdGg9IjE0IiBpZD0iU3ZnanNNYXJrZXIyNDE0Ij48cGF0aCBzdHJva2Utd2lkdGg9IjEiIHN0cm9rZT0iIzMyMzIzMiIgZmlsbD0iIzMyMzIzMiIgZD0iTTAsMCBMMTQsNSBMMCwxMCBMMCwwIiBpZD0iU3ZnanNQYXRoMjQxNSIvPjwvbWFya2VyPjxtYXJrZXIgc3Ryb2tlLWRhc2hhcnJheT0iMCwwIiBtYXJrZXJVbml0cz0idXNlclNwYWNlT25Vc2UiIG9yaWVudD0iYXV0byIgdmlld0JveD0iMCAwIDE0IDEwIiByZWZZPSI1IiByZWZYPSIxMCIgbWFya2VySGVpZ2h0PSIxMCIgbWFya2VyV2lkdGg9IjE0IiBpZD0iU3ZnanNNYXJrZXIyNDIyIj48cGF0aCBzdHJva2Utd2lkdGg9IjEiIHN0cm9rZT0iIzMyMzIzMiIgZmlsbD0iIzMyMzIzMiIgZD0iTTAsMCBMMTQsNSBMMCwxMCBMMCwwIiBpZD0iU3ZnanNQYXRoMjQyMyIvPjwvbWFya2VyPjxtYXJrZXIgc3Ryb2tlLWRhc2hhcnJheT0iMCwwIiBtYXJrZXJVbml0cz0idXNlclNwYWNlT25Vc2UiIG9yaWVudD0iYXV0byIgdmlld0JveD0iMCAwIDE0IDEwIiByZWZZPSI1IiByZWZYPSIxMCIgbWFya2VySGVpZ2h0PSIxMCIgbWFya2VyV2lkdGg9IjE0IiBpZD0iU3ZnanNNYXJrZXIyNDMwIj48cGF0aCBzdHJva2Utd2lkdGg9IjEiIHN0cm9rZT0iIzMyMzIzMiIgZmlsbD0iIzMyMzIzMiIgZD0iTTAsMCBMMTQsNSBMMCwxMCBMMCwwIiBpZD0iU3ZnanNQYXRoMjQzMSIvPjwvbWFya2VyPjxtYXJrZXIgc3Ryb2tlLWRhc2hhcnJheT0iMCwwIiBtYXJrZXJVbml0cz0idXNlclNwYWNlT25Vc2UiIG9yaWVudD0iYXV0byIgdmlld0JveD0iMCAwIDE0IDEwIiByZWZZPSI1IiByZWZYPSIxMCIgbWFya2VySGVpZ2h0PSIxMCIgbWFya2VyV2lkdGg9IjE0IiBpZD0iU3ZnanNNYXJrZXIyNDQ0Ij48cGF0aCBzdHJva2Utd2lkdGg9IjEiIHN0cm9rZT0iIzMyMzIzMiIgZmlsbD0iIzMyMzIzMiIgZD0iTTAsMCBMMTQsNSBMMCwxMCBMMCwwIiBpZD0iU3ZnanNQYXRoMjQ0NSIvPjwvbWFya2VyPjxtYXJrZXIgc3Ryb2tlLWRhc2hhcnJheT0iMCwwIiBtYXJrZXJVbml0cz0idXNlclNwYWNlT25Vc2UiIG9yaWVudD0iYXV0byIgdmlld0JveD0iMCAwIDE0IDEwIiByZWZZPSI1IiByZWZYPSIxMCIgbWFya2VySGVpZ2h0PSIxMCIgbWFya2VyV2lkdGg9IjE0IiBpZD0iU3ZnanNNYXJrZXIyNDYwIj48cGF0aCBzdHJva2Utd2lkdGg9IjEiIHN0cm9rZT0iIzMyMzIzMiIgZmlsbD0iIzMyMzIzMiIgZD0iTTAsMCBMMTQsNSBMMCwxMCBMMCwwIiBpZD0iU3ZnanNQYXRoMjQ2MSIvPjwvbWFya2VyPjxtYXJrZXIgc3Ryb2tlLWRhc2hhcnJheT0iMCwwIiBtYXJrZXJVbml0cz0idXNlclNwYWNlT25Vc2UiIG9yaWVudD0iYXV0byIgdmlld0JveD0iMCAwIDE0IDEwIiByZWZZPSI1IiByZWZYPSIxMCIgbWFya2VySGVpZ2h0PSIxMCIgbWFya2VyV2lkdGg9IjE0IiBpZD0iU3ZnanNNYXJrZXIyNDY4Ij48cGF0aCBzdHJva2Utd2lkdGg9IjEiIHN0cm9rZT0iIzMyMzIzMiIgZmlsbD0iIzMyMzIzMiIgZD0iTTAsMCBMMTQsNSBMMCwxMCBMMCwwIiBpZD0iU3ZnanNQYXRoMjQ2OSIvPjwvbWFya2VyPjxtYXJrZXIgc3Ryb2tlLWRhc2hhcnJheT0iMCwwIiBtYXJrZXJVbml0cz0idXNlclNwYWNlT25Vc2UiIG9yaWVudD0iYXV0byIgdmlld0JveD0iMCAwIDE0IDEwIiByZWZZPSI1IiByZWZYPSIxMCIgbWFya2VySGVpZ2h0PSIxMCIgbWFya2VyV2lkdGg9IjE0IiBpZD0iU3ZnanNNYXJrZXIyNDkyIj48cGF0aCBzdHJva2Utd2lkdGg9IjEiIHN0cm9rZT0iIzMyMzIzMiIgZmlsbD0iIzMyMzIzMiIgZD0iTTAsMCBMMTQsNSBMMCwxMCBMMCwwIiBpZD0iU3ZnanNQYXRoMjQ5MyIvPjwvbWFya2VyPjxtYXJrZXIgc3Ryb2tlLWRhc2hhcnJheT0iMCwwIiBtYXJrZXJVbml0cz0idXNlclNwYWNlT25Vc2UiIG9yaWVudD0iYXV0byIgdmlld0JveD0iMCAwIDE0IDEwIiByZWZZPSI1IiByZWZYPSIxMCIgbWFya2VySGVpZ2h0PSIxMCIgbWFya2VyV2lkdGg9IjE0IiBpZD0iU3ZnanNNYXJrZXIyNTA4Ij48cGF0aCBzdHJva2Utd2lkdGg9IjEiIHN0cm9rZT0iIzMyMzIzMiIgZmlsbD0iIzMyMzIzMiIgZD0iTTAsMCBMMTQsNSBMMCwxMCBMMCwwIiBpZD0iU3ZnanNQYXRoMjUwOSIvPjwvbWFya2VyPjxtYXJrZXIgc3Ryb2tlLWRhc2hhcnJheT0iMCwwIiBtYXJrZXJVbml0cz0idXNlclNwYWNlT25Vc2UiIG9yaWVudD0iYXV0byIgdmlld0JveD0iMCAwIDE0IDEwIiByZWZZPSI1IiByZWZYPSIxMCIgbWFya2VySGVpZ2h0PSIxMCIgbWFya2VyV2lkdGg9IjE0IiBpZD0iU3ZnanNNYXJrZXIyNTIwIj48cGF0aCBzdHJva2Utd2lkdGg9IjEiIHN0cm9rZT0iIzMyMzIzMiIgZmlsbD0iIzMyMzIzMiIgZD0iTTAsMCBMMTQsNSBMMCwxMCBMMCwwIiBpZD0iU3ZnanNQYXRoMjUyMSIvPjwvbWFya2VyPjxtYXJrZXIgc3Ryb2tlLWRhc2hhcnJheT0iMCwwIiBtYXJrZXJVbml0cz0idXNlclNwYWNlT25Vc2UiIG9yaWVudD0iYXV0byIgdmlld0JveD0iMCAwIDE0IDEwIiByZWZZPSI1IiByZWZYPSIxMCIgbWFya2VySGVpZ2h0PSIxMCIgbWFya2VyV2lkdGg9IjE0IiBpZD0iU3ZnanNNYXJrZXIyNTQ4Ij48cGF0aCBzdHJva2Utd2lkdGg9IjEiIHN0cm9rZT0iIzMyMzIzMiIgZmlsbD0iIzMyMzIzMiIgZD0iTTAsMCBMMTQsNSBMMCwxMCBMMCwwIiBpZD0iU3ZnanNQYXRoMjU0OSIvPjwvbWFya2VyPjxtYXJrZXIgc3Ryb2tlLWRhc2hhcnJheT0iMCwwIiBtYXJrZXJVbml0cz0idXNlclNwYWNlT25Vc2UiIG9yaWVudD0iYXV0byIgdmlld0JveD0iMCAwIDE0IDEwIiByZWZZPSI1IiByZWZYPSIxMCIgbWFya2VySGVpZ2h0PSIxMCIgbWFya2VyV2lkdGg9IjE0IiBpZD0iU3ZnanNNYXJrZXIyNTU2Ij48cGF0aCBzdHJva2Utd2lkdGg9IjEiIHN0cm9rZT0iIzMyMzIzMiIgZmlsbD0iIzMyMzIzMiIgZD0iTTAsMCBMMTQsNSBMMCwxMCBMMCwwIiBpZD0iU3ZnanNQYXRoMjU1NyIvPjwvbWFya2VyPjxtYXJrZXIgc3Ryb2tlLWRhc2hhcnJheT0iMCwwIiBtYXJrZXJVbml0cz0idXNlclNwYWNlT25Vc2UiIG9yaWVudD0iYXV0byIgdmlld0JveD0iMCAwIDE0IDEwIiByZWZZPSI1IiByZWZYPSIxMCIgbWFya2VySGVpZ2h0PSIxMCIgbWFya2VyV2lkdGg9IjE0IiBpZD0iU3ZnanNNYXJrZXIyNTcwIj48cGF0aCBzdHJva2Utd2lkdGg9IjEiIHN0cm9rZT0iIzMyMzIzMiIgZmlsbD0iIzMyMzIzMiIgZD0iTTAsMCBMMTQsNSBMMCwxMCBMMCwwIiBpZD0iU3ZnanNQYXRoMjU3MSIvPjwvbWFya2VyPjxtYXJrZXIgc3Ryb2tlLWRhc2hhcnJheT0iMCwwIiBtYXJrZXJVbml0cz0idXNlclNwYWNlT25Vc2UiIG9yaWVudD0iYXV0byIgdmlld0JveD0iMCAwIDE0IDEwIiByZWZZPSI1IiByZWZYPSIxMCIgbWFya2VySGVpZ2h0PSIxMCIgbWFya2VyV2lkdGg9IjE0IiBpZD0iU3ZnanNNYXJrZXIyNTgyIj48cGF0aCBzdHJva2Utd2lkdGg9IjEiIHN0cm9rZT0iIzMyMzIzMiIgZmlsbD0iIzMyMzIzMiIgZD0iTTAsMCBMMTQsNSBMMCwxMCBMMCwwIiBpZD0iU3ZnanNQYXRoMjU4MyIvPjwvbWFya2VyPjxtYXJrZXIgc3Ryb2tlLWRhc2hhcnJheT0iMCwwIiBtYXJrZXJVbml0cz0idXNlclNwYWNlT25Vc2UiIG9yaWVudD0iYXV0byIgdmlld0JveD0iMCAwIDE0IDEwIiByZWZZPSI1IiByZWZYPSIxMCIgbWFya2VySGVpZ2h0PSIxMCIgbWFya2VyV2lkdGg9IjE0IiBpZD0iU3ZnanNNYXJrZXIyNTkyIj48cGF0aCBzdHJva2Utd2lkdGg9IjEiIHN0cm9rZT0iIzMyMzIzMiIgZmlsbD0iIzMyMzIzMiIgZD0iTTAsMCBMMTQsNSBMMCwxMCBMMCwwIiBpZD0iU3ZnanNQYXRoMjU5MyIvPjwvbWFya2VyPjxtYXJrZXIgc3Ryb2tlLWRhc2hhcnJheT0iMCwwIiBtYXJrZXJVbml0cz0idXNlclNwYWNlT25Vc2UiIG9yaWVudD0iYXV0byIgdmlld0JveD0iMCAwIDE0IDEwIiByZWZZPSI1IiByZWZYPSIxMCIgbWFya2VySGVpZ2h0PSIxMCIgbWFya2VyV2lkdGg9IjE0IiBpZD0iU3ZnanNNYXJrZXIyNjAyIj48cGF0aCBzdHJva2Utd2lkdGg9IjEiIHN0cm9rZT0iIzMyMzIzMiIgZmlsbD0iIzMyMzIzMiIgZD0iTTAsMCBMMTQsNSBMMCwxMCBMMCwwIiBpZD0iU3ZnanNQYXRoMjYwMyIvPjwvbWFya2VyPjxtYXJrZXIgc3Ryb2tlLWRhc2hhcnJheT0iMCwwIiBtYXJrZXJVbml0cz0idXNlclNwYWNlT25Vc2UiIG9yaWVudD0iYXV0byIgdmlld0JveD0iMCAwIDE0IDEwIiByZWZZPSI1IiByZWZYPSIxMCIgbWFya2VySGVpZ2h0PSIxMCIgbWFya2VyV2lkdGg9IjE0IiBpZD0iU3ZnanNNYXJrZXIyNjEyIj48cGF0aCBzdHJva2Utd2lkdGg9IjEiIHN0cm9rZT0iIzMyMzIzMiIgZmlsbD0iIzMyMzIzMiIgZD0iTTAsMCBMMTQsNSBMMCwxMCBMMCwwIiBpZD0iU3ZnanNQYXRoMjYxMyIvPjwvbWFya2VyPjxtYXJrZXIgc3Ryb2tlLWRhc2hhcnJheT0iMCwwIiBtYXJrZXJVbml0cz0idXNlclNwYWNlT25Vc2UiIG9yaWVudD0iYXV0byIgdmlld0JveD0iMCAwIDE0IDEwIiByZWZZPSI1IiByZWZYPSIxMCIgbWFya2VySGVpZ2h0PSIxMCIgbWFya2VyV2lkdGg9IjE0IiBpZD0iU3ZnanNNYXJrZXIyNjI0Ij48cGF0aCBzdHJva2Utd2lkdGg9IjEiIHN0cm9rZT0iIzMyMzIzMiIgZmlsbD0iIzMyMzIzMiIgZD0iTTAsMCBMMTQsNSBMMCwxMCBMMCwwIiBpZD0iU3ZnanNQYXRoMjYyNSIvPjwvbWFya2VyPjxtYXJrZXIgc3Ryb2tlLWRhc2hhcnJheT0iMCwwIiBtYXJrZXJVbml0cz0idXNlclNwYWNlT25Vc2UiIG9yaWVudD0iYXV0byIgdmlld0JveD0iMCAwIDE0IDEwIiByZWZZPSI1IiByZWZYPSIxMCIgbWFya2VySGVpZ2h0PSIxMCIgbWFya2VyV2lkdGg9IjE0IiBpZD0iU3ZnanNNYXJrZXIyNjM0Ij48cGF0aCBzdHJva2Utd2lkdGg9IjEiIHN0cm9rZT0iIzMyMzIzMiIgZmlsbD0iIzMyMzIzMiIgZD0iTTAsMCBMMTQsNSBMMCwxMCBMMCwwIiBpZD0iU3ZnanNQYXRoMjYzNSIvPjwvbWFya2VyPjwvZGVmcz48ZyB0cmFuc2Zvcm09InRyYW5zbGF0ZSgyNzMsODcpIiBpZD0iU3ZnanNHMTgyNiI+PHBhdGggZmlsbD0iI2ZmZmZmZiIgZmlsbC1vcGFjaXR5PSIxIiBzdHJva2Utd2lkdGg9IjIiIHN0cm9rZT0icmdiYSg1MCw1MCw1MCwxKSIgZD0iTSAwIDQwTCA2MCAwTCAxMjAgNDBMIDYwIDgwWiIgaWQ9IlN2Z2pzUGF0aDE4MjciLz48ZyBpZD0iU3ZnanNHMTgyOCI+PHRleHQgdHJhbnNmb3JtPSJyb3RhdGUoMCkiIHk9IjIxLjI3NSIgb3BhY2l0eT0iMSIgZm9udC1zdHlsZT0iIiBzaXplPSIxM3B4IiBhbGlnbj0ibWlkZGxlIiBmb250LXdlaWdodD0iNDAwIiBmaWxsPSIjMDAwMDAwIiB3aWR0aD0iMTAwcHgiIGZvbnQtc2l6ZT0iMTNweCIgdGV4dC1hbmNob3I9Im1pZGRsZSIgZm9udC1mYW1pbHk9IuW+rui9r+mbhem7kSIgaWQ9IlN2Z2pzVGV4dDE4MjkiPjx0c3BhbiB4PSI2MCIgZHk9IjE2IiBpZD0iU3ZnanNUc3BhbjE4MzAiPjx0c3BhbiBzdHlsZT0idGV4dC1kZWNvcmF0aW9uOjsiIGlkPSJTdmdqc1RzcGFuMTgzMSI+5pa95rOV5a+56LGh5piv5ZCm6IeqPC90c3Bhbj48L3RzcGFuPjx0c3BhbiB4PSI2MCIgZHk9IjE2IiBpZD0iU3ZnanNUc3BhbjE4MzIiPjx0c3BhbiBzdHlsZT0idGV4dC1kZWNvcmF0aW9uOjsiIGlkPSJTdmdqc1RzcGFuMTgzMyI+5bex5oiW5a6g54mpPC90c3Bhbj48L3RzcGFuPjwvdGV4dD48L2c+PC9nPjxnIHRyYW5zZm9ybT0idHJhbnNsYXRlKDUwMSw5MikiIGlkPSJTdmdqc0cxODM0Ij48cGF0aCBmaWxsPSIjZmZmZmZmIiBmaWxsLW9wYWNpdHk9IjEiIHN0cm9rZS13aWR0aD0iMiIgc3Ryb2tlPSJyZ2JhKDUwLDUwLDUwLDEpIiBkPSJNIDAgMEwgMTAwIDBMIDEwMCA3MEwgMCA3MFoiIGlkPSJTdmdqc1BhdGgxODM1Ii8+PGcgaWQ9IlN2Z2pzRzE4MzYiPjx0ZXh0IHRyYW5zZm9ybT0icm90YXRlKDApIiB5PSIyNC4zNzUiIG9wYWNpdHk9IjEiIGZvbnQtc3R5bGU9IiIgc2l6ZT0iMTNweCIgYWxpZ249Im1pZGRsZSIgZm9udC13ZWlnaHQ9IjQwMCIgZmlsbD0iIzAwMDAwMCIgd2lkdGg9IjgwcHgiIGZvbnQtc2l6ZT0iMTNweCIgdGV4dC1hbmNob3I9Im1pZGRsZSIgZm9udC1mYW1pbHk9IuW+rui9r+mbhem7kSIgaWQ9IlN2Z2pzVGV4dDE4MzciPjx0c3BhbiB4PSI1MCIgZHk9IjE2IiBpZD0iU3ZnanNUc3BhbjE4MzgiPjx0c3BhbiBzdHlsZT0idGV4dC1kZWNvcmF0aW9uOjsiIGlkPSJTdmdqc1RzcGFuMTgzOSI+5byA5aeL5Lyk5a6z5rWB56iLPC90c3Bhbj48L3RzcGFuPjwvdGV4dD48L2c+PC9nPjxnIGlkPSJTdmdqc0cxODQwIj48cGF0aCBtYXJrZXItZW5kPSJ1cmwoI1N2Z2pzTWFya2VyMTg0MikiIGZpbGw9Im5vbmUiIHN0cm9rZS13aWR0aD0iMiIgc3Ryb2tlPSIjMzIzMjMyIiBkPSJNMzk0IDEyN0w0NDcgMTI3TDQ0NyAxMjdMNDk3LjQgMTI3IiBpZD0iU3ZnanNQYXRoMTg0MSIvPjxyZWN0IGZpbGw9IiNmZmZmZmYiIHk9IjExOSIgeD0iNDM5LjIiIGhlaWdodD0iMTYiIHdpZHRoPSIxMyIgaWQ9IlN2Z2pzUmVjdDE4NDQiLz48dGV4dCB0cmFuc2Zvcm09InJvdGF0ZSgwKSIgeT0iMTE2LjM3NSIgb3BhY2l0eT0iMSIgZm9udC1zdHlsZT0iIiBzaXplPSIxM3B4IiBhbGlnbj0idG9wIiBmb250LXdlaWdodD0iNDAwIiBmaWxsPSIjMDAwMDAwIiB3aWR0aD0iMTNweCIgZm9udC1zaXplPSIxM3B4IiB0ZXh0LWFuY2hvcj0ibWlkZGxlIiBmb250LWZhbWlseT0i5b6u6L2v6ZuF6buRIiBpZD0iU3ZnanNUZXh0MTg0NSI+PHRzcGFuIHg9IjQ0NS43IiBkeT0iMTYiIGlkPSJTdmdqc1RzcGFuMTg0NiI+PHRzcGFuIHN0eWxlPSJ0ZXh0LWRlY29yYXRpb246OyIgaWQ9IlN2Z2pzVHNwYW4xODQ3Ij7mmK88L3RzcGFuPjwvdHNwYW4+PC90ZXh0PjwvZz48ZyB0cmFuc2Zvcm09InRyYW5zbGF0ZSg3Miw5MikiIGlkPSJTdmdqc0cxODQ4Ij48cGF0aCBmaWxsPSIjZmZmZmZmIiBmaWxsLW9wYWNpdHk9IjEiIHN0cm9rZS13aWR0aD0iMiIgc3Ryb2tlPSJyZ2JhKDUwLDUwLDUwLDEpIiBkPSJNIDAgMEwgMTAwIDBMIDEwMCA3MEwgMCA3MFoiIGlkPSJTdmdqc1BhdGgxODQ5Ii8+PGcgaWQ9IlN2Z2pzRzE4NTAiPjx0ZXh0IHRyYW5zZm9ybT0icm90YXRlKDApIiB5PSIyNC4zNzUiIG9wYWNpdHk9IjEiIGZvbnQtc3R5bGU9IiIgc2l6ZT0iMTNweCIgYWxpZ249Im1pZGRsZSIgZm9udC13ZWlnaHQ9IjQwMCIgZmlsbD0iIzAwMDAwMCIgd2lkdGg9IjgwcHgiIGZvbnQtc2l6ZT0iMTNweCIgdGV4dC1hbmNob3I9Im1pZGRsZSIgZm9udC1mYW1pbHk9IuW+rui9r+mbhem7kSIgaWQ9IlN2Z2pzVGV4dDE4NTEiPjx0c3BhbiB4PSI1MCIgZHk9IjE2IiBpZD0iU3ZnanNUc3BhbjE4NTIiPjx0c3BhbiBzdHlsZT0idGV4dC1kZWNvcmF0aW9uOjsiIGlkPSJTdmdqc1RzcGFuMTg1MyI+YXR0YWNrIENT5YyFPC90c3Bhbj48L3RzcGFuPjwvdGV4dD48L2c+PC9nPjxnIGlkPSJTdmdqc0cxODU0Ij48cGF0aCBtYXJrZXItZW5kPSJ1cmwoI1N2Z2pzTWFya2VyMTg1NikiIGZpbGw9Im5vbmUiIHN0cm9rZS13aWR0aD0iMiIgc3Ryb2tlPSIjMzIzMjMyIiBkPSJNMTczIDEyN0wyMjIuNSAxMjdMMjIyLjUgMTI3TDI2OS40IDEyNyIgaWQ9IlN2Z2pzUGF0aDE4NTUiLz48L2c+PGcgdHJhbnNmb3JtPSJ0cmFuc2xhdGUoMjUsMjUpIiBpZD0iU3ZnanNHMTg1OCI+PHBhdGggZmlsbD0ibm9uZSIgc3Ryb2tlPSJub25lIiBkPSJNIDAgMEwgNDI5IDBMIDQyOSAzN0wgMCAzN1oiIGlkPSJTdmdqc1BhdGgxODU5Ii8+PGcgaWQ9IlN2Z2pzRzE4NjAiPjx0ZXh0IHRyYW5zZm9ybT0icm90YXRlKDApIiB5PSI3Ljg3NSIgb3BhY2l0eT0iMSIgZm9udC1zdHlsZT0iIiBzaXplPSIxM3B4IiBhbGlnbj0ibWlkZGxlIiBmb250LXdlaWdodD0iNDAwIiBmaWxsPSIjMDAwMDAwIiB3aWR0aD0iNDI5cHgiIGZvbnQtc2l6ZT0iMTNweCIgdGV4dC1hbmNob3I9Im1pZGRsZSIgZm9udC1mYW1pbHk9IuW+rui9r+mbhem7kSIgaWQ9IlN2Z2pzVGV4dDE4NjEiPjx0c3BhbiB4PSIyMTQuNSIgZHk9IjE2IiBpZD0iU3ZnanNUc3BhbjE4NjIiPjx0c3BhbiBzdHlsZT0idGV4dC1kZWNvcmF0aW9uOjsiIGlkPSJTdmdqc1RzcGFuMTg2MyI+YXR0YWNr5YyF5raI5oGv77ya5oqA6IO95Lyk5a6zKOWuouaIt+err+aUu+WHu+WKqOS9nOi/m+ihjOWIsOS8pOWus+aXtik8L3RzcGFuPjwvdHNwYW4+PC90ZXh0PjwvZz48L2c+PGcgdHJhbnNmb3JtPSJ0cmFuc2xhdGUoNjc1LDg3KSIgaWQ9IlN2Z2pzRzE4NjQiPjxwYXRoIGZpbGw9IiNmZmZmZmYiIGZpbGwtb3BhY2l0eT0iMSIgc3Ryb2tlLXdpZHRoPSIyIiBzdHJva2U9InJnYmEoNTAsNTAsNTAsMSkiIGQ9Ik0gMCA0MEwgNjAgMEwgMTIwIDQwTCA2MCA4MFoiIGlkPSJTdmdqc1BhdGgxODY1Ii8+PGcgaWQ9IlN2Z2pzRzE4NjYiPjx0ZXh0IHRyYW5zZm9ybT0icm90YXRlKDApIiB5PSIyOS43NzUiIG9wYWNpdHk9IjEiIGZvbnQtc3R5bGU9IiIgc2l6ZT0iMTNweCIgYWxpZ249Im1pZGRsZSIgZm9udC13ZWlnaHQ9IjQwMCIgZmlsbD0iIzAwMDAwMCIgd2lkdGg9IjEwMHB4IiBmb250LXNpemU9IjEzcHgiIHRleHQtYW5jaG9yPSJtaWRkbGUiIGZvbnQtZmFtaWx5PSLlvq7ova/pm4Xpu5EiIGlkPSJTdmdqc1RleHQxODY3Ij48dHNwYW4geD0iNjAiIGR5PSIxNiIgaWQ9IlN2Z2pzVHNwYW4xODY4Ij48dHNwYW4gc3R5bGU9InRleHQtZGVjb3JhdGlvbjo7IiBpZD0iU3ZnanNUc3BhbjE4NjkiPuaYr+WQpnByZemYtuautTwvdHNwYW4+PC90c3Bhbj48L3RleHQ+PC9nPjwvZz48ZyBpZD0iU3ZnanNHMTg3MCI+PHBhdGggbWFya2VyLWVuZD0idXJsKCNTdmdqc01hcmtlcjE4NzIpIiBmaWxsPSJub25lIiBzdHJva2Utd2lkdGg9IjIiIHN0cm9rZT0iIzMyMzIzMiIgZD0iTTYwMiAxMjdMNjM4IDEyN0w2MzggMTI3TDY3MS40IDEyNyIgaWQ9IlN2Z2pzUGF0aDE4NzEiLz48L2c+PGcgdHJhbnNmb3JtPSJ0cmFuc2xhdGUoODU1LDkyKSIgaWQ9IlN2Z2pzRzE4NzQiPjxwYXRoIGZpbGw9IiNmZmZmZmYiIGZpbGwtb3BhY2l0eT0iMSIgc3Ryb2tlLXdpZHRoPSIyIiBzdHJva2U9InJnYmEoNTAsNTAsNTAsMSkiIGQ9Ik0gMCAwTCAxMDAgMEwgMTAwIDcwTCAwIDcwWiIgaWQ9IlN2Z2pzUGF0aDE4NzUiLz48ZyBpZD0iU3ZnanNHMTg3NiI+PHRleHQgdHJhbnNmb3JtPSJyb3RhdGUoMCkiIHk9IjE1Ljg3NSIgb3BhY2l0eT0iMSIgZm9udC1zdHlsZT0iIiBzaXplPSIxM3B4IiBhbGlnbj0ibWlkZGxlIiBmb250LXdlaWdodD0iNDAwIiBmaWxsPSIjMDAwMDAwIiB3aWR0aD0iODBweCIgZm9udC1zaXplPSIxM3B4IiB0ZXh0LWFuY2hvcj0ibWlkZGxlIiBmb250LWZhbWlseT0i5b6u6L2v6ZuF6buRIiBpZD0iU3ZnanNUZXh0MTg3NyI+PHRzcGFuIHg9IjUwIiBkeT0iMTYiIGlkPSJTdmdqc1RzcGFuMTg3OCI+PHRzcGFuIHN0eWxlPSJ0ZXh0LWRlY29yYXRpb246OyIgaWQ9IlN2Z2pzVHNwYW4xODc5Ij7otbDkuIs8L3RzcGFuPjwvdHNwYW4+PHRzcGFuIHg9IjUwIiBkeT0iMTYiIGlkPSJTdmdqc1RzcGFuMTg4MCI+PHRzcGFuIHN0eWxlPSJ0ZXh0LWRlY29yYXRpb246OyIgaWQ9IlN2Z2pzVHNwYW4xODgxIj5wcmVfYXR0YWNrPC90c3Bhbj48L3RzcGFuPjwvdGV4dD48L2c+PC9nPjxnIGlkPSJTdmdqc0cxODgyIj48cGF0aCBtYXJrZXItZW5kPSJ1cmwoI1N2Z2pzTWFya2VyMTg4NCkiIGZpbGw9Im5vbmUiIHN0cm9rZS13aWR0aD0iMiIgc3Ryb2tlPSIjMzIzMjMyIiBkPSJNNzk2IDEyN0w4MjUgMTI3TDgyNSAxMjdMODUxLjQgMTI3IiBpZD0iU3ZnanNQYXRoMTg4MyIvPjxyZWN0IGZpbGw9IiNmZmZmZmYiIHk9IjExOSIgeD0iODE3LjIiIGhlaWdodD0iMTYiIHdpZHRoPSIxMyIgaWQ9IlN2Z2pzUmVjdDE4ODYiLz48dGV4dCB0cmFuc2Zvcm09InJvdGF0ZSgwKSIgeT0iMTE2LjM3NSIgb3BhY2l0eT0iMSIgZm9udC1zdHlsZT0iIiBzaXplPSIxM3B4IiBhbGlnbj0idG9wIiBmb250LXdlaWdodD0iNDAwIiBmaWxsPSIjMDAwMDAwIiB3aWR0aD0iMTNweCIgZm9udC1zaXplPSIxM3B4IiB0ZXh0LWFuY2hvcj0ibWlkZGxlIiBmb250LWZhbWlseT0i5b6u6L2v6ZuF6buRIiBpZD0iU3ZnanNUZXh0MTg4NyI+PHRzcGFuIHg9IjgyMy43IiBkeT0iMTYiIGlkPSJTdmdqc1RzcGFuMTg4OCI+PHRzcGFuIHN0eWxlPSJ0ZXh0LWRlY29yYXRpb246OyIgaWQ9IlN2Z2pzVHNwYW4xODg5Ij7lkKY8L3RzcGFuPjwvdHNwYW4+PC90ZXh0PjwvZz48ZyB0cmFuc2Zvcm09InRyYW5zbGF0ZSg2NzUsMjM5KSIgaWQ9IlN2Z2pzRzE4OTAiPjxwYXRoIGZpbGw9IiNmZmZmZmYiIGZpbGwtb3BhY2l0eT0iMSIgc3Ryb2tlLXdpZHRoPSIyIiBzdHJva2U9InJnYmEoNTAsNTAsNTAsMSkiIGQ9Ik0gMCA0MEwgNjAgMEwgMTIwIDQwTCA2MCA4MFoiIGlkPSJTdmdqc1BhdGgxODkxIi8+PGcgaWQ9IlN2Z2pzRzE4OTIiPjx0ZXh0IHRyYW5zZm9ybT0icm90YXRlKDApIiB5PSIyMS4yNzUiIG9wYWNpdHk9IjEiIGZvbnQtc3R5bGU9IiIgc2l6ZT0iMTNweCIgYWxpZ249Im1pZGRsZSIgZm9udC13ZWlnaHQ9IjQwMCIgZmlsbD0iIzAwMDAwMCIgd2lkdGg9IjEwMHB4IiBmb250LXNpemU9IjEzcHgiIHRleHQtYW5jaG9yPSJtaWRkbGUiIGZvbnQtZmFtaWx5PSLlvq7ova/pm4Xpu5EiIGlkPSJTdmdqc1RleHQxODkzIj48dHNwYW4geD0iNjAiIGR5PSIxNiIgaWQ9IlN2Z2pzVHNwYW4xODk0Ij48dHNwYW4gc3R5bGU9InRleHQtZGVjb3JhdGlvbjo7IiBpZD0iU3ZnanNUc3BhbjE4OTUiPuajgOafpeaKgOiDvei9rOaNou+8jDwvdHNwYW4+PC90c3Bhbj48dHNwYW4geD0iNjAiIGR5PSIxNiIgaWQ9IlN2Z2pzVHNwYW4xODk2Ij48dHNwYW4gc3R5bGU9InRleHQtZGVjb3JhdGlvbjo7IiBpZD0iU3ZnanNUc3BhbjE4OTciPmNk562JPC90c3Bhbj48L3RzcGFuPjwvdGV4dD48L2c+PC9nPjxnIGlkPSJTdmdqc0cxODk4Ij48cGF0aCBtYXJrZXItZW5kPSJ1cmwoI1N2Z2pzTWFya2VyMTkwMCkiIGZpbGw9Im5vbmUiIHN0cm9rZS13aWR0aD0iMiIgc3Ryb2tlPSIjMzIzMjMyIiBkPSJNNzM1IDE2OEw3MzUgMjAzTDczNSAyMDNMNzM1IDIzNS40IiBpZD0iU3ZnanNQYXRoMTg5OSIvPjxyZWN0IGZpbGw9IiNmZmZmZmYiIHk9IjE5My43MDAwMDAwMDAwMDAwMiIgeD0iNzI4LjUiIGhlaWdodD0iMTYiIHdpZHRoPSIxMyIgaWQ9IlN2Z2pzUmVjdDE5MDIiLz48dGV4dCB0cmFuc2Zvcm09InJvdGF0ZSgwKSIgeT0iMTkxLjA3NTAwMDAwMDAwMDAyIiBvcGFjaXR5PSIxIiBmb250LXN0eWxlPSIiIHNpemU9IjEzcHgiIGFsaWduPSJ0b3AiIGZvbnQtd2VpZ2h0PSI0MDAiIGZpbGw9IiMwMDAwMDAiIHdpZHRoPSIxM3B4IiBmb250LXNpemU9IjEzcHgiIHRleHQtYW5jaG9yPSJtaWRkbGUiIGZvbnQtZmFtaWx5PSLlvq7ova/pm4Xpu5EiIGlkPSJTdmdqc1RleHQxOTAzIj48dHNwYW4geD0iNzM1IiBkeT0iMTYiIGlkPSJTdmdqc1RzcGFuMTkwNCI+PHRzcGFuIHN0eWxlPSJ0ZXh0LWRlY29yYXRpb246OyIgaWQ9IlN2Z2pzVHNwYW4xOTA1Ij7mmK88L3RzcGFuPjwvdHNwYW4+PC90ZXh0PjwvZz48ZyBpZD0iU3ZnanNHMTkwNiI+PHBhdGggbWFya2VyLWVuZD0idXJsKCNTdmdqc01hcmtlcjE5MDgpIiBmaWxsPSJub25lIiBzdHJva2Utd2lkdGg9IjIiIHN0cm9rZT0iIzMyMzIzMiIgZD0iTTkwNSAxNjNMOTA1IDIwMC41TDczNSAyMDAuNUw3MzUgMjM1LjQiIGlkPSJTdmdqc1BhdGgxOTA3Ii8+PC9nPjxnIHRyYW5zZm9ybT0idHJhbnNsYXRlKDUwMSwyNDQpIiBpZD0iU3ZnanNHMTkxMCI+PHBhdGggZmlsbD0iI2ZmZmZmZiIgZmlsbC1vcGFjaXR5PSIxIiBzdHJva2Utd2lkdGg9IjIiIHN0cm9rZT0icmdiYSg1MCw1MCw1MCwxKSIgZD0iTSAwIDBMIDEwMCAwTCAxMDAgNzBMIDAgNzBaIiBpZD0iU3ZnanNQYXRoMTkxMSIvPjxnIGlkPSJTdmdqc0cxOTEyIj48dGV4dCB0cmFuc2Zvcm09InJvdGF0ZSgwKSIgeT0iMjQuMzc1IiBvcGFjaXR5PSIxIiBmb250LXN0eWxlPSIiIHNpemU9IjEzcHgiIGFsaWduPSJtaWRkbGUiIGZvbnQtd2VpZ2h0PSI0MDAiIGZpbGw9IiMwMDAwMDAiIHdpZHRoPSI4MHB4IiBmb250LXNpemU9IjEzcHgiIHRleHQtYW5jaG9yPSJtaWRkbGUiIGZvbnQtZmFtaWx5PSLlvq7ova/pm4Xpu5EiIGlkPSJTdmdqc1RleHQxOTEzIj48dHNwYW4geD0iNTAiIGR5PSIxNiIgaWQ9IlN2Z2pzVHNwYW4xOTE0Ij48dHNwYW4gc3R5bGU9InRleHQtZGVjb3JhdGlvbjo7IiBpZD0iU3ZnanNUc3BhbjE5MTUiPuWIt+aWsOS9jee9rjwvdHNwYW4+PC90c3Bhbj48L3RleHQ+PC9nPjwvZz48ZyB0cmFuc2Zvcm09InRyYW5zbGF0ZSgyODMsMjM5KSIgaWQ9IlN2Z2pzRzE5MTYiPjxwYXRoIGZpbGw9IiNmZmZmZmYiIGZpbGwtb3BhY2l0eT0iMSIgc3Ryb2tlLXdpZHRoPSIyIiBzdHJva2U9InJnYmEoNTAsNTAsNTAsMSkiIGQ9Ik0gMCA0MEwgNjAgMEwgMTIwIDQwTCA2MCA4MFoiIGlkPSJTdmdqc1BhdGgxOTE3Ii8+PGcgaWQ9IlN2Z2pzRzE5MTgiPjx0ZXh0IHRyYW5zZm9ybT0icm90YXRlKDApIiB5PSIyOS43NzUiIG9wYWNpdHk9IjEiIGZvbnQtc3R5bGU9IiIgc2l6ZT0iMTNweCIgYWxpZ249Im1pZGRsZSIgZm9udC13ZWlnaHQ9IjQwMCIgZmlsbD0iIzAwMDAwMCIgd2lkdGg9IjEwMHB4IiBmb250LXNpemU9IjEzcHgiIHRleHQtYW5jaG9yPSJtaWRkbGUiIGZvbnQtZmFtaWx5PSLlvq7ova/pm4Xpu5EiIGlkPSJTdmdqc1RleHQxOTE5Ij48dHNwYW4geD0iNjAiIGR5PSIxNiIgaWQ9IlN2Z2pzVHNwYW4xOTIwIj48dHNwYW4gc3R5bGU9InRleHQtZGVjb3JhdGlvbjo7IiBpZD0iU3ZnanNUc3BhbjE5MjEiPuS9jee9ruOAgeWPguaVsOajgOafpTwvdHNwYW4+PC90c3Bhbj48L3RleHQ+PC9nPjwvZz48ZyBpZD0iU3ZnanNHMTkyMiI+PHBhdGggbWFya2VyLWVuZD0idXJsKCNTdmdqc01hcmtlcjE5MjQpIiBmaWxsPSJub25lIiBzdHJva2Utd2lkdGg9IjIiIHN0cm9rZT0iIzMyMzIzMiIgZD0iTTUwMCAyNzlMNDUyIDI3OUw0NTIgMjc5TDQwNi42IDI3OSIgaWQ9IlN2Z2pzUGF0aDE5MjMiLz48L2c+PGcgaWQ9IlN2Z2pzRzE5MjYiPjxwYXRoIG1hcmtlci1lbmQ9InVybCgjU3ZnanNNYXJrZXIxOTI4KSIgZmlsbD0ibm9uZSIgc3Ryb2tlLXdpZHRoPSIyIiBzdHJva2U9IiMzMjMyMzIiIGQ9Ik02NzQgMjc5TDYzOCAyNzlMNjM4IDI3OUw2MDQuNiAyNzkiIGlkPSJTdmdqc1BhdGgxOTI3Ii8+PHJlY3QgZmlsbD0iI2ZmZmZmZiIgeT0iMjcxIiB4PSI2MzEuOCIgaGVpZ2h0PSIxNiIgd2lkdGg9IjE1IiBpZD0iU3ZnanNSZWN0MTkzMCIvPjx0ZXh0IHRyYW5zZm9ybT0icm90YXRlKDApIiB5PSIyNjguMzc1IiBvcGFjaXR5PSIxIiBmb250LXN0eWxlPSIiIHNpemU9IjEzcHgiIGFsaWduPSJ0b3AiIGZvbnQtd2VpZ2h0PSI0MDAiIGZpbGw9IiMwMDAwMDAiIHdpZHRoPSIxNXB4IiBmb250LXNpemU9IjEzcHgiIHRleHQtYW5jaG9yPSJtaWRkbGUiIGZvbnQtZmFtaWx5PSLlvq7ova/pm4Xpu5EiIGlkPSJTdmdqc1RleHQxOTMxIj48dHNwYW4geD0iNjM5LjMiIGR5PSIxNiIgaWQ9IlN2Z2pzVHNwYW4xOTMyIj48dHNwYW4gc3R5bGU9InRleHQtZGVjb3JhdGlvbjo7IiBpZD0iU3ZnanNUc3BhbjE5MzMiPm9rPC90c3Bhbj48L3RzcGFuPjwvdGV4dD48L2c+PGcgdHJhbnNmb3JtPSJ0cmFuc2xhdGUoNzIsMjQ0KSIgaWQ9IlN2Z2pzRzE5MzQiPjxwYXRoIGZpbGw9IiNmZmZmZmYiIGZpbGwtb3BhY2l0eT0iMSIgc3Ryb2tlLXdpZHRoPSIyIiBzdHJva2U9InJnYmEoNTAsNTAsNTAsMSkiIGQ9Ik0gMCAwTCAxMDAgMEwgMTAwIDcwTCAwIDcwWiIgaWQ9IlN2Z2pzUGF0aDE5MzUiLz48ZyBpZD0iU3ZnanNHMTkzNiI+PHRleHQgdHJhbnNmb3JtPSJyb3RhdGUoMCkiIHk9IjE1Ljg3NSIgb3BhY2l0eT0iMSIgZm9udC1zdHlsZT0iIiBzaXplPSIxM3B4IiBhbGlnbj0ibWlkZGxlIiBmb250LXdlaWdodD0iNDAwIiBmaWxsPSIjMDAwMDAwIiB3aWR0aD0iODBweCIgZm9udC1zaXplPSIxM3B4IiB0ZXh0LWFuY2hvcj0ibWlkZGxlIiBmb250LWZhbWlseT0i5b6u6L2v6ZuF6buRIiBpZD0iU3ZnanNUZXh0MTkzNyI+PHRzcGFuIHg9IjUwIiBkeT0iMTYiIGlkPSJTdmdqc1RzcGFuMTkzOCI+PHRzcGFuIHN0eWxlPSJ0ZXh0LWRlY29yYXRpb246OyIgaWQ9IlN2Z2pzVHNwYW4xOTM5Ij5BVFRBQ0tSRVM8L3RzcGFuPjwvdHNwYW4+PHRzcGFuIHg9IjUwIiBkeT0iMTYiIGlkPSJTdmdqc1RzcGFuMTk0MCI+PHRzcGFuIHN0eWxlPSJ0ZXh0LWRlY29yYXRpb246OyIgaWQ9IlN2Z2pzVHNwYW4xOTQxIj5VTFTliJ3lp4vljJY8L3RzcGFuPjwvdHNwYW4+PC90ZXh0PjwvZz48L2c+PGcgaWQ9IlN2Z2pzRzE5NDIiPjxwYXRoIG1hcmtlci1lbmQ9InVybCgjU3ZnanNNYXJrZXIxOTQ0KSIgZmlsbD0ibm9uZSIgc3Ryb2tlLXdpZHRoPSIyIiBzdHJva2U9IiMzMjMyMzIiIGQ9Ik0yODIgMjc5TDIyNy41IDI3OUwyMjcuNSAyNzlMMTc1LjYgMjc5IiBpZD0iU3ZnanNQYXRoMTk0MyIvPjxyZWN0IGZpbGw9IiNmZmZmZmYiIHk9IjI3MSIgeD0iMTkzLjgiIGhlaWdodD0iMTYiIHdpZHRoPSI3MCIgaWQ9IlN2Z2pzUmVjdDE5NDYiLz48dGV4dCB0cmFuc2Zvcm09InJvdGF0ZSgwKSIgeT0iMjY4LjM3NSIgb3BhY2l0eT0iMSIgZm9udC1zdHlsZT0iIiBzaXplPSIxM3B4IiBhbGlnbj0idG9wIiBmb250LXdlaWdodD0iNDAwIiBmaWxsPSIjMDAwMDAwIiB3aWR0aD0iNzBweCIgZm9udC1zaXplPSIxM3B4IiB0ZXh0LWFuY2hvcj0ibWlkZGxlIiBmb250LWZhbWlseT0i5b6u6L2v6ZuF6buRIiBpZD0iU3ZnanNUZXh0MTk0NyI+PHRzcGFuIHg9IjIyOC44IiBkeT0iMTYiIGlkPSJTdmdqc1RzcGFuMTk0OCI+PHRzcGFuIHN0eWxlPSJ0ZXh0LWRlY29yYXRpb246OyIgaWQ9IlN2Z2pzVHNwYW4xOTQ5Ij5vayzlvIDlp4vmlr3ms5U8L3RzcGFuPjwvdHNwYW4+PC90ZXh0PjwvZz48ZyB0cmFuc2Zvcm09InRyYW5zbGF0ZSg3MiwzNTkpIiBpZD0iU3ZnanNHMTk1MCI+PHBhdGggZmlsbD0iI2ZmZmZmZiIgZmlsbC1vcGFjaXR5PSIxIiBzdHJva2Utd2lkdGg9IjIiIHN0cm9rZT0icmdiYSg1MCw1MCw1MCwxKSIgZD0iTSAwIDBMIDEwMCAwTCAxMDAgNzBMIDAgNzBaIiBpZD0iU3ZnanNQYXRoMTk1MSIvPjxnIGlkPSJTdmdqc0cxOTUyIj48dGV4dCB0cmFuc2Zvcm09InJvdGF0ZSgwKSIgeT0iMTUuODc1IiBvcGFjaXR5PSIxIiBmb250LXN0eWxlPSIiIHNpemU9IjEzcHgiIGFsaWduPSJtaWRkbGUiIGZvbnQtd2VpZ2h0PSI0MDAiIGZpbGw9IiMwMDAwMDAiIHdpZHRoPSI4MHB4IiBmb250LXNpemU9IjEzcHgiIHRleHQtYW5jaG9yPSJtaWRkbGUiIGZvbnQtZmFtaWx5PSLlvq7ova/pm4Xpu5EiIGlkPSJTdmdqc1RleHQxOTUzIj48dHNwYW4geD0iNTAiIGR5PSIxNiIgaWQ9IlN2Z2pzVHNwYW4xOTU0Ij48dHNwYW4gc3R5bGU9InRleHQtZGVjb3JhdGlvbjo7IiBpZD0iU3ZnanNUc3BhbjE5NTUiPuW8gOWni+aUu+WHuzwvdHNwYW4+PC90c3Bhbj48dHNwYW4geD0iNTAiIGR5PSIxNiIgaWQ9IlN2Z2pzVHNwYW4xOTU2Ij48dHNwYW4gc3R5bGU9InRleHQtZGVjb3JhdGlvbjo7IiBpZD0iU3ZnanNUc3BhbjE5NTciPmNpX2F0dGFjazwvdHNwYW4+PC90c3Bhbj48L3RleHQ+PC9nPjwvZz48ZyBpZD0iU3ZnanNHMTk1OCI+PHBhdGggbWFya2VyLWVuZD0idXJsKCNTdmdqc01hcmtlcjE5NjApIiBmaWxsPSJub25lIiBzdHJva2Utd2lkdGg9IjIiIHN0cm9rZT0iIzMyMzIzMiIgZD0iTTEyMiAzMTVMMTIyIDMzNi41TDEyMiAzMzYuNUwxMjIgMzU1LjQiIGlkPSJTdmdqc1BhdGgxOTU5Ii8+PC9nPjxnIHRyYW5zZm9ybT0idHJhbnNsYXRlKDI0MiwzNTkpIiBpZD0iU3ZnanNHMTk2MiI+PHBhdGggZmlsbD0iI2ZmZmZmZiIgZmlsbC1vcGFjaXR5PSIxIiBzdHJva2Utd2lkdGg9IjIiIHN0cm9rZT0icmdiYSg1MCw1MCw1MCwxKSIgZD0iTSAwIDBMIDEwMCAwTCAxMDAgNzBMIDAgNzBaIiBpZD0iU3ZnanNQYXRoMTk2MyIvPjxnIGlkPSJTdmdqc0cxOTY0Ij48dGV4dCB0cmFuc2Zvcm09InJvdGF0ZSgwKSIgeT0iMTUuODc1IiBvcGFjaXR5PSIxIiBmb250LXN0eWxlPSIiIHNpemU9IjEzcHgiIGFsaWduPSJtaWRkbGUiIGZvbnQtd2VpZ2h0PSI0MDAiIGZpbGw9IiMwMDAwMDAiIHdpZHRoPSI4MHB4IiBmb250LXNpemU9IjEzcHgiIHRleHQtYW5jaG9yPSJtaWRkbGUiIGZvbnQtZmFtaWx5PSLlvq7ova/pm4Xpu5EiIGlkPSJTdmdqc1RleHQxOTY1Ij48dHNwYW4geD0iNTAiIGR5PSIxNiIgaWQ9IlN2Z2pzVHNwYW4xOTY2Ij48dHNwYW4gc3R5bGU9InRleHQtZGVjb3JhdGlvbjo7IiBpZD0iU3ZnanNUc3BhbjE5NjciPuaYr+WQpuWQjueahOafkOS6mzwvdHNwYW4+PC90c3Bhbj48dHNwYW4geD0iNTAiIGR5PSIxNiIgaWQ9IlN2Z2pzVHNwYW4xOTY4Ij48dHNwYW4gc3R5bGU9InRleHQtZGVjb3JhdGlvbjo7IiBpZD0iU3ZnanNUc3BhbjE5NjkiPuaKgOiDveaViOaenOWkhOeQhjwvdHNwYW4+PC90c3Bhbj48L3RleHQ+PC9nPjwvZz48ZyBpZD0iU3ZnanNHMTk3MCI+PHBhdGggbWFya2VyLWVuZD0idXJsKCNTdmdqc01hcmtlcjE5NzIpIiBmaWxsPSJub25lIiBzdHJva2Utd2lkdGg9IjIiIHN0cm9rZT0iIzMyMzIzMiIgZD0iTTE3MyAzOTRMMjA3IDM5NEwyMDcgMzk0TDIzOSAzOTQiIGlkPSJTdmdqc1BhdGgxOTcxIi8+PC9nPjxnIHRyYW5zZm9ybT0idHJhbnNsYXRlKDM5OCwzNTkpIiBpZD0iU3ZnanNHMTk3NCI+PHBhdGggZmlsbD0iI2ZmZmZmZiIgZmlsbC1vcGFjaXR5PSIxIiBzdHJva2Utd2lkdGg9IjIiIHN0cm9rZT0icmdiYSg1MCw1MCw1MCwxKSIgZD0iTSAwIDBMIDEwMCAwTCAxMDAgNzBMIDAgNzBaIiBpZD0iU3ZnanNQYXRoMTk3NSIvPjxnIGlkPSJTdmdqc0cxOTc2Ij48dGV4dCB0cmFuc2Zvcm09InJvdGF0ZSgwKSIgeT0iMTUuODc1IiBvcGFjaXR5PSIxIiBmb250LXN0eWxlPSIiIHNpemU9IjEzcHgiIGFsaWduPSJtaWRkbGUiIGZvbnQtd2VpZ2h0PSI0MDAiIGZpbGw9IiMwMDAwMDAiIHdpZHRoPSI4MHB4IiBmb250LXNpemU9IjEzcHgiIHRleHQtYW5jaG9yPSJtaWRkbGUiIGZvbnQtZmFtaWx5PSLlvq7ova/pm4Xpu5EiIGlkPSJTdmdqc1RleHQxOTc3Ij48dHNwYW4geD0iNTAiIGR5PSIxNiIgaWQ9IlN2Z2pzVHNwYW4xOTc4Ij48dHNwYW4gc3R5bGU9InRleHQtZGVjb3JhdGlvbjo7IiBpZD0iU3ZnanNUc3BhbjE5NzkiPumAmuefpe+8jOS8pOWus+iusDwvdHNwYW4+PC90c3Bhbj48dHNwYW4geD0iNTAiIGR5PSIxNiIgaWQ9IlN2Z2pzVHNwYW4xOTgwIj48dHNwYW4gc3R5bGU9InRleHQtZGVjb3JhdGlvbjo7IiBpZD0iU3ZnanNUc3BhbjE5ODEiPuW9leetieetiTwvdHNwYW4+PC90c3Bhbj48L3RleHQ+PC9nPjwvZz48ZyBpZD0iU3ZnanNHMTk4MiI+PHBhdGggbWFya2VyLWVuZD0idXJsKCNTdmdqc01hcmtlcjE5ODQpIiBmaWxsPSJub25lIiBzdHJva2Utd2lkdGg9IjIiIHN0cm9rZT0iIzMyMzIzMiIgZD0iTTM0MyAzOTRMMzcwIDM5NEwzNzAgMzk0TDM5NSAzOTQiIGlkPSJTdmdqc1BhdGgxOTgzIi8+PC9nPjxnIHRyYW5zZm9ybT0idHJhbnNsYXRlKDcyLDQ3MykiIGlkPSJTdmdqc0cxOTg2Ij48cGF0aCBmaWxsPSIjZmZmZmZmIiBmaWxsLW9wYWNpdHk9IjEiIHN0cm9rZS13aWR0aD0iMiIgc3Ryb2tlPSJyZ2JhKDUwLDUwLDUwLDEpIiBkPSJNIDAgMEwgMTAwIDBMIDEwMCA3MEwgMCA3MFoiIGlkPSJTdmdqc1BhdGgxOTg3Ii8+PGcgaWQ9IlN2Z2pzRzE5ODgiPjx0ZXh0IHRyYW5zZm9ybT0icm90YXRlKDApIiB5PSI3Ljg3NSIgb3BhY2l0eT0iMSIgZm9udC1zdHlsZT0iIiBzaXplPSIxM3B4IiBhbGlnbj0ibWlkZGxlIiBmb250LXdlaWdodD0iNDAwIiBmaWxsPSIjMDAwMDAwIiB3aWR0aD0iODBweCIgZm9udC1zaXplPSIxM3B4IiB0ZXh0LWFuY2hvcj0ibWlkZGxlIiBmb250LWZhbWlseT0i5b6u6L2v6ZuF6buRIiBpZD0iU3ZnanNUZXh0MTk4OSI+PHRzcGFuIHg9IjUwIiBkeT0iMTYiIGlkPSJTdmdqc1RzcGFuMTk5MCI+PHRzcGFuIHN0eWxlPSJ0ZXh0LWRlY29yYXRpb246OyIgaWQ9IlN2Z2pzVHNwYW4xOTkxIj7nm67moIfkuKrmlbDkv53lupU8L3RzcGFuPjwvdHNwYW4+PHRzcGFuIHg9IjUwIiBkeT0iMTYiIGlkPSJTdmdqc1RzcGFuMTk5MiI+PHRzcGFuIHN0eWxlPSJ0ZXh0LWRlY29yYXRpb246OyIgaWQ9IlN2Z2pzVHNwYW4xOTkzIj7lpITnkIbvvIzkuLrnqbrliJk8L3RzcGFuPjwvdHNwYW4+PHRzcGFuIHg9IjUwIiBkeT0iMTYiIGlkPSJTdmdqc1RzcGFuMTk5NCI+PHRzcGFuIHN0eWxlPSJ0ZXh0LWRlY29yYXRpb246OyIgaWQ9IlN2Z2pzVHNwYW4xOTk1Ij7liqDkuIroh6rlt7E8L3RzcGFuPjwvdHNwYW4+PC90ZXh0PjwvZz48L2c+PGcgdHJhbnNmb3JtPSJ0cmFuc2xhdGUoMzk4LDQ3MykiIGlkPSJTdmdqc0cxOTk2Ij48cGF0aCBmaWxsPSIjZmZmZmZmIiBmaWxsLW9wYWNpdHk9IjEiIHN0cm9rZS13aWR0aD0iMiIgc3Ryb2tlPSJyZ2JhKDUwLDUwLDUwLDEpIiBkPSJNIDAgMEwgMTAwIDBMIDEwMCA3MEwgMCA3MFoiIGlkPSJTdmdqc1BhdGgxOTk3Ii8+PGcgaWQ9IlN2Z2pzRzE5OTgiPjx0ZXh0IHRyYW5zZm9ybT0icm90YXRlKDApIiB5PSI3Ljg3NSIgb3BhY2l0eT0iMSIgZm9udC1zdHlsZT0iIiBzaXplPSIxM3B4IiBhbGlnbj0ibWlkZGxlIiBmb250LXdlaWdodD0iNDAwIiBmaWxsPSIjMDAwMDAwIiB3aWR0aD0iODBweCIgZm9udC1zaXplPSIxM3B4IiB0ZXh0LWFuY2hvcj0ibWlkZGxlIiBmb250LWZhbWlseT0i5b6u6L2v6ZuF6buRIiBpZD0iU3ZnanNUZXh0MTk5OSI+PHRzcGFuIHg9IjUwIiBkeT0iMTYiIGlkPSJTdmdqc1RzcGFuMjAwMCI+PHRzcGFuIHN0eWxlPSJ0ZXh0LWRlY29yYXRpb246OyIgaWQ9IlN2Z2pzVHNwYW4yMDAxIj7mioDog73mlYjmnpznu5PmnoQ8L3RzcGFuPjwvdHNwYW4+PHRzcGFuIHg9IjUwIiBkeT0iMTYiIGlkPSJTdmdqc1RzcGFuMjAwMiI+PHRzcGFuIHN0eWxlPSJ0ZXh0LWRlY29yYXRpb246OyIgaWQ9IlN2Z2pzVHNwYW4yMDAzIj5DT05EVkFTU0U8L3RzcGFuPjwvdHNwYW4+PHRzcGFuIHg9IjUwIiBkeT0iMTYiIGlkPSJTdmdqc1RzcGFuMjAwNCI+PHRzcGFuIHN0eWxlPSJ0ZXh0LWRlY29yYXRpb246OyIgaWQ9IlN2Z2pzVHNwYW4yMDA1Ij5NQkxF5Yid5aeL5YyWPC90c3Bhbj48L3RzcGFuPjwvdGV4dD48L2c+PC9nPjxnIGlkPSJTdmdqc0cyMDA2Ij48cGF0aCBtYXJrZXItZW5kPSJ1cmwoI1N2Z2pzTWFya2VyMjAwOCkiIGZpbGw9Im5vbmUiIHN0cm9rZS13aWR0aD0iMiIgc3Ryb2tlPSIjMzIzMjMyIiBkPSJNMTIyIDQzMEwxMjIgNDUxTDEyMiA0NTFMMTIyIDQ2OS40IiBpZD0iU3ZnanNQYXRoMjAwNyIvPjwvZz48ZyB0cmFuc2Zvcm09InRyYW5zbGF0ZSg1NTMsNDczKSIgaWQ9IlN2Z2pzRzIwMTAiPjxwYXRoIGZpbGw9IiNmZmZmZmYiIGZpbGwtb3BhY2l0eT0iMSIgc3Ryb2tlLXdpZHRoPSIyIiBzdHJva2U9InJnYmEoNTAsNTAsNTAsMSkiIGQ9Ik0gMCAwTCAxMDAgMEwgMTAwIDcwTCAwIDcwWiIgaWQ9IlN2Z2pzUGF0aDIwMTEiLz48ZyBpZD0iU3ZnanNHMjAxMiI+PHRleHQgdHJhbnNmb3JtPSJyb3RhdGUoMCkiIHk9IjcuODc1IiBvcGFjaXR5PSIxIiBmb250LXN0eWxlPSIiIHNpemU9IjEzcHgiIGFsaWduPSJtaWRkbGUiIGZvbnQtd2VpZ2h0PSI0MDAiIGZpbGw9IiMwMDAwMDAiIHdpZHRoPSI4MHB4IiBmb250LXNpemU9IjEzcHgiIHRleHQtYW5jaG9yPSJtaWRkbGUiIGZvbnQtZmFtaWx5PSLlvq7ova/pm4Xpu5EiIGlkPSJTdmdqc1RleHQyMDEzIj48dHNwYW4geD0iNTAiIGR5PSIxNiIgaWQ9IlN2Z2pzVHNwYW4yMDE0Ij48dHNwYW4gc3R5bGU9InRleHQtZGVjb3JhdGlvbjo7IiBpZD0iU3ZnanNUc3BhbjIwMTUiPuWIneWni+WMluaViOaenDwvdHNwYW4+PC90c3Bhbj48dHNwYW4geD0iNTAiIGR5PSIxNiIgaWQ9IlN2Z2pzVHNwYW4yMDE2Ij48dHNwYW4gc3R5bGU9InRleHQtZGVjb3JhdGlvbjo7IiBpZD0iU3ZnanNUc3BhbjIwMTciPumbhu+8jOWvuemYteS9nOeUqDwvdHNwYW4+PC90c3Bhbj48dHNwYW4geD0iNTAiIGR5PSIxNiIgaWQ9IlN2Z2pzVHNwYW4yMDE4Ij48dHNwYW4gc3R5bGU9InRleHQtZGVjb3JhdGlvbjo7IiBpZD0iU3ZnanNUc3BhbjIwMTkiPuWFs+ezuzwvdHNwYW4+PC90c3Bhbj48L3RleHQ+PC9nPjwvZz48ZyBpZD0iU3ZnanNHMjAyMCI+PHBhdGggbWFya2VyLWVuZD0idXJsKCNTdmdqc01hcmtlcjIwMjIpIiBmaWxsPSJub25lIiBzdHJva2Utd2lkdGg9IjIiIHN0cm9rZT0iIzMyMzIzMiIgZD0iTTQ5OSA1MDhMNTI1LjUgNTA4TDUyNS41IDUwOEw1NDkuNCA1MDgiIGlkPSJTdmdqc1BhdGgyMDIxIi8+PC9nPjxnIHRyYW5zZm9ybT0idHJhbnNsYXRlKDIzMCw0NzMpIiBpZD0iU3ZnanNHMjAyNCI+PHBhdGggZmlsbD0iI2ZmZmZmZiIgZmlsbC1vcGFjaXR5PSIxIiBzdHJva2Utd2lkdGg9IjIiIHN0cm9rZT0icmdiYSg1MCw1MCw1MCwxKSIgZD0iTSAwIDBMIDEwMCAwTCAxMDAgNzBMIDAgNzBaIiBpZD0iU3ZnanNQYXRoMjAyNSIvPjxnIGlkPSJTdmdqc0cyMDI2Ij48dGV4dCB0cmFuc2Zvcm09InJvdGF0ZSgwKSIgeT0iMjQuMzc1IiBvcGFjaXR5PSIxIiBmb250LXN0eWxlPSIiIHNpemU9IjEzcHgiIGFsaWduPSJtaWRkbGUiIGZvbnQtd2VpZ2h0PSI0MDAiIGZpbGw9IiMwMDAwMDAiIHdpZHRoPSI4MHB4IiBmb250LXNpemU9IjEzcHgiIHRleHQtYW5jaG9yPSJtaWRkbGUiIGZvbnQtZmFtaWx5PSLlvq7ova/pm4Xpu5EiIGlkPSJTdmdqc1RleHQyMDI3Ij48dHNwYW4geD0iNTAiIGR5PSIxNiIgaWQ9IlN2Z2pzVHNwYW4yMDI4Ij48dHNwYW4gc3R5bGU9InRleHQtZGVjb3JhdGlvbjo7IiBpZD0iU3ZnanNUc3BhbjIwMjkiPuavj+S4quebruagh+S8pOWuszwvdHNwYW4+PC90c3Bhbj48L3RleHQ+PC9nPjwvZz48ZyBpZD0iU3ZnanNHMjAzMCI+PHBhdGggbWFya2VyLWVuZD0idXJsKCNTdmdqc01hcmtlcjIwMzIpIiBmaWxsPSJub25lIiBzdHJva2Utd2lkdGg9IjIiIHN0cm9rZT0iIzMyMzIzMiIgZD0iTTE3MyA1MDhMMjAxIDUwOEwyMDEgNTA4TDIyNi40IDUwOCIgaWQ9IlN2Z2pzUGF0aDIwMzEiLz48L2c+PGcgaWQ9IlN2Z2pzRzIwMzQiPjxwYXRoIG1hcmtlci1lbmQ9InVybCgjU3ZnanNNYXJrZXIyMDM2KSIgZmlsbD0ibm9uZSIgc3Ryb2tlLXdpZHRoPSIyIiBzdHJva2U9IiMzMjMyMzIiIGQ9Ik0zMzEgNTA4TDM2NCA1MDhMMzY0IDUwOEwzOTQuNCA1MDgiIGlkPSJTdmdqc1BhdGgyMDM1Ii8+PC9nPjxnIGlkPSJTdmdqc0cyMDM4Ij48cGF0aCBtYXJrZXItZW5kPSJ1cmwoI1N2Z2pzTWFya2VyMjA0MCkiIGZpbGw9Im5vbmUiIHN0cm9rZS13aWR0aD0iMiIgc3Ryb2tlPSIjMzIzMjMyIiBkPSJNMTIyIDU0NEwxMjIgNTczTDI4MCA1NzNMMjgwIDU0NSIgaWQ9IlN2Z2pzUGF0aDIwMzkiLz48cmVjdCBmaWxsPSIjZmZmZmZmIiB5PSI1NjUiIHg9IjE4Ny41IiBoZWlnaHQ9IjE2IiB3aWR0aD0iMjYiIGlkPSJTdmdqc1JlY3QyMDQyIi8+PHRleHQgdHJhbnNmb3JtPSJyb3RhdGUoMCkiIHk9IjU2Mi4zNzUiIG9wYWNpdHk9IjEiIGZvbnQtc3R5bGU9IiIgc2l6ZT0iMTNweCIgYWxpZ249InRvcCIgZm9udC13ZWlnaHQ9IjQwMCIgZmlsbD0iIzAwMDAwMCIgd2lkdGg9IjI2cHgiIGZvbnQtc2l6ZT0iMTNweCIgdGV4dC1hbmNob3I9Im1pZGRsZSIgZm9udC1mYW1pbHk9IuW+rui9r+mbhem7kSIgaWQ9IlN2Z2pzVGV4dDIwNDMiPjx0c3BhbiB4PSIyMDAuNSIgZHk9IjE2IiBpZD0iU3ZnanNUc3BhbjIwNDQiPjx0c3BhbiBzdHlsZT0idGV4dC1kZWNvcmF0aW9uOjsiIGlkPSJTdmdqc1RzcGFuMjA0NSI+bG9vcDwvdHNwYW4+PC90c3Bhbj48L3RleHQ+PC9nPjxnIHRyYW5zZm9ybT0idHJhbnNsYXRlKDY5Miw0NjgpIiBpZD0iU3ZnanNHMjA0NiI+PHBhdGggZmlsbD0iI2ZmZmZmZiIgZmlsbC1vcGFjaXR5PSIxIiBzdHJva2Utd2lkdGg9IjIiIHN0cm9rZT0icmdiYSg1MCw1MCw1MCwxKSIgZD0iTSAwIDQwTCA2MCAwTCAxMjAgNDBMIDYwIDgwWiIgaWQ9IlN2Z2pzUGF0aDIwNDciLz48ZyBpZD0iU3ZnanNHMjA0OCI+PHRleHQgdHJhbnNmb3JtPSJyb3RhdGUoMCkiIHk9IjI5Ljc3NSIgb3BhY2l0eT0iMSIgZm9udC1zdHlsZT0iIiBzaXplPSIxM3B4IiBhbGlnbj0ibWlkZGxlIiBmb250LXdlaWdodD0iNDAwIiBmaWxsPSIjMDAwMDAwIiB3aWR0aD0iMTAwcHgiIGZvbnQtc2l6ZT0iMTNweCIgdGV4dC1hbmNob3I9Im1pZGRsZSIgZm9udC1mYW1pbHk9IuW+rui9r+mbhem7kSIgaWQ9IlN2Z2pzVGV4dDIwNDkiPjx0c3BhbiB4PSI2MCIgZHk9IjE2IiBpZD0iU3ZnanNUc3BhbjIwNTAiPjx0c3BhbiBzdHlsZT0idGV4dC1kZWNvcmF0aW9uOjsiIGlkPSJTdmdqc1RzcGFuMjA1MSI+5piv5ZCm6KKr6Zeq6YG/PC90c3Bhbj48L3RzcGFuPjwvdGV4dD48L2c+PC9nPjxnIGlkPSJTdmdqc0cyMDUyIj48cGF0aCBtYXJrZXItZW5kPSJ1cmwoI1N2Z2pzTWFya2VyMjA1NCkiIGZpbGw9Im5vbmUiIHN0cm9rZS13aWR0aD0iMiIgc3Ryb2tlPSIjMzIzMjMyIiBkPSJNNjU0IDUwOEw2NzIuNSA1MDhMNjcyLjUgNTA4TDY4OC40IDUwOCIgaWQ9IlN2Z2pzUGF0aDIwNTMiLz48L2c+PGcgdHJhbnNmb3JtPSJ0cmFuc2xhdGUoNjkyLDYwNikiIGlkPSJTdmdqc0cyMDU2Ij48cGF0aCBmaWxsPSIjZmZmZmZmIiBmaWxsLW9wYWNpdHk9IjEiIHN0cm9rZS13aWR0aD0iMiIgc3Ryb2tlPSJyZ2JhKDUwLDUwLDUwLDEpIiBkPSJNIDAgNDBMIDYwIDBMIDEyMCA0MEwgNjAgODBaIiBpZD0iU3ZnanNQYXRoMjA1NyIvPjxnIGlkPSJTdmdqc0cyMDU4Ij48dGV4dCB0cmFuc2Zvcm09InJvdGF0ZSgwKSIgeT0iMjkuNzc1IiBvcGFjaXR5PSIxIiBmb250LXN0eWxlPSIiIHNpemU9IjEzcHgiIGFsaWduPSJtaWRkbGUiIGZvbnQtd2VpZ2h0PSI0MDAiIGZpbGw9IiMwMDAwMDAiIHdpZHRoPSIxMDBweCIgZm9udC1zaXplPSIxM3B4IiB0ZXh0LWFuY2hvcj0ibWlkZGxlIiBmb250LWZhbWlseT0i5b6u6L2v6ZuF6buRIiBpZD0iU3ZnanNUZXh0MjA1OSI+PHRzcGFuIHg9IjYwIiBkeT0iMTYiIGlkPSJTdmdqc1RzcGFuMjA2MCI+PHRzcGFuIHN0eWxlPSJ0ZXh0LWRlY29yYXRpb246OyIgaWQ9IlN2Z2pzVHNwYW4yMDYxIj7lr7nosaHmmK/lkKbml6DmlYw8L3RzcGFuPjwvdHNwYW4+PC90ZXh0PjwvZz48L2c+PGcgaWQ9IlN2Z2pzRzIwNjIiPjxwYXRoIG1hcmtlci1lbmQ9InVybCgjU3ZnanNNYXJrZXIyMDY0KSIgZmlsbD0ibm9uZSIgc3Ryb2tlLXdpZHRoPSIyIiBzdHJva2U9IiMzMjMyMzIiIGQ9Ik03NTIgNTQ5TDc1MiA1NzdMNzUyIDU3N0w3NTIgNjAyLjQiIGlkPSJTdmdqc1BhdGgyMDYzIi8+PHJlY3QgZmlsbD0iI2ZmZmZmZiIgeT0iNTY3LjciIHg9Ijc0NS41IiBoZWlnaHQ9IjE2IiB3aWR0aD0iMTMiIGlkPSJTdmdqc1JlY3QyMDY2Ii8+PHRleHQgdHJhbnNmb3JtPSJyb3RhdGUoMCkiIHk9IjU2NS4wNzUiIG9wYWNpdHk9IjEiIGZvbnQtc3R5bGU9IiIgc2l6ZT0iMTNweCIgYWxpZ249InRvcCIgZm9udC13ZWlnaHQ9IjQwMCIgZmlsbD0iIzAwMDAwMCIgd2lkdGg9IjEzcHgiIGZvbnQtc2l6ZT0iMTNweCIgdGV4dC1hbmNob3I9Im1pZGRsZSIgZm9udC1mYW1pbHk9IuW+rui9r+mbhem7kSIgaWQ9IlN2Z2pzVGV4dDIwNjciPjx0c3BhbiB4PSI3NTIiIGR5PSIxNiIgaWQ9IlN2Z2pzVHNwYW4yMDY4Ij48dHNwYW4gc3R5bGU9InRleHQtZGVjb3JhdGlvbjo7IiBpZD0iU3ZnanNUc3BhbjIwNjkiPuWQpjwvdHNwYW4+PC90c3Bhbj48L3RleHQ+PC9nPjxnIHRyYW5zZm9ybT0idHJhbnNsYXRlKDg1NSw0NzMpIiBpZD0iU3ZnanNHMjA3MCI+PHBhdGggZmlsbD0iI2ZmZmZmZiIgZmlsbC1vcGFjaXR5PSIxIiBzdHJva2Utd2lkdGg9IjIiIHN0cm9rZT0icmdiYSg1MCw1MCw1MCwxKSIgZD0iTSAwIDBMIDEwMCAwTCAxMDAgNzBMIDAgNzBaIiBpZD0iU3ZnanNQYXRoMjA3MSIvPjxnIGlkPSJTdmdqc0cyMDcyIj48dGV4dCB0cmFuc2Zvcm09InJvdGF0ZSgwKSIgeT0iMjQuMzc1IiBvcGFjaXR5PSIxIiBmb250LXN0eWxlPSIiIHNpemU9IjEzcHgiIGFsaWduPSJtaWRkbGUiIGZvbnQtd2VpZ2h0PSI0MDAiIGZpbGw9IiMwMDAwMDAiIHdpZHRoPSI4MHB4IiBmb250LXNpemU9IjEzcHgiIHRleHQtYW5jaG9yPSJtaWRkbGUiIGZvbnQtZmFtaWx5PSLlvq7ova/pm4Xpu5EiIGlkPSJTdmdqc1RleHQyMDczIj48dHNwYW4geD0iNTAiIGR5PSIxNiIgaWQ9IlN2Z2pzVHNwYW4yMDc0Ij48dHNwYW4gc3R5bGU9InRleHQtZGVjb3JhdGlvbjo7IiBpZD0iU3ZnanNUc3BhbjIwNzUiPumXqumBv+a1geeoi+WkhOeQhjwvdHNwYW4+PC90c3Bhbj48L3RleHQ+PC9nPjwvZz48ZyBpZD0iU3ZnanNHMjA3NiI+PHBhdGggbWFya2VyLWVuZD0idXJsKCNTdmdqc01hcmtlcjIwNzgpIiBmaWxsPSJub25lIiBzdHJva2Utd2lkdGg9IjIiIHN0cm9rZT0iIzMyMzIzMiIgZD0iTTgxMyA1MDhMODMzLjUgNTA4TDgzMy41IDUwOEw4NTEuNCA1MDgiIGlkPSJTdmdqc1BhdGgyMDc3Ii8+PHJlY3QgZmlsbD0iI2ZmZmZmZiIgeT0iNTAwIiB4PSI4MjUuNjk5OTk5OTk5OTk5OSIgaGVpZ2h0PSIxNiIgd2lkdGg9IjEzIiBpZD0iU3ZnanNSZWN0MjA4MCIvPjx0ZXh0IHRyYW5zZm9ybT0icm90YXRlKDApIiB5PSI0OTcuMzc1IiBvcGFjaXR5PSIxIiBmb250LXN0eWxlPSIiIHNpemU9IjEzcHgiIGFsaWduPSJ0b3AiIGZvbnQtd2VpZ2h0PSI0MDAiIGZpbGw9IiMwMDAwMDAiIHdpZHRoPSIxM3B4IiBmb250LXNpemU9IjEzcHgiIHRleHQtYW5jaG9yPSJtaWRkbGUiIGZvbnQtZmFtaWx5PSLlvq7ova/pm4Xpu5EiIGlkPSJTdmdqc1RleHQyMDgxIj48dHNwYW4geD0iODMyLjE5OTk5OTk5OTk5OTkiIGR5PSIxNiIgaWQ9IlN2Z2pzVHNwYW4yMDgyIj48dHNwYW4gc3R5bGU9InRleHQtZGVjb3JhdGlvbjo7IiBpZD0iU3ZnanNUc3BhbjIwODMiPuaYrzwvdHNwYW4+PC90c3Bhbj48L3RleHQ+PC9nPjxnIHRyYW5zZm9ybT0idHJhbnNsYXRlKDU1Myw2MTEpIiBpZD0iU3ZnanNHMjA4NCI+PHBhdGggZmlsbD0iI2ZmZmZmZiIgZmlsbC1vcGFjaXR5PSIxIiBzdHJva2Utd2lkdGg9IjIiIHN0cm9rZT0icmdiYSg1MCw1MCw1MCwxKSIgZD0iTSAwIDBMIDEwMCAwTCAxMDAgNzBMIDAgNzBaIiBpZD0iU3ZnanNQYXRoMjA4NSIvPjxnIGlkPSJTdmdqc0cyMDg2Ij48dGV4dCB0cmFuc2Zvcm09InJvdGF0ZSgwKSIgeT0iMjQuMzc1IiBvcGFjaXR5PSIxIiBmb250LXN0eWxlPSIiIHNpemU9IjEzcHgiIGFsaWduPSJtaWRkbGUiIGZvbnQtd2VpZ2h0PSI0MDAiIGZpbGw9IiMwMDAwMDAiIHdpZHRoPSI4MHB4IiBmb250LXNpemU9IjEzcHgiIHRleHQtYW5jaG9yPSJtaWRkbGUiIGZvbnQtZmFtaWx5PSLlvq7ova/pm4Xpu5EiIGlkPSJTdmdqc1RleHQyMDg3Ij48dHNwYW4geD0iNTAiIGR5PSIxNiIgaWQ9IlN2Z2pzVHNwYW4yMDg4Ij48dHNwYW4gc3R5bGU9InRleHQtZGVjb3JhdGlvbjo7IiBpZD0iU3ZnanNUc3BhbjIwODkiPumXqumBv+a1geeoi+WkhOeQhjwvdHNwYW4+PC90c3Bhbj48L3RleHQ+PC9nPjwvZz48ZyBpZD0iU3ZnanNHMjA5MCI+PHBhdGggbWFya2VyLWVuZD0idXJsKCNTdmdqc01hcmtlcjIwOTIpIiBmaWxsPSJub25lIiBzdHJva2Utd2lkdGg9IjIiIHN0cm9rZT0iIzMyMzIzMiIgZD0iTTY5MSA2NDZMNjcyLjUgNjQ2TDY3Mi41IDY0Nkw2NTYuNiA2NDYiIGlkPSJTdmdqc1BhdGgyMDkxIi8+PHJlY3QgZmlsbD0iI2ZmZmZmZiIgeT0iNjM4IiB4PSI2NjcuMzAwMDAwMDAwMDAwMSIgaGVpZ2h0PSIxNiIgd2lkdGg9IjEzIiBpZD0iU3ZnanNSZWN0MjA5NCIvPjx0ZXh0IHRyYW5zZm9ybT0icm90YXRlKDApIiB5PSI2MzUuMzc1IiBvcGFjaXR5PSIxIiBmb250LXN0eWxlPSIiIHNpemU9IjEzcHgiIGFsaWduPSJ0b3AiIGZvbnQtd2VpZ2h0PSI0MDAiIGZpbGw9IiMwMDAwMDAiIHdpZHRoPSIxM3B4IiBmb250LXNpemU9IjEzcHgiIHRleHQtYW5jaG9yPSJtaWRkbGUiIGZvbnQtZmFtaWx5PSLlvq7ova/pm4Xpu5EiIGlkPSJTdmdqc1RleHQyMDk1Ij48dHNwYW4geD0iNjczLjgwMDAwMDAwMDAwMDEiIGR5PSIxNiIgaWQ9IlN2Z2pzVHNwYW4yMDk2Ij48dHNwYW4gc3R5bGU9InRleHQtZGVjb3JhdGlvbjo7IiBpZD0iU3ZnanNUc3BhbjIwOTciPuWQpjwvdHNwYW4+PC90c3Bhbj48L3RleHQ+PC9nPjxnIHRyYW5zZm9ybT0idHJhbnNsYXRlKDM5Myw2MTEpIiBpZD0iU3ZnanNHMjA5OCI+PHBhdGggZmlsbD0iI2ZmZmZmZiIgZmlsbC1vcGFjaXR5PSIxIiBzdHJva2Utd2lkdGg9IjIiIHN0cm9rZT0icmdiYSg1MCw1MCw1MCwxKSIgZD0iTSAwIDBMIDEwMCAwTCAxMDAgNzBMIDAgNzBaIiBpZD0iU3ZnanNQYXRoMjA5OSIvPjxnIGlkPSJTdmdqc0cyMTAwIj48dGV4dCB0cmFuc2Zvcm09InJvdGF0ZSgwKSIgeT0iMTUuODc1IiBvcGFjaXR5PSIxIiBmb250LXN0eWxlPSIiIHNpemU9IjEzcHgiIGFsaWduPSJtaWRkbGUiIGZvbnQtd2VpZ2h0PSI0MDAiIGZpbGw9IiMwMDAwMDAiIHdpZHRoPSI4MHB4IiBmb250LXNpemU9IjEzcHgiIHRleHQtYW5jaG9yPSJtaWRkbGUiIGZvbnQtZmFtaWx5PSLlvq7ova/pm4Xpu5EiIGlkPSJTdmdqc1RleHQyMTAxIj48dHNwYW4geD0iNTAiIGR5PSIxNiIgaWQ9IlN2Z2pzVHNwYW4yMTAyIj48dHNwYW4gc3R5bGU9InRleHQtZGVjb3JhdGlvbjo7IiBpZD0iU3ZnanNUc3BhbjIxMDMiPuaPkOWPluS4u+WKqOaKgOiDvTwvdHNwYW4+PC90c3Bhbj48dHNwYW4geD0iNTAiIGR5PSIxNiIgaWQ9IlN2Z2pzVHNwYW4yMTA0Ij48dHNwYW4gc3R5bGU9InRleHQtZGVjb3JhdGlvbjo7IiBpZD0iU3ZnanNUc3BhbjIxMDUiPuaViOaenDwvdHNwYW4+PC90c3Bhbj48L3RleHQ+PC9nPjwvZz48ZyBpZD0iU3ZnanNHMjEwNiI+PHBhdGggbWFya2VyLWVuZD0idXJsKCNTdmdqc01hcmtlcjIxMDgpIiBmaWxsPSJub25lIiBzdHJva2Utd2lkdGg9IjIiIHN0cm9rZT0iIzMyMzIzMiIgZD0iTTU1MiA2NDZMNTIzIDY0Nkw1MjMgNjQ2TDQ5Ni42IDY0NiIgaWQ9IlN2Z2pzUGF0aDIxMDciLz48L2c+PGcgdHJhbnNmb3JtPSJ0cmFuc2xhdGUoMjMzLDYxMSkiIGlkPSJTdmdqc0cyMTEwIj48cGF0aCBmaWxsPSIjZmZmZmZmIiBmaWxsLW9wYWNpdHk9IjEiIHN0cm9rZS13aWR0aD0iMiIgc3Ryb2tlPSJyZ2JhKDUwLDUwLDUwLDEpIiBkPSJNIDAgMEwgMTAwIDBMIDEwMCA3MEwgMCA3MFoiIGlkPSJTdmdqc1BhdGgyMTExIi8+PGcgaWQ9IlN2Z2pzRzIxMTIiPjx0ZXh0IHRyYW5zZm9ybT0icm90YXRlKDApIiB5PSI3Ljg3NSIgb3BhY2l0eT0iMSIgZm9udC1zdHlsZT0iIiBzaXplPSIxM3B4IiBhbGlnbj0ibWlkZGxlIiBmb250LXdlaWdodD0iNDAwIiBmaWxsPSIjMDAwMDAwIiB3aWR0aD0iODBweCIgZm9udC1zaXplPSIxM3B4IiB0ZXh0LWFuY2hvcj0ibWlkZGxlIiBmb250LWZhbWlseT0i5b6u6L2v6ZuF6buRIiBpZD0iU3ZnanNUZXh0MjExMyI+PHRzcGFuIHg9IjUwIiBkeT0iMTYiIGlkPSJTdmdqc1RzcGFuMjExNCI+PHRzcGFuIHN0eWxlPSJ0ZXh0LWRlY29yYXRpb246OyIgaWQ9IlN2Z2pzVHNwYW4yMTE1Ij7mj5Dlj5bkuLvkvZPnibnmroo8L3RzcGFuPjwvdHNwYW4+PHRzcGFuIHg9IjUwIiBkeT0iMTYiIGlkPSJTdmdqc1RzcGFuMjExNiI+PHRzcGFuIHN0eWxlPSJ0ZXh0LWRlY29yYXRpb246OyIgaWQ9IlN2Z2pzVHNwYW4yMTE3Ij7nirbmgIHmioDog73mlYjmnpw8L3RzcGFuPjwvdHNwYW4+PHRzcGFuIHg9IjUwIiBkeT0iMTYiIGlkPSJTdmdqc1RzcGFuMjExOCI+PHRzcGFuIHN0eWxlPSJ0ZXh0LWRlY29yYXRpb246OyIgaWQ9IlN2Z2pzVHNwYW4yMTE5Ij7vvIhidWZm77yJPC90c3Bhbj48L3RzcGFuPjwvdGV4dD48L2c+PC9nPjxnIGlkPSJTdmdqc0cyMTIwIj48cGF0aCBtYXJrZXItZW5kPSJ1cmwoI1N2Z2pzTWFya2VyMjEyMikiIGZpbGw9Im5vbmUiIHN0cm9rZS13aWR0aD0iMiIgc3Ryb2tlPSIjMzIzMjMyIiBkPSJNMzkyIDY0NkwzNjMgNjQ2TDM2MyA2NDZMMzM2LjYgNjQ2IiBpZD0iU3ZnanNQYXRoMjEyMSIvPjwvZz48ZyB0cmFuc2Zvcm09InRyYW5zbGF0ZSg4MSw2MTEpIiBpZD0iU3ZnanNHMjEyNCI+PHBhdGggZmlsbD0iI2ZmZmZmZiIgZmlsbC1vcGFjaXR5PSIxIiBzdHJva2Utd2lkdGg9IjIiIHN0cm9rZT0icmdiYSg1MCw1MCw1MCwxKSIgZD0iTSAwIDBMIDEwMCAwTCAxMDAgNzBMIDAgNzBaIiBpZD0iU3ZnanNQYXRoMjEyNSIvPjxnIGlkPSJTdmdqc0cyMTI2Ij48dGV4dCB0cmFuc2Zvcm09InJvdGF0ZSgwKSIgeT0iMTUuODc1IiBvcGFjaXR5PSIxIiBmb250LXN0eWxlPSIiIHNpemU9IjEzcHgiIGFsaWduPSJtaWRkbGUiIGZvbnQtd2VpZ2h0PSI0MDAiIGZpbGw9IiMwMDAwMDAiIHdpZHRoPSI4MHB4IiBmb250LXNpemU9IjEzcHgiIHRleHQtYW5jaG9yPSJtaWRkbGUiIGZvbnQtZmFtaWx5PSLlvq7ova/pm4Xpu5EiIGlkPSJTdmdqc1RleHQyMTI3Ij48dHNwYW4geD0iNTAiIGR5PSIxNiIgaWQ9IlN2Z2pzVHNwYW4yMTI4Ij48dHNwYW4gc3R5bGU9InRleHQtZGVjb3JhdGlvbjo7IiBpZD0iU3ZnanNUc3BhbjIxMjkiPuaPkOWPluS4u+S9k+iiq+WKqDwvdHNwYW4+PC90c3Bhbj48dHNwYW4geD0iNTAiIGR5PSIxNiIgaWQ9IlN2Z2pzVHNwYW4yMTMwIj48dHNwYW4gc3R5bGU9InRleHQtZGVjb3JhdGlvbjo7IiBpZD0iU3ZnanNUc3BhbjIxMzEiPuaKgOiDveaViOaenDwvdHNwYW4+PC90c3Bhbj48L3RleHQ+PC9nPjwvZz48ZyBpZD0iU3ZnanNHMjEzMiI+PHBhdGggbWFya2VyLWVuZD0idXJsKCNTdmdqc01hcmtlcjIxMzQpIiBmaWxsPSJub25lIiBzdHJva2Utd2lkdGg9IjIiIHN0cm9rZT0iIzMyMzIzMiIgZD0iTTIzMiA2NDZMMjA3IDY0NkwyMDcgNjQ2TDE4NC42IDY0NiIgaWQ9IlN2Z2pzUGF0aDIxMzMiLz48L2c+PGcgdHJhbnNmb3JtPSJ0cmFuc2xhdGUoNzgsNzExKSIgaWQ9IlN2Z2pzRzIxMzYiPjxwYXRoIGZpbGw9IiNmZmZmZmYiIGZpbGwtb3BhY2l0eT0iMSIgc3Ryb2tlLXdpZHRoPSIyIiBzdHJva2U9InJnYmEoNTAsNTAsNTAsMSkiIGQ9Ik0gMCAwTCAxMDYgMEwgMTA2IDgzTCAwIDgzWiIgaWQ9IlN2Z2pzUGF0aDIxMzciLz48ZyBpZD0iU3ZnanNHMjEzOCI+PHRleHQgdHJhbnNmb3JtPSJyb3RhdGUoMCkiIHk9IjYuMzc1IiBvcGFjaXR5PSIxIiBmb250LXN0eWxlPSIiIHNpemU9IjEzcHgiIGFsaWduPSJtaWRkbGUiIGZvbnQtd2VpZ2h0PSI0MDAiIGZpbGw9IiMwMDAwMDAiIHdpZHRoPSI4NnB4IiBmb250LXNpemU9IjEzcHgiIHRleHQtYW5jaG9yPSJtaWRkbGUiIGZvbnQtZmFtaWx5PSLlvq7ova/pm4Xpu5EiIGlkPSJTdmdqc1RleHQyMTM5Ij48dHNwYW4geD0iNTMiIGR5PSIxNiIgaWQ9IlN2Z2pzVHNwYW4yMTQwIj48dHNwYW4gc3R5bGU9InRleHQtZGVjb3JhdGlvbjo7IiBpZD0iU3ZnanNUc3BhbjIxNDEiPuaPkOWPluS4u+S9k+eahOWKqDwvdHNwYW4+PC90c3Bhbj48dHNwYW4geD0iNTMiIGR5PSIxNiIgaWQ9IlN2Z2pzVHNwYW4yMTQyIj48dHNwYW4gc3R5bGU9InRleHQtZGVjb3JhdGlvbjo7IiBpZD0iU3ZnanNUc3BhbjIxNDMiPuaAgeaKgOiDveaViOaenCjlsbE8L3RzcGFuPjwvdHNwYW4+PHRzcGFuIHg9IjUzIiBkeT0iMTYiIGlkPSJTdmdqc1RzcGFuMjE0NCI+PHRzcGFuIHN0eWxlPSJ0ZXh0LWRlY29yYXRpb246OyIgaWQ9IlN2Z2pzVHNwYW4yMTQ1Ij7mtbfnu4/nrYnvvIzkuIDoiKw8L3RzcGFuPjwvdHNwYW4+PHRzcGFuIHg9IjUzIiBkeT0iMTYiIGlkPSJTdmdqc1RzcGFuMjE0NiI+PHRzcGFuIHN0eWxlPSJ0ZXh0LWRlY29yYXRpb246OyIgaWQ9IlN2Z2pzVHNwYW4yMTQ3Ij7opoHlr7nmioDog73kv67mraMpPC90c3Bhbj48L3RzcGFuPjwvdGV4dD48L2c+PC9nPjxnIGlkPSJTdmdqc0cyMTQ4Ij48cGF0aCBtYXJrZXItZW5kPSJ1cmwoI1N2Z2pzTWFya2VyMjE1MCkiIGZpbGw9Im5vbmUiIHN0cm9rZS13aWR0aD0iMiIgc3Ryb2tlPSIjMzIzMjMyIiBkPSJNMTMxIDY4MkwxMzEgNjk2TDEzMSA2OTZMMTMxIDcwNy40IiBpZD0iU3ZnanNQYXRoMjE0OSIvPjwvZz48ZyB0cmFuc2Zvcm09InRyYW5zbGF0ZSgyMzMsNzE3LjUpIiBpZD0iU3ZnanNHMjE1MiI+PHBhdGggZmlsbD0iI2ZmZmZmZiIgZmlsbC1vcGFjaXR5PSIxIiBzdHJva2Utd2lkdGg9IjIiIHN0cm9rZT0icmdiYSg1MCw1MCw1MCwxKSIgZD0iTSAwIDBMIDEwMCAwTCAxMDAgNzBMIDAgNzBaIiBpZD0iU3ZnanNQYXRoMjE1MyIvPjxnIGlkPSJTdmdqc0cyMTU0Ij48dGV4dCB0cmFuc2Zvcm09InJvdGF0ZSgwKSIgeT0iNy44NzUiIG9wYWNpdHk9IjEiIGZvbnQtc3R5bGU9IiIgc2l6ZT0iMTNweCIgYWxpZ249Im1pZGRsZSIgZm9udC13ZWlnaHQ9IjQwMCIgZmlsbD0iIzAwMDAwMCIgd2lkdGg9IjgwcHgiIGZvbnQtc2l6ZT0iMTNweCIgdGV4dC1hbmNob3I9Im1pZGRsZSIgZm9udC1mYW1pbHk9IuW+rui9r+mbhem7kSIgaWQ9IlN2Z2pzVGV4dDIxNTUiPjx0c3BhbiB4PSI1MCIgZHk9IjE2IiBpZD0iU3ZnanNUc3BhbjIxNTYiPjx0c3BhbiBzdHlsZT0idGV4dC1kZWNvcmF0aW9uOjsiIGlkPSJTdmdqc1RzcGFuMjE1NyI+5o+Q5Y+W5a6i5L2T54m55q6KPC90c3Bhbj48L3RzcGFuPjx0c3BhbiB4PSI1MCIgZHk9IjE2IiBpZD0iU3ZnanNUc3BhbjIxNTgiPjx0c3BhbiBzdHlsZT0idGV4dC1kZWNvcmF0aW9uOjsiIGlkPSJTdmdqc1RzcGFuMjE1OSI+54q25oCB5oqA6IO95pWI5p6cPC90c3Bhbj48L3RzcGFuPjx0c3BhbiB4PSI1MCIgZHk9IjE2IiBpZD0iU3ZnanNUc3BhbjIxNjAiPjx0c3BhbiBzdHlsZT0idGV4dC1kZWNvcmF0aW9uOjsiIGlkPSJTdmdqc1RzcGFuMjE2MSI+77yIYnVmZu+8iTwvdHNwYW4+PC90c3Bhbj48L3RleHQ+PC9nPjwvZz48ZyB0cmFuc2Zvcm09InRyYW5zbGF0ZSgzOTMsNzE3LjUpIiBpZD0iU3ZnanNHMjE2MiI+PHBhdGggZmlsbD0iI2ZmZmZmZiIgZmlsbC1vcGFjaXR5PSIxIiBzdHJva2Utd2lkdGg9IjIiIHN0cm9rZT0icmdiYSg1MCw1MCw1MCwxKSIgZD0iTSAwIDBMIDEwMCAwTCAxMDAgNzBMIDAgNzBaIiBpZD0iU3ZnanNQYXRoMjE2MyIvPjxnIGlkPSJTdmdqc0cyMTY0Ij48dGV4dCB0cmFuc2Zvcm09InJvdGF0ZSgwKSIgeT0iMTUuODc1IiBvcGFjaXR5PSIxIiBmb250LXN0eWxlPSIiIHNpemU9IjEzcHgiIGFsaWduPSJtaWRkbGUiIGZvbnQtd2VpZ2h0PSI0MDAiIGZpbGw9IiMwMDAwMDAiIHdpZHRoPSI4MHB4IiBmb250LXNpemU9IjEzcHgiIHRleHQtYW5jaG9yPSJtaWRkbGUiIGZvbnQtZmFtaWx5PSLlvq7ova/pm4Xpu5EiIGlkPSJTdmdqc1RleHQyMTY1Ij48dHNwYW4geD0iNTAiIGR5PSIxNiIgaWQ9IlN2Z2pzVHNwYW4yMTY2Ij48dHNwYW4gc3R5bGU9InRleHQtZGVjb3JhdGlvbjo7IiBpZD0iU3ZnanNUc3BhbjIxNjciPuaPkOWPluWuouS9k+iiq+WKqDwvdHNwYW4+PC90c3Bhbj48dHNwYW4geD0iNTAiIGR5PSIxNiIgaWQ9IlN2Z2pzVHNwYW4yMTY4Ij48dHNwYW4gc3R5bGU9InRleHQtZGVjb3JhdGlvbjo7IiBpZD0iU3ZnanNUc3BhbjIxNjkiPuaKgOiDveaViOaenDwvdHNwYW4+PC90c3Bhbj48L3RleHQ+PC9nPjwvZz48ZyBpZD0iU3ZnanNHMjE3MCI+PHBhdGggbWFya2VyLWVuZD0idXJsKCNTdmdqc01hcmtlcjIxNzIpIiBmaWxsPSJub25lIiBzdHJva2Utd2lkdGg9IjIiIHN0cm9rZT0iIzMyMzIzMiIgZD0iTTE4NSA3NTIuNUwyMDguNSA3NTIuNUwyMDguNSA3NTIuNUwyMjkuNCA3NTIuNSIgaWQ9IlN2Z2pzUGF0aDIxNzEiLz48L2c+PGcgaWQ9IlN2Z2pzRzIxNzQiPjxwYXRoIG1hcmtlci1lbmQ9InVybCgjU3ZnanNNYXJrZXIyMTc2KSIgZmlsbD0ibm9uZSIgc3Ryb2tlLXdpZHRoPSIyIiBzdHJva2U9IiMzMjMyMzIiIGQ9Ik0zMzQgNzUyLjVMMzYzIDc1Mi41TDM2MyA3NTIuNUwzODkuNCA3NTIuNSIgaWQ9IlN2Z2pzUGF0aDIxNzUiLz48L2c+PGcgdHJhbnNmb3JtPSJ0cmFuc2xhdGUoNTU5LDcxNy41KSIgaWQ9IlN2Z2pzRzIxNzgiPjxwYXRoIGZpbGw9IiNmZmZmZmYiIGZpbGwtb3BhY2l0eT0iMSIgc3Ryb2tlLXdpZHRoPSIyIiBzdHJva2U9InJnYmEoNTAsNTAsNTAsMSkiIGQ9Ik0gMCAwTCAxMDAgMEwgMTAwIDcwTCAwIDcwWiIgaWQ9IlN2Z2pzUGF0aDIxNzkiLz48ZyBpZD0iU3ZnanNHMjE4MCI+PHRleHQgdHJhbnNmb3JtPSJyb3RhdGUoMCkiIHk9IjI0LjM3NSIgb3BhY2l0eT0iMSIgZm9udC1zdHlsZT0iIiBzaXplPSIxM3B4IiBhbGlnbj0ibWlkZGxlIiBmb250LXdlaWdodD0iNDAwIiBmaWxsPSIjMDAwMDAwIiB3aWR0aD0iODBweCIgZm9udC1zaXplPSIxM3B4IiB0ZXh0LWFuY2hvcj0ibWlkZGxlIiBmb250LWZhbWlseT0i5b6u6L2v6ZuF6buRIiBpZD0iU3ZnanNUZXh0MjE4MSI+PHRzcGFuIHg9IjUwIiBkeT0iMTYiIGlkPSJTdmdqc1RzcGFuMjE4MiI+PHRzcGFuIHN0eWxlPSJ0ZXh0LWRlY29yYXRpb246OyIgaWQ9IlN2Z2pzVHNwYW4yMTgzIj7mlYjmnpzlpITnkIY8L3RzcGFuPjwvdHNwYW4+PC90ZXh0PjwvZz48L2c+PGcgaWQ9IlN2Z2pzRzIxODQiPjxwYXRoIG1hcmtlci1lbmQ9InVybCgjU3ZnanNNYXJrZXIyMTg2KSIgZmlsbD0ibm9uZSIgc3Ryb2tlLXdpZHRoPSIyIiBzdHJva2U9IiMzMjMyMzIiIGQ9Ik00OTQgNzUyLjVMNTI2IDc1Mi41TDUyNiA3NTIuNUw1NTUuNCA3NTIuNSIgaWQ9IlN2Z2pzUGF0aDIxODUiLz48L2c+PGcgdHJhbnNmb3JtPSJ0cmFuc2xhdGUoNzA1LDcxNy41KSIgaWQ9IlN2Z2pzRzIxODgiPjxwYXRoIGZpbGw9IiNmZmZmZmYiIGZpbGwtb3BhY2l0eT0iMSIgc3Ryb2tlLXdpZHRoPSIyIiBzdHJva2U9InJnYmEoNTAsNTAsNTAsMSkiIGQ9Ik0gMCAwTCAxMDAgMEwgMTAwIDcwTCAwIDcwWiIgaWQ9IlN2Z2pzUGF0aDIxODkiLz48ZyBpZD0iU3ZnanNHMjE5MCI+PHRleHQgdHJhbnNmb3JtPSJyb3RhdGUoMCkiIHk9IjI0LjM3NSIgb3BhY2l0eT0iMSIgZm9udC1zdHlsZT0iIiBzaXplPSIxM3B4IiBhbGlnbj0ibWlkZGxlIiBmb250LXdlaWdodD0iNDAwIiBmaWxsPSIjMDAwMDAwIiB3aWR0aD0iODBweCIgZm9udC1zaXplPSIxM3B4IiB0ZXh0LWFuY2hvcj0ibWlkZGxlIiBmb250LWZhbWlseT0i5b6u6L2v6ZuF6buRIiBpZD0iU3ZnanNUZXh0MjE5MSI+PHRzcGFuIHg9IjUwIiBkeT0iMTYiIGlkPSJTdmdqc1RzcGFuMjE5MiI+PHRzcGFuIHN0eWxlPSJ0ZXh0LWRlY29yYXRpb246OyIgaWQ9IlN2Z2pzVHNwYW4yMTkzIj7mlYjmnpzlsZ7mgKfkv67mraM8L3RzcGFuPjwvdHNwYW4+PC90ZXh0PjwvZz48L2c+PGcgaWQ9IlN2Z2pzRzIxOTQiPjxwYXRoIG1hcmtlci1lbmQ9InVybCgjU3ZnanNNYXJrZXIyMTk2KSIgZmlsbD0ibm9uZSIgc3Ryb2tlLXdpZHRoPSIyIiBzdHJva2U9IiMzMjMyMzIiIGQ9Ik02NjAgNzUyLjVMNjgyIDc1Mi41TDY4MiA3NTIuNUw3MDEuNCA3NTIuNSIgaWQ9IlN2Z2pzUGF0aDIxOTUiLz48L2c+PGcgdHJhbnNmb3JtPSJ0cmFuc2xhdGUoODM3LDcxNy41KSIgaWQ9IlN2Z2pzRzIxOTgiPjxwYXRoIGZpbGw9IiNmZmZmZmYiIGZpbGwtb3BhY2l0eT0iMSIgc3Ryb2tlLXdpZHRoPSIyIiBzdHJva2U9InJnYmEoNTAsNTAsNTAsMSkiIGQ9Ik0gMCAwTCAxMDAgMEwgMTAwIDcwTCAwIDcwWiIgaWQ9IlN2Z2pzUGF0aDIxOTkiLz48ZyBpZD0iU3ZnanNHMjIwMCI+PHRleHQgdHJhbnNmb3JtPSJyb3RhdGUoMCkiIHk9IjcuODc1IiBvcGFjaXR5PSIxIiBmb250LXN0eWxlPSIiIHNpemU9IjEzcHgiIGFsaWduPSJtaWRkbGUiIGZvbnQtd2VpZ2h0PSI0MDAiIGZpbGw9IiMwMDAwMDAiIHdpZHRoPSI4MHB4IiBmb250LXNpemU9IjEzcHgiIHRleHQtYW5jaG9yPSJtaWRkbGUiIGZvbnQtZmFtaWx5PSLlvq7ova/pm4Xpu5EiIGlkPSJTdmdqc1RleHQyMjAxIj48dHNwYW4geD0iNTAiIGR5PSIxNiIgaWQ9IlN2Z2pzVHNwYW4yMjAyIj48dHNwYW4gc3R5bGU9InRleHQtZGVjb3JhdGlvbjo7IiBpZD0iU3ZnanNUc3BhbjIyMDMiPuaViOaenOeUn+aViDwvdHNwYW4+PC90c3Bhbj48dHNwYW4geD0iNTAiIGR5PSIxNiIgaWQ9IlN2Z2pzVHNwYW4yMjA0Ij48dHNwYW4gc3R5bGU9InRleHQtZGVjb3JhdGlvbjo7IiBpZD0iU3ZnanNUc3BhbjIyMDUiPmNpX2hhbmRsZV9lZmY8L3RzcGFuPjwvdHNwYW4+PHRzcGFuIHg9IjUwIiBkeT0iMTYiIGlkPSJTdmdqc1RzcGFuMjIwNiI+PHRzcGFuIHN0eWxlPSJ0ZXh0LWRlY29yYXRpb246OyIgaWQ9IlN2Z2pzVHNwYW4yMjA3Ij5lY3Q8L3RzcGFuPjwvdHNwYW4+PC90ZXh0PjwvZz48L2c+PGcgaWQ9IlN2Z2pzRzIyMDgiPjxwYXRoIG1hcmtlci1lbmQ9InVybCgjU3ZnanNNYXJrZXIyMjEwKSIgZmlsbD0ibm9uZSIgc3Ryb2tlLXdpZHRoPSIyIiBzdHJva2U9IiMzMjMyMzIiIGQ9Ik04MDYgNzUyLjVMODIxIDc1Mi41TDgyMSA3NTIuNUw4MzMuNCA3NTIuNSIgaWQ9IlN2Z2pzUGF0aDIyMDkiLz48L2c+PGcgdHJhbnNmb3JtPSJ0cmFuc2xhdGUoODM3LDgxNi41KSIgaWQ9IlN2Z2pzRzIyMTIiPjxwYXRoIGZpbGw9IiNmZmZmZmYiIGZpbGwtb3BhY2l0eT0iMSIgc3Ryb2tlLXdpZHRoPSIyIiBzdHJva2U9InJnYmEoNTAsNTAsNTAsMSkiIGQ9Ik0gMCAwTCAxMDAgMEwgMTAwIDcwTCAwIDcwWiIgaWQ9IlN2Z2pzUGF0aDIyMTMiLz48ZyBpZD0iU3ZnanNHMjIxNCI+PHRleHQgdHJhbnNmb3JtPSJyb3RhdGUoMCkiIHk9IjI0LjM3NSIgb3BhY2l0eT0iMSIgZm9udC1zdHlsZT0iIiBzaXplPSIxM3B4IiBhbGlnbj0ibWlkZGxlIiBmb250LXdlaWdodD0iNDAwIiBmaWxsPSIjMDAwMDAwIiB3aWR0aD0iODBweCIgZm9udC1zaXplPSIxM3B4IiB0ZXh0LWFuY2hvcj0ibWlkZGxlIiBmb250LWZhbWlseT0i5b6u6L2v6ZuF6buRIiBpZD0iU3ZnanNUZXh0MjIxNSI+PHRzcGFuIHg9IjUwIiBkeT0iMTYiIGlkPSJTdmdqc1RzcGFuMjIxNiI+PHRzcGFuIHN0eWxlPSJ0ZXh0LWRlY29yYXRpb246OyIgaWQ9IlN2Z2pzVHNwYW4yMjE3Ij7mlLvlh7vlkI7lpITnkIY8L3RzcGFuPjwvdHNwYW4+PC90ZXh0PjwvZz48L2c+PGcgaWQ9IlN2Z2pzRzIyMTgiPjxwYXRoIG1hcmtlci1lbmQ9InVybCgjU3ZnanNNYXJrZXIyMjIwKSIgZmlsbD0ibm9uZSIgc3Ryb2tlLXdpZHRoPSIyIiBzdHJva2U9IiMzMjMyMzIiIGQ9Ik04ODcgNzg4LjVMODg3IDgwMkw4ODcgODAyTDg4NyA4MTIuOSIgaWQ9IlN2Z2pzUGF0aDIyMTkiLz48L2c+PGcgaWQ9IlN2Z2pzRzIyMjIiPjxwYXRoIG1hcmtlci1lbmQ9InVybCgjU3ZnanNNYXJrZXIyMjI0KSIgZmlsbD0ibm9uZSIgc3Ryb2tlLXdpZHRoPSIyIiBzdHJva2U9IiMzMjMyMzIiIGQ9Ik04ODcgNzE2LjVMODg3IDY4Ny41TDk2NyA2ODcuNUw5NjcgNzUyLjVMOTQwIDc1Mi41IiBpZD0iU3ZnanNQYXRoMjIyMyIvPjxyZWN0IGZpbGw9IiNmZmZmZmYiIHk9IjY3OS41IiB4PSI5NDUuNSIgaGVpZ2h0PSIxNiIgd2lkdGg9IjI2IiBpZD0iU3ZnanNSZWN0MjIyNiIvPjx0ZXh0IHRyYW5zZm9ybT0icm90YXRlKDApIiB5PSI2NzYuODc1IiBvcGFjaXR5PSIxIiBmb250LXN0eWxlPSIiIHNpemU9IjEzcHgiIGFsaWduPSJ0b3AiIGZvbnQtd2VpZ2h0PSI0MDAiIGZpbGw9IiMwMDAwMDAiIHdpZHRoPSIyNnB4IiBmb250LXNpemU9IjEzcHgiIHRleHQtYW5jaG9yPSJtaWRkbGUiIGZvbnQtZmFtaWx5PSLlvq7ova/pm4Xpu5EiIGlkPSJTdmdqc1RleHQyMjI3Ij48dHNwYW4geD0iOTU4LjUiIGR5PSIxNiIgaWQ9IlN2Z2pzVHNwYW4yMjI4Ij48dHNwYW4gc3R5bGU9InRleHQtZGVjb3JhdGlvbjo7IiBpZD0iU3ZnanNUc3BhbjIyMjkiPmxvb3A8L3RzcGFuPjwvdHNwYW4+PC90ZXh0PjwvZz48ZyB0cmFuc2Zvcm09InRyYW5zbGF0ZSg3MDgsODE2LjUpIiBpZD0iU3ZnanNHMjIzMCI+PHBhdGggZmlsbD0iI2ZmZmZmZiIgZmlsbC1vcGFjaXR5PSIxIiBzdHJva2Utd2lkdGg9IjIiIHN0cm9rZT0icmdiYSg1MCw1MCw1MCwxKSIgZD0iTSAwIDBMIDEwMCAwTCAxMDAgNzBMIDAgNzBaIiBpZD0iU3ZnanNQYXRoMjIzMSIvPjxnIGlkPSJTdmdqc0cyMjMyIj48dGV4dCB0cmFuc2Zvcm09InJvdGF0ZSgwKSIgeT0iMjQuMzc1IiBvcGFjaXR5PSIxIiBmb250LXN0eWxlPSIiIHNpemU9IjEzcHgiIGFsaWduPSJtaWRkbGUiIGZvbnQtd2VpZ2h0PSI0MDAiIGZpbGw9IiMwMDAwMDAiIHdpZHRoPSI4MHB4IiBmb250LXNpemU9IjEzcHgiIHRleHQtYW5jaG9yPSJtaWRkbGUiIGZvbnQtZmFtaWx5PSLlvq7ova/pm4Xpu5EiIGlkPSJTdmdqc1RleHQyMjMzIj48dHNwYW4geD0iNTAiIGR5PSIxNiIgaWQ9IlN2Z2pzVHNwYW4yMjM0Ij48dHNwYW4gc3R5bGU9InRleHQtZGVjb3JhdGlvbjo7IiBpZD0iU3ZnanNUc3BhbjIyMzUiPuaUu+WHu+WbnuiwgzwvdHNwYW4+PC90c3Bhbj48L3RleHQ+PC9nPjwvZz48ZyB0cmFuc2Zvcm09InRyYW5zbGF0ZSg1NjksODE2LjUpIiBpZD0iU3ZnanNHMjIzNiI+PHBhdGggZmlsbD0iI2ZmZmZmZiIgZmlsbC1vcGFjaXR5PSIxIiBzdHJva2Utd2lkdGg9IjIiIHN0cm9rZT0icmdiYSg1MCw1MCw1MCwxKSIgZD0iTSAwIDBMIDEwMCAwTCAxMDAgNzBMIDAgNzBaIiBpZD0iU3ZnanNQYXRoMjIzNyIvPjxnIGlkPSJTdmdqc0cyMjM4Ij48dGV4dCB0cmFuc2Zvcm09InJvdGF0ZSgwKSIgeT0iMjQuMzc1IiBvcGFjaXR5PSIxIiBmb250LXN0eWxlPSIiIHNpemU9IjEzcHgiIGFsaWduPSJtaWRkbGUiIGZvbnQtd2VpZ2h0PSI0MDAiIGZpbGw9IiMwMDAwMDAiIHdpZHRoPSI4MHB4IiBmb250LXNpemU9IjEzcHgiIHRleHQtYW5jaG9yPSJtaWRkbGUiIGZvbnQtZmFtaWx5PSLlvq7ova/pm4Xpu5EiIGlkPSJTdmdqc1RleHQyMjM5Ij48dHNwYW4geD0iNTAiIGR5PSIxNiIgaWQ9IlN2Z2pzVHNwYW4yMjQwIj48dHNwYW4gc3R5bGU9InRleHQtZGVjb3JhdGlvbjo7IiBpZD0iU3ZnanNUc3BhbjIyNDEiPuWPl+WHu+WbnuiwgzwvdHNwYW4+PC90c3Bhbj48L3RleHQ+PC9nPjwvZz48ZyBpZD0iU3ZnanNHMjI0MiI+PHBhdGggbWFya2VyLWVuZD0idXJsKCNTdmdqc01hcmtlcjIyNDQpIiBmaWxsPSJub25lIiBzdHJva2Utd2lkdGg9IjIiIHN0cm9rZT0iIzMyMzIzMiIgZD0iTTcwNyA4NTEuNUw2ODguNSA4NTEuNUw2ODguNSA4NTEuNUw2NzIuNiA4NTEuNSIgaWQ9IlN2Z2pzUGF0aDIyNDMiLz48L2c+PGcgaWQ9IlN2Z2pzRzIyNDYiPjxwYXRoIG1hcmtlci1lbmQ9InVybCgjU3ZnanNNYXJrZXIyMjQ4KSIgZmlsbD0ibm9uZSIgc3Ryb2tlLXdpZHRoPSIyIiBzdHJva2U9IiMzMjMyMzIiIGQ9Ik04MzYgODUxLjVMODIyLjUgODUxLjVMODIyLjUgODUxLjVMODExLjYgODUxLjUiIGlkPSJTdmdqc1BhdGgyMjQ3Ii8+PC9nPjxnIHRyYW5zZm9ybT0idHJhbnNsYXRlKDQyMiw4MTYuNSkiIGlkPSJTdmdqc0cyMjUwIj48cGF0aCBmaWxsPSIjZmZmZmZmIiBmaWxsLW9wYWNpdHk9IjEiIHN0cm9rZS13aWR0aD0iMiIgc3Ryb2tlPSJyZ2JhKDUwLDUwLDUwLDEpIiBkPSJNIDAgMEwgMTAwIDBMIDEwMCA3MEwgMCA3MFoiIGlkPSJTdmdqc1BhdGgyMjUxIi8+PGcgaWQ9IlN2Z2pzRzIyNTIiPjx0ZXh0IHRyYW5zZm9ybT0icm90YXRlKDApIiB5PSIxNS44NzUiIG9wYWNpdHk9IjEiIGZvbnQtc3R5bGU9IiIgc2l6ZT0iMTNweCIgYWxpZ249Im1pZGRsZSIgZm9udC13ZWlnaHQ9IjQwMCIgZmlsbD0iIzAwMDAwMCIgd2lkdGg9IjgwcHgiIGZvbnQtc2l6ZT0iMTNweCIgdGV4dC1hbmNob3I9Im1pZGRsZSIgZm9udC1mYW1pbHk9IuW+rui9r+mbhem7kSIgaWQ9IlN2Z2pzVGV4dDIyNTMiPjx0c3BhbiB4PSI1MCIgZHk9IjE2IiBpZD0iU3ZnanNUc3BhbjIyNTQiPjx0c3BhbiBzdHlsZT0idGV4dC1kZWNvcmF0aW9uOjsiIGlkPSJTdmdqc1RzcGFuMjI1NSI+5Yi35paw6KGA6YeP5bm/5pKtPC90c3Bhbj48L3RzcGFuPjx0c3BhbiB4PSI1MCIgZHk9IjE2IiBpZD0iU3ZnanNUc3BhbjIyNTYiPjx0c3BhbiBzdHlsZT0idGV4dC1kZWNvcmF0aW9uOjsiIGlkPSJTdmdqc1RzcGFuMjI1NyI+5pu05paw5pe26Ze0PC90c3Bhbj48L3RzcGFuPjwvdGV4dD48L2c+PC9nPjxnIGlkPSJTdmdqc0cyMjU4Ij48cGF0aCBtYXJrZXItZW5kPSJ1cmwoI1N2Z2pzTWFya2VyMjI2MCkiIGZpbGw9Im5vbmUiIHN0cm9rZS13aWR0aD0iMiIgc3Ryb2tlPSIjMzIzMjMyIiBkPSJNNTY4IDg1MS41TDU0NS41IDg1MS41TDU0NS41IDg1MS41TDUyNS42IDg1MS41IiBpZD0iU3ZnanNQYXRoMjI1OSIvPjwvZz48ZyB0cmFuc2Zvcm09InRyYW5zbGF0ZSg4NTUsNjM5KSIgaWQ9IlN2Z2pzRzIyNjIiPjxwYXRoIGZpbGw9Im5vbmUiIHN0cm9rZT0ibm9uZSIgZD0iTSAwIDBMIDEyMCAwTCAxMjAgNDBMIDAgNDBaIiBpZD0iU3ZnanNQYXRoMjI2MyIvPjxnIGlkPSJTdmdqc0cyMjY0Ij48dGV4dCB0cmFuc2Zvcm09InJvdGF0ZSgwKSIgeT0iLTE1LjEyNSIgb3BhY2l0eT0iMSIgZm9udC1zdHlsZT0iIiBzaXplPSIxM3B4IiBhbGlnbj0ibWlkZGxlIiBmb250LXdlaWdodD0iNDAwIiBmaWxsPSIjMDAwMDAwIiB3aWR0aD0iMTIwcHgiIGZvbnQtc2l6ZT0iMTNweCIgdGV4dC1hbmNob3I9Im1pZGRsZSIgZm9udC1mYW1pbHk9IuW+rui9r+mbhem7kSIgaWQ9IlN2Z2pzVGV4dDIyNjUiPjx0c3BhbiB4PSI2MCIgZHk9IjE2IiBpZD0iU3ZnanNUc3BhbjIyNjYiPjx0c3BhbiBzdHlsZT0idGV4dC1kZWNvcmF0aW9uOjsiIGlkPSJTdmdqc1RzcGFuMjI2NyI+5bGe5oCn5pWI5p6c5Lit5pyJ5Y+v6IO95LyaPC90c3Bhbj48L3RzcGFuPjx0c3BhbiB4PSI2MCIgZHk9IjE2IiBpZD0iU3ZnanNUc3BhbjIyNjgiPjx0c3BhbiBzdHlsZT0idGV4dC1kZWNvcmF0aW9uOjsiIGlkPSJTdmdqc1RzcGFuMjI2OSI+5b2x5ZON5Yiw5Yqf6IO95pWI5p6c55qE5omnPC90c3Bhbj48L3RzcGFuPjx0c3BhbiB4PSI2MCIgZHk9IjE2IiBpZD0iU3ZnanNUc3BhbjIyNzAiPjx0c3BhbiBzdHlsZT0idGV4dC1kZWNvcmF0aW9uOjsiIGlkPSJTdmdqc1RzcGFuMjI3MSI+6KGM77yM5Zug5q2k6KaB5YWI5omn6KGM5bGePC90c3Bhbj48L3RzcGFuPjx0c3BhbiB4PSI2MCIgZHk9IjE2IiBpZD0iU3ZnanNUc3BhbjIyNzIiPjx0c3BhbiBzdHlsZT0idGV4dC1kZWNvcmF0aW9uOjsiIGlkPSJTdmdqc1RzcGFuMjI3MyI+5oCn5pWI5p6cPC90c3Bhbj48L3RzcGFuPjwvdGV4dD48L2c+PC9nPjxnIHRyYW5zZm9ybT0idHJhbnNsYXRlKDY5OCw4OTcpIiBpZD0iU3ZnanNHMjI3NCI+PHBhdGggZmlsbD0ibm9uZSIgc3Ryb2tlPSJub25lIiBkPSJNIDAgMEwgMTIwIDBMIDEyMCA0MEwgMCA0MFoiIGlkPSJTdmdqc1BhdGgyMjc1Ii8+PGcgaWQ9IlN2Z2pzRzIyNzYiPjx0ZXh0IHRyYW5zZm9ybT0icm90YXRlKDApIiB5PSItNy4xMjUiIG9wYWNpdHk9IjEiIGZvbnQtc3R5bGU9IiIgc2l6ZT0iMTNweCIgYWxpZ249Im1pZGRsZSIgZm9udC13ZWlnaHQ9IjQwMCIgZmlsbD0iIzAwMDAwMCIgd2lkdGg9IjEyMHB4IiBmb250LXNpemU9IjEzcHgiIHRleHQtYW5jaG9yPSJtaWRkbGUiIGZvbnQtZmFtaWx5PSLlvq7ova/pm4Xpu5EiIGlkPSJTdmdqc1RleHQyMjc3Ij48dHNwYW4geD0iNjAiIGR5PSIxNiIgaWQ9IlN2Z2pzVHNwYW4yMjc4Ij48dHNwYW4gc3R5bGU9InRleHQtZGVjb3JhdGlvbjo7IiBpZD0iU3ZnanNUc3BhbjIyNzkiPuinpuWPkeaUu+WHu+WPl+WHu+aViOaenOaViDwvdHNwYW4+PC90c3Bhbj48dHNwYW4geD0iNjAiIGR5PSIxNiIgaWQ9IlN2Z2pzVHNwYW4yMjgwIj48dHNwYW4gc3R5bGU9InRleHQtZGVjb3JhdGlvbjo7IiBpZD0iU3ZnanNUc3BhbjIyODEiPuaenO+8jOS6i+S7tuetieetieWFtuS7luezuzwvdHNwYW4+PC90c3Bhbj48dHNwYW4geD0iNjAiIGR5PSIxNiIgaWQ9IlN2Z2pzVHNwYW4yMjgyIj48dHNwYW4gc3R5bGU9InRleHQtZGVjb3JhdGlvbjo7IiBpZD0iU3ZnanNUc3BhbjIyODMiPue7nzwvdHNwYW4+PC90c3Bhbj48L3RleHQ+PC9nPjwvZz48ZyB0cmFuc2Zvcm09InRyYW5zbGF0ZSgyNzYsMTA0NS41KSIgaWQ9IlN2Z2pzRzIyODQiPjxwYXRoIGZpbGw9IiNmZmZmZmYiIGZpbGwtb3BhY2l0eT0iMSIgc3Ryb2tlLXdpZHRoPSIyIiBzdHJva2U9InJnYmEoNTAsNTAsNTAsMSkiIGQ9Ik0gMCA0MEwgNjAgMEwgMTIwIDQwTCA2MCA4MFoiIGlkPSJTdmdqc1BhdGgyMjg1Ii8+PGcgaWQ9IlN2Z2pzRzIyODYiPjx0ZXh0IHRyYW5zZm9ybT0icm90YXRlKDApIiB5PSIyMS4yNzUiIG9wYWNpdHk9IjEiIGZvbnQtc3R5bGU9IiIgc2l6ZT0iMTNweCIgYWxpZ249Im1pZGRsZSIgZm9udC13ZWlnaHQ9IjQwMCIgZmlsbD0iIzAwMDAwMCIgd2lkdGg9IjEwMHB4IiBmb250LXNpemU9IjEzcHgiIHRleHQtYW5jaG9yPSJtaWRkbGUiIGZvbnQtZmFtaWx5PSLlvq7ova/pm4Xpu5EiIGlkPSJTdmdqc1RleHQyMjg3Ij48dHNwYW4geD0iNjAiIGR5PSIxNiIgaWQ9IlN2Z2pzVHNwYW4yMjg4Ij48dHNwYW4gc3R5bGU9InRleHQtZGVjb3JhdGlvbjo7IiBpZD0iU3ZnanNUc3BhbjIyODkiPuWcsOWbvuaYr+WQpuWFgeiuuOaUvjwvdHNwYW4+PC90c3Bhbj48dHNwYW4geD0iNjAiIGR5PSIxNiIgaWQ9IlN2Z2pzVHNwYW4yMjkwIj48dHNwYW4gc3R5bGU9InRleHQtZGVjb3JhdGlvbjo7IiBpZD0iU3ZnanNUc3BhbjIyOTEiPuaKgOiDvTwvdHNwYW4+PC90c3Bhbj48L3RleHQ+PC9nPjwvZz48ZyB0cmFuc2Zvcm09InRyYW5zbGF0ZSg0NzQsMTA0NS41KSIgaWQ9IlN2Z2pzRzIyOTIiPjxwYXRoIGZpbGw9IiNmZmZmZmYiIGZpbGwtb3BhY2l0eT0iMSIgc3Ryb2tlLXdpZHRoPSIyIiBzdHJva2U9InJnYmEoNTAsNTAsNTAsMSkiIGQ9Ik0gMCA0MEwgNjAgMEwgMTIwIDQwTCA2MCA4MFoiIGlkPSJTdmdqc1BhdGgyMjkzIi8+PGcgaWQ9IlN2Z2pzRzIyOTQiPjx0ZXh0IHRyYW5zZm9ybT0icm90YXRlKDApIiB5PSIyMS4yNzUiIG9wYWNpdHk9IjEiIGZvbnQtc3R5bGU9IiIgc2l6ZT0iMTNweCIgYWxpZ249Im1pZGRsZSIgZm9udC13ZWlnaHQ9IjQwMCIgZmlsbD0iIzAwMDAwMCIgd2lkdGg9IjEwMHB4IiBmb250LXNpemU9IjEzcHgiIHRleHQtYW5jaG9yPSJtaWRkbGUiIGZvbnQtZmFtaWx5PSLlvq7ova/pm4Xpu5EiIGlkPSJTdmdqc1RleHQyMjk1Ij48dHNwYW4geD0iNjAiIGR5PSIxNiIgaWQ9IlN2Z2pzVHNwYW4yMjk2Ij48dHNwYW4gc3R5bGU9InRleHQtZGVjb3JhdGlvbjo7IiBpZD0iU3ZnanNUc3BhbjIyOTciPuaWveazleWvueixoeaYr+WQpuiHqjwvdHNwYW4+PC90c3Bhbj48dHNwYW4geD0iNjAiIGR5PSIxNiIgaWQ9IlN2Z2pzVHNwYW4yMjk4Ij48dHNwYW4gc3R5bGU9InRleHQtZGVjb3JhdGlvbjo7IiBpZD0iU3ZnanNUc3BhbjIyOTkiPuW3seaIluWuoOeJqTwvdHNwYW4+PC90c3Bhbj48L3RleHQ+PC9nPjwvZz48ZyBpZD0iU3ZnanNHMjMwMCI+PHBhdGggbWFya2VyLWVuZD0idXJsKCNTdmdqc01hcmtlcjIzMDIpIiBmaWxsPSJub25lIiBzdHJva2Utd2lkdGg9IjIiIHN0cm9rZT0iIzMyMzIzMiIgZD0iTTM5NyAxMDg1LjVMNDM1IDEwODUuNUw0MzUgMTA4NS41TDQ3MC40IDEwODUuNSIgaWQ9IlN2Z2pzUGF0aDIzMDEiLz48cmVjdCBmaWxsPSIjZmZmZmZmIiB5PSIxMDc3LjUiIHg9IjQyNy4yIiBoZWlnaHQ9IjE2IiB3aWR0aD0iMTMiIGlkPSJTdmdqc1JlY3QyMzA0Ii8+PHRleHQgdHJhbnNmb3JtPSJyb3RhdGUoMCkiIHk9IjEwNzQuODc1IiBvcGFjaXR5PSIxIiBmb250LXN0eWxlPSIiIHNpemU9IjEzcHgiIGFsaWduPSJ0b3AiIGZvbnQtd2VpZ2h0PSI0MDAiIGZpbGw9IiMwMDAwMDAiIHdpZHRoPSIxM3B4IiBmb250LXNpemU9IjEzcHgiIHRleHQtYW5jaG9yPSJtaWRkbGUiIGZvbnQtZmFtaWx5PSLlvq7ova/pm4Xpu5EiIGlkPSJTdmdqc1RleHQyMzA1Ij48dHNwYW4geD0iNDMzLjciIGR5PSIxNiIgaWQ9IlN2Z2pzVHNwYW4yMzA2Ij48dHNwYW4gc3R5bGU9InRleHQtZGVjb3JhdGlvbjo7IiBpZD0iU3ZnanNUc3BhbjIzMDciPuaYrzwvdHNwYW4+PC90c3Bhbj48L3RleHQ+PC9nPjxnIHRyYW5zZm9ybT0idHJhbnNsYXRlKDcxNSwxMTYxLjUpIiBpZD0iU3ZnanNHMjMwOCI+PHBhdGggZmlsbD0iI2ZmZmZmZiIgZmlsbC1vcGFjaXR5PSIxIiBzdHJva2Utd2lkdGg9IjIiIHN0cm9rZT0icmdiYSg1MCw1MCw1MCwxKSIgZD0iTSAwIDQwTCA2MCAwTCAxMjAgNDBMIDYwIDgwWiIgaWQ9IlN2Z2pzUGF0aDIzMDkiLz48ZyBpZD0iU3ZnanNHMjMxMCI+PHRleHQgdHJhbnNmb3JtPSJyb3RhdGUoMCkiIHk9IjIxLjI3NSIgb3BhY2l0eT0iMSIgZm9udC1zdHlsZT0iIiBzaXplPSIxM3B4IiBhbGlnbj0ibWlkZGxlIiBmb250LXdlaWdodD0iNDAwIiBmaWxsPSIjMDAwMDAwIiB3aWR0aD0iMTAwcHgiIGZvbnQtc2l6ZT0iMTNweCIgdGV4dC1hbmNob3I9Im1pZGRsZSIgZm9udC1mYW1pbHk9IuW+rui9r+mbhem7kSIgaWQ9IlN2Z2pzVGV4dDIzMTEiPjx0c3BhbiB4PSI2MCIgZHk9IjE2IiBpZD0iU3ZnanNUc3BhbjIzMTIiPjx0c3BhbiBzdHlsZT0idGV4dC1kZWNvcmF0aW9uOjsiIGlkPSJTdmdqc1RzcGFuMjMxMyI+5piv5ZCm56aB5q2i5L2/55So5oqAPC90c3Bhbj48L3RzcGFuPjx0c3BhbiB4PSI2MCIgZHk9IjE2IiBpZD0iU3ZnanNUc3BhbjIzMTQiPjx0c3BhbiBzdHlsZT0idGV4dC1kZWNvcmF0aW9uOjsiIGlkPSJTdmdqc1RzcGFuMjMxNSI+6IO977yI6KKr5rKJ6buY77yf77yJPC90c3Bhbj48L3RzcGFuPjwvdGV4dD48L2c+PC9nPjxnIHRyYW5zZm9ybT0idHJhbnNsYXRlKDcyNSwxMDUwLjUpIiBpZD0iU3ZnanNHMjMxNiI+PHBhdGggZmlsbD0iI2ZmZmZmZiIgZmlsbC1vcGFjaXR5PSIxIiBzdHJva2Utd2lkdGg9IjIiIHN0cm9rZT0icmdiYSg1MCw1MCw1MCwxKSIgZD0iTSAwIDBMIDEwMCAwTCAxMDAgNzBMIDAgNzBaIiBpZD0iU3ZnanNQYXRoMjMxNyIvPjxnIGlkPSJTdmdqc0cyMzE4Ij48dGV4dCB0cmFuc2Zvcm09InJvdGF0ZSgwKSIgeT0iMTUuODc1IiBvcGFjaXR5PSIxIiBmb250LXN0eWxlPSIiIHNpemU9IjEzcHgiIGFsaWduPSJtaWRkbGUiIGZvbnQtd2VpZ2h0PSI0MDAiIGZpbGw9IiMwMDAwMDAiIHdpZHRoPSI4MHB4IiBmb250LXNpemU9IjEzcHgiIHRleHQtYW5jaG9yPSJtaWRkbGUiIGZvbnQtZmFtaWx5PSLlvq7ova/pm4Xpu5EiIGlkPSJTdmdqc1RleHQyMzE5Ij48dHNwYW4geD0iNTAiIGR5PSIxNiIgaWQ9IlN2Z2pzVHNwYW4yMzIwIj48dHNwYW4gc3R5bGU9InRleHQtZGVjb3JhdGlvbjo7IiBpZD0iU3ZnanNUc3BhbjIzMjEiPuaKgOiDveWHhuWkhyDlkJ88L3RzcGFuPjwvdHNwYW4+PHRzcGFuIHg9IjUwIiBkeT0iMTYiIGlkPSJTdmdqc1RzcGFuMjMyMiI+PHRzcGFuIHN0eWxlPSJ0ZXh0LWRlY29yYXRpb246OyIgaWQ9IlN2Z2pzVHNwYW4yMzIzIj7llLEv5byV5a+8PC90c3Bhbj48L3RzcGFuPjwvdGV4dD48L2c+PC9nPjxnIGlkPSJTdmdqc0cyMzI0Ij48cGF0aCBtYXJrZXItZW5kPSJ1cmwoI1N2Z2pzTWFya2VyMjMyNikiIGZpbGw9Im5vbmUiIHN0cm9rZS13aWR0aD0iMiIgc3Ryb2tlPSIjMzIzMjMyIiBkPSJNNTk1IDEwODUuNUw2NTkuNSAxMDg1LjVMNjU5LjUgMTA4NS41TDcyMS40IDEwODUuNSIgaWQ9IlN2Z2pzUGF0aDIzMjUiLz48cmVjdCBmaWxsPSIjZmZmZmZmIiB5PSIxMDc3LjUiIHg9IjY1MS43IiBoZWlnaHQ9IjE2IiB3aWR0aD0iMTMiIGlkPSJTdmdqc1JlY3QyMzI4Ii8+PHRleHQgdHJhbnNmb3JtPSJyb3RhdGUoMCkiIHk9IjEwNzQuODc1IiBvcGFjaXR5PSIxIiBmb250LXN0eWxlPSIiIHNpemU9IjEzcHgiIGFsaWduPSJ0b3AiIGZvbnQtd2VpZ2h0PSI0MDAiIGZpbGw9IiMwMDAwMDAiIHdpZHRoPSIxM3B4IiBmb250LXNpemU9IjEzcHgiIHRleHQtYW5jaG9yPSJtaWRkbGUiIGZvbnQtZmFtaWx5PSLlvq7ova/pm4Xpu5EiIGlkPSJTdmdqc1RleHQyMzI5Ij48dHNwYW4geD0iNjU4LjIiIGR5PSIxNiIgaWQ9IlN2Z2pzVHNwYW4yMzMwIj48dHNwYW4gc3R5bGU9InRleHQtZGVjb3JhdGlvbjo7IiBpZD0iU3ZnanNUc3BhbjIzMzEiPuaYrzwvdHNwYW4+PC90c3Bhbj48L3RleHQ+PC9nPjxnIGlkPSJTdmdqc0cyMzMyIj48cGF0aCBtYXJrZXItZW5kPSJ1cmwoI1N2Z2pzTWFya2VyMjMzNCkiIGZpbGw9Im5vbmUiIHN0cm9rZS13aWR0aD0iMiIgc3Ryb2tlPSIjMzIzMjMyIiBkPSJNNzc1IDExMjEuNUw3NzUgMTE0MUw3NzUgMTE0MUw3NzUgMTE1Ny45IiBpZD0iU3ZnanNQYXRoMjMzMyIvPjwvZz48ZyB0cmFuc2Zvcm09InRyYW5zbGF0ZSg0ODQsMTE1OC41KSIgaWQ9IlN2Z2pzRzIzMzYiPjxwYXRoIGZpbGw9IiNmZmZmZmYiIGZpbGwtb3BhY2l0eT0iMSIgc3Ryb2tlLXdpZHRoPSIyIiBzdHJva2U9InJnYmEoNTAsNTAsNTAsMSkiIGQ9Ik0gMCA0MEwgNjAgMEwgMTIwIDQwTCA2MCA4MFoiIGlkPSJTdmdqc1BhdGgyMzM3Ii8+PGcgaWQ9IlN2Z2pzRzIzMzgiPjx0ZXh0IHRyYW5zZm9ybT0icm90YXRlKDApIiB5PSIyMS4yNzUiIG9wYWNpdHk9IjEiIGZvbnQtc3R5bGU9IiIgc2l6ZT0iMTNweCIgYWxpZ249Im1pZGRsZSIgZm9udC13ZWlnaHQ9IjQwMCIgZmlsbD0iIzAwMDAwMCIgd2lkdGg9IjEwMHB4IiBmb250LXNpemU9IjEzcHgiIHRleHQtYW5jaG9yPSJtaWRkbGUiIGZvbnQtZmFtaWx5PSLlvq7ova/pm4Xpu5EiIGlkPSJTdmdqc1RleHQyMzM5Ij48dHNwYW4geD0iNjAiIGR5PSIxNiIgaWQ9IlN2Z2pzVHNwYW4yMzQwIj48dHNwYW4gc3R5bGU9InRleHQtZGVjb3JhdGlvbjo7IiBpZD0iU3ZnanNUc3BhbjIzNDEiPuaYr+WQpuWFjeeWq+aOp+WItueKtjwvdHNwYW4+PC90c3Bhbj48dHNwYW4geD0iNjAiIGR5PSIxNiIgaWQ9IlN2Z2pzVHNwYW4yMzQyIj48dHNwYW4gc3R5bGU9InRleHQtZGVjb3JhdGlvbjo7IiBpZD0iU3ZnanNUc3BhbjIzNDMiPuaAgTwvdHNwYW4+PC90c3Bhbj48L3RleHQ+PC9nPjwvZz48ZyB0cmFuc2Zvcm09InRyYW5zbGF0ZSg0ODQsMTI3Ny41KSIgaWQ9IlN2Z2pzRzIzNDQiPjxwYXRoIGZpbGw9IiNmZmZmZmYiIGZpbGwtb3BhY2l0eT0iMSIgc3Ryb2tlLXdpZHRoPSIyIiBzdHJva2U9InJnYmEoNTAsNTAsNTAsMSkiIGQ9Ik0gMCA0MEwgNjAgMEwgMTIwIDQwTCA2MCA4MFoiIGlkPSJTdmdqc1BhdGgyMzQ1Ii8+PGcgaWQ9IlN2Z2pzRzIzNDYiPjx0ZXh0IHRyYW5zZm9ybT0icm90YXRlKDApIiB5PSIyMS4yNzUiIG9wYWNpdHk9IjEiIGZvbnQtc3R5bGU9IiIgc2l6ZT0iMTNweCIgYWxpZ249Im1pZGRsZSIgZm9udC13ZWlnaHQ9IjQwMCIgZmlsbD0iIzAwMDAwMCIgd2lkdGg9IjEwMHB4IiBmb250LXNpemU9IjEzcHgiIHRleHQtYW5jaG9yPSJtaWRkbGUiIGZvbnQtZmFtaWx5PSLlvq7ova/pm4Xpu5EiIGlkPSJTdmdqc1RleHQyMzQ3Ij48dHNwYW4geD0iNjAiIGR5PSIxNiIgaWQ9IlN2Z2pzVHNwYW4yMzQ4Ij48dHNwYW4gc3R5bGU9InRleHQtZGVjb3JhdGlvbjo7IiBpZD0iU3ZnanNUc3BhbjIzNDkiPueOqeWutuW9k+WJjeS4jeWPr+aUuzwvdHNwYW4+PC90c3Bhbj48dHNwYW4geD0iNjAiIGR5PSIxNiIgaWQ9IlN2Z2pzVHNwYW4yMzUwIj48dHNwYW4gc3R5bGU9InRleHQtZGVjb3JhdGlvbjo7IiBpZD0iU3ZnanNUc3BhbjIzNTEiPuWHuzwvdHNwYW4+PC90c3Bhbj48L3RleHQ+PC9nPjwvZz48ZyBpZD0iU3ZnanNHMjM1MiI+PHBhdGggbWFya2VyLWVuZD0idXJsKCNTdmdqc01hcmtlcjIzNTQpIiBmaWxsPSJub25lIiBzdHJva2Utd2lkdGg9IjIiIHN0cm9rZT0iIzMyMzIzMiIgZD0iTTcxNCAxMjAxLjVMNjU5LjUgMTIwMS41TDY1OS41IDExOTguNUw2MDcuNiAxMTk4LjUiIGlkPSJTdmdqc1BhdGgyMzUzIi8+PHJlY3QgZmlsbD0iI2ZmZmZmZiIgeT0iMTE5My4zMDAwMDAwMDAwMDAyIiB4PSI2NTMiIGhlaWdodD0iMTYiIHdpZHRoPSIxMyIgaWQ9IlN2Z2pzUmVjdDIzNTYiLz48dGV4dCB0cmFuc2Zvcm09InJvdGF0ZSgwKSIgeT0iMTE5MC42NzUwMDAwMDAwMDAyIiBvcGFjaXR5PSIxIiBmb250LXN0eWxlPSIiIHNpemU9IjEzcHgiIGFsaWduPSJ0b3AiIGZvbnQtd2VpZ2h0PSI0MDAiIGZpbGw9IiMwMDAwMDAiIHdpZHRoPSIxM3B4IiBmb250LXNpemU9IjEzcHgiIHRleHQtYW5jaG9yPSJtaWRkbGUiIGZvbnQtZmFtaWx5PSLlvq7ova/pm4Xpu5EiIGlkPSJTdmdqc1RleHQyMzU3Ij48dHNwYW4geD0iNjU5LjUiIGR5PSIxNiIgaWQ9IlN2Z2pzVHNwYW4yMzU4Ij48dHNwYW4gc3R5bGU9InRleHQtZGVjb3JhdGlvbjo7IiBpZD0iU3ZnanNUc3BhbjIzNTkiPuWQpjwvdHNwYW4+PC90c3Bhbj48L3RleHQ+PC9nPjxnIHRyYW5zZm9ybT0idHJhbnNsYXRlKDkyMCwxMjI4LjUpIiBpZD0iU3ZnanNHMjM2MCI+PHBhdGggZmlsbD0iI2ZmZmZmZiIgZmlsbC1vcGFjaXR5PSIxIiBzdHJva2Utd2lkdGg9IjIiIHN0cm9rZT0icmdiYSg1MCw1MCw1MCwxKSIgZD0iTSAwIDBMIDEwMCAwTCAxMDAgNzBMIDAgNzBaIiBpZD0iU3ZnanNQYXRoMjM2MSIvPjxnIGlkPSJTdmdqc0cyMzYyIj48dGV4dCB0cmFuc2Zvcm09InJvdGF0ZSgwKSIgeT0iMjQuMzc1IiBvcGFjaXR5PSIxIiBmb250LXN0eWxlPSIiIHNpemU9IjEzcHgiIGFsaWduPSJtaWRkbGUiIGZvbnQtd2VpZ2h0PSI0MDAiIGZpbGw9IiMwMDAwMDAiIHdpZHRoPSI4MHB4IiBmb250LXNpemU9IjEzcHgiIHRleHQtYW5jaG9yPSJtaWRkbGUiIGZvbnQtZmFtaWx5PSLlvq7ova/pm4Xpu5EiIGlkPSJTdmdqc1RleHQyMzYzIj48dHNwYW4geD0iNTAiIGR5PSIxNiIgaWQ9IlN2Z2pzVHNwYW4yMzY0Ij48dHNwYW4gc3R5bGU9InRleHQtZGVjb3JhdGlvbjo7IiBpZD0iU3ZnanNUc3BhbjIzNjUiPuaWveazleWksei0pTwvdHNwYW4+PC90c3Bhbj48L3RleHQ+PC9nPjwvZz48ZyB0cmFuc2Zvcm09InRyYW5zbGF0ZSg5OSwxMDUwLjUpIiBpZD0iU3ZnanNHMjM2NiI+PHBhdGggZmlsbD0iI2ZmZmZmZiIgZmlsbC1vcGFjaXR5PSIxIiBzdHJva2Utd2lkdGg9IjIiIHN0cm9rZT0icmdiYSg1MCw1MCw1MCwxKSIgZD0iTSAwIDBMIDEwMCAwTCAxMDAgNzBMIDAgNzBaIiBpZD0iU3ZnanNQYXRoMjM2NyIvPjxnIGlkPSJTdmdqc0cyMzY4Ij48dGV4dCB0cmFuc2Zvcm09InJvdGF0ZSgwKSIgeT0iMTUuODc1IiBvcGFjaXR5PSIxIiBmb250LXN0eWxlPSIiIHNpemU9IjEzcHgiIGFsaWduPSJtaWRkbGUiIGZvbnQtd2VpZ2h0PSI0MDAiIGZpbGw9IiMwMDAwMDAiIHdpZHRoPSI4MHB4IiBmb250LXNpemU9IjEzcHgiIHRleHQtYW5jaG9yPSJtaWRkbGUiIGZvbnQtZmFtaWx5PSLlvq7ova/pm4Xpu5EiIGlkPSJTdmdqc1RleHQyMzY5Ij48dHNwYW4geD0iNTAiIGR5PSIxNiIgaWQ9IlN2Z2pzVHNwYW4yMzcwIj48dHNwYW4gc3R5bGU9InRleHQtZGVjb3JhdGlvbjo7IiBpZD0iU3ZnanNUc3BhbjIzNzEiPiDmioDog73liqjkvZxDUzwvdHNwYW4+PC90c3Bhbj48dHNwYW4geD0iNTAiIGR5PSIxNiIgaWQ9IlN2Z2pzVHNwYW4yMzcyIj48dHNwYW4gc3R5bGU9InRleHQtZGVjb3JhdGlvbjo7IiBpZD0iU3ZnanNUc3BhbjIzNzMiPuWMhTwvdHNwYW4+PC90c3Bhbj48L3RleHQ+PC9nPjwvZz48ZyBpZD0iU3ZnanNHMjM3NCI+PHBhdGggbWFya2VyLWVuZD0idXJsKCNTdmdqc01hcmtlcjIzNzYpIiBmaWxsPSJub25lIiBzdHJva2Utd2lkdGg9IjIiIHN0cm9rZT0iIzMyMzIzMiIgZD0iTTIwMCAxMDg1LjVMMjM3LjUgMTA4NS41TDIzNy41IDEwODUuNUwyNzIuNCAxMDg1LjUiIGlkPSJTdmdqc1BhdGgyMzc1Ii8+PC9nPjxnIHRyYW5zZm9ybT0idHJhbnNsYXRlKDI3MywxMTU4LjUpIiBpZD0iU3ZnanNHMjM3OCI+PHBhdGggZmlsbD0iI2ZmZmZmZiIgZmlsbC1vcGFjaXR5PSIxIiBzdHJva2Utd2lkdGg9IjIiIHN0cm9rZT0icmdiYSg1MCw1MCw1MCwxKSIgZD0iTSAwIDQwTCA2MCAwTCAxMjAgNDBMIDYwIDgwWiIgaWQ9IlN2Z2pzUGF0aDIzNzkiLz48ZyBpZD0iU3ZnanNHMjM4MCI+PHRleHQgdHJhbnNmb3JtPSJyb3RhdGUoMCkiIHk9IjI5Ljc3NSIgb3BhY2l0eT0iMSIgZm9udC1zdHlsZT0iIiBzaXplPSIxM3B4IiBhbGlnbj0ibWlkZGxlIiBmb250LXdlaWdodD0iNDAwIiBmaWxsPSIjMDAwMDAwIiB3aWR0aD0iMTAwcHgiIGZvbnQtc2l6ZT0iMTNweCIgdGV4dC1hbmNob3I9Im1pZGRsZSIgZm9udC1mYW1pbHk9IuW+rui9r+mbhem7kSIgaWQ9IlN2Z2pzVGV4dDIzODEiPjx0c3BhbiB4PSI2MCIgZHk9IjE2IiBpZD0iU3ZnanNUc3BhbjIzODIiPjx0c3BhbiBzdHlsZT0idGV4dC1kZWNvcmF0aW9uOjsiIGlkPSJTdmdqc1RzcGFuMjM4MyI+5oqA6IO9Q0Q8L3RzcGFuPjwvdHNwYW4+PC90ZXh0PjwvZz48L2c+PGcgdHJhbnNmb3JtPSJ0cmFuc2xhdGUoODksMTE1OC41KSIgaWQ9IlN2Z2pzRzIzODQiPjxwYXRoIGZpbGw9IiNmZmZmZmYiIGZpbGwtb3BhY2l0eT0iMSIgc3Ryb2tlLXdpZHRoPSIyIiBzdHJva2U9InJnYmEoNTAsNTAsNTAsMSkiIGQ9Ik0gMCA0MEwgNjAgMEwgMTIwIDQwTCA2MCA4MFoiIGlkPSJTdmdqc1BhdGgyMzg1Ii8+PGcgaWQ9IlN2Z2pzRzIzODYiPjx0ZXh0IHRyYW5zZm9ybT0icm90YXRlKDApIiB5PSIyOS43NzUiIG9wYWNpdHk9IjEiIGZvbnQtc3R5bGU9IiIgc2l6ZT0iMTNweCIgYWxpZ249Im1pZGRsZSIgZm9udC13ZWlnaHQ9IjQwMCIgZmlsbD0iIzAwMDAwMCIgd2lkdGg9IjEwMHB4IiBmb250LXNpemU9IjEzcHgiIHRleHQtYW5jaG9yPSJtaWRkbGUiIGZvbnQtZmFtaWx5PSLlvq7ova/pm4Xpu5EiIGlkPSJTdmdqc1RleHQyMzg3Ij48dHNwYW4geD0iNjAiIGR5PSIxNiIgaWQ9IlN2Z2pzVHNwYW4yMzg4Ij48dHNwYW4gc3R5bGU9InRleHQtZGVjb3JhdGlvbjo7IiBpZD0iU3ZnanNUc3BhbjIzODkiPuajgOafpeaKgOiDveadpea6kDwvdHNwYW4+PC90c3Bhbj48L3RleHQ+PC9nPjwvZz48ZyB0cmFuc2Zvcm09InRyYW5zbGF0ZSg4OSwxNDMyLjUpIiBpZD0iU3ZnanNHMjM5MCI+PHBhdGggZmlsbD0iI2ZmZmZmZiIgZmlsbC1vcGFjaXR5PSIxIiBzdHJva2Utd2lkdGg9IjIiIHN0cm9rZT0icmdiYSg1MCw1MCw1MCwxKSIgZD0iTSAwIDQwTCA2MCAwTCAxMjAgNDBMIDYwIDgwWiIgaWQ9IlN2Z2pzUGF0aDIzOTEiLz48ZyBpZD0iU3ZnanNHMjM5MiI+PHRleHQgdHJhbnNmb3JtPSJyb3RhdGUoMCkiIHk9IjI5Ljc3NSIgb3BhY2l0eT0iMSIgZm9udC1zdHlsZT0iIiBzaXplPSIxM3B4IiBhbGlnbj0ibWlkZGxlIiBmb250LXdlaWdodD0iNDAwIiBmaWxsPSIjMDAwMDAwIiB3aWR0aD0iMTAwcHgiIGZvbnQtc2l6ZT0iMTNweCIgdGV4dC1hbmNob3I9Im1pZGRsZSIgZm9udC1mYW1pbHk9IuW+rui9r+mbhem7kSIgaWQ9IlN2Z2pzVGV4dDIzOTMiPjx0c3BhbiB4PSI2MCIgZHk9IjE2IiBpZD0iU3ZnanNUc3BhbjIzOTQiPjx0c3BhbiBzdHlsZT0idGV4dC1kZWNvcmF0aW9uOjsiIGlkPSJTdmdqc1RzcGFuMjM5NSI+5pa95rOV6ICF5piv5ZCm5a2Y5rS7PC90c3Bhbj48L3RzcGFuPjwvdGV4dD48L2c+PC9nPjxnIGlkPSJTdmdqc0cyMzk2Ij48cGF0aCBtYXJrZXItZW5kPSJ1cmwoI1N2Z2pzTWFya2VyMjM5OCkiIGZpbGw9Im5vbmUiIHN0cm9rZS13aWR0aD0iMiIgc3Ryb2tlPSIjMzIzMjMyIiBkPSJNNTQ0IDEyMzkuNUw1NDQgMTI1OEw1NDQgMTI1OEw1NDQgMTI3My45IiBpZD0iU3ZnanNQYXRoMjM5NyIvPjxyZWN0IGZpbGw9IiNmZmZmZmYiIHk9IjEyNDguNyIgeD0iNTM3LjUiIGhlaWdodD0iMTYiIHdpZHRoPSIxMyIgaWQ9IlN2Z2pzUmVjdDI0MDAiLz48dGV4dCB0cmFuc2Zvcm09InJvdGF0ZSgwKSIgeT0iMTI0Ni4wNzUiIG9wYWNpdHk9IjEiIGZvbnQtc3R5bGU9IiIgc2l6ZT0iMTNweCIgYWxpZ249InRvcCIgZm9udC13ZWlnaHQ9IjQwMCIgZmlsbD0iIzAwMDAwMCIgd2lkdGg9IjEzcHgiIGZvbnQtc2l6ZT0iMTNweCIgdGV4dC1hbmNob3I9Im1pZGRsZSIgZm9udC1mYW1pbHk9IuW+rui9r+mbhem7kSIgaWQ9IlN2Z2pzVGV4dDI0MDEiPjx0c3BhbiB4PSI1NDQiIGR5PSIxNiIgaWQ9IlN2Z2pzVHNwYW4yNDAyIj48dHNwYW4gc3R5bGU9InRleHQtZGVjb3JhdGlvbjo7IiBpZD0iU3ZnanNUc3BhbjI0MDMiPuWQpjwvdHNwYW4+PC90c3Bhbj48L3RleHQ+PC9nPjxnIGlkPSJTdmdqc0cyNDA0Ij48cGF0aCBtYXJrZXItZW5kPSJ1cmwoI1N2Z2pzTWFya2VyMjQwNikiIGZpbGw9Im5vbmUiIHN0cm9rZS13aWR0aD0iMiIgc3Ryb2tlPSIjMzIzMjMyIiBkPSJNNDgzIDExOTguNUw0MzguNSAxMTk4LjVMNDM4LjUgMTE5OC41TDM5Ni42IDExOTguNSIgaWQ9IlN2Z2pzUGF0aDI0MDUiLz48cmVjdCBmaWxsPSIjZmZmZmZmIiB5PSIxMTkwLjUiIHg9IjQzMy4zIiBoZWlnaHQ9IjE2IiB3aWR0aD0iMTMiIGlkPSJTdmdqc1JlY3QyNDA4Ii8+PHRleHQgdHJhbnNmb3JtPSJyb3RhdGUoMCkiIHk9IjExODcuODc1IiBvcGFjaXR5PSIxIiBmb250LXN0eWxlPSIiIHNpemU9IjEzcHgiIGFsaWduPSJ0b3AiIGZvbnQtd2VpZ2h0PSI0MDAiIGZpbGw9IiMwMDAwMDAiIHdpZHRoPSIxM3B4IiBmb250LXNpemU9IjEzcHgiIHRleHQtYW5jaG9yPSJtaWRkbGUiIGZvbnQtZmFtaWx5PSLlvq7ova/pm4Xpu5EiIGlkPSJTdmdqc1RleHQyNDA5Ij48dHNwYW4geD0iNDM5LjgiIGR5PSIxNiIgaWQ9IlN2Z2pzVHNwYW4yNDEwIj48dHNwYW4gc3R5bGU9InRleHQtZGVjb3JhdGlvbjo7IiBpZD0iU3ZnanNUc3BhbjI0MTEiPuaYrzwvdHNwYW4+PC90c3Bhbj48L3RleHQ+PC9nPjxnIGlkPSJTdmdqc0cyNDEyIj48cGF0aCBtYXJrZXItZW5kPSJ1cmwoI1N2Z2pzTWFya2VyMjQxNCkiIGZpbGw9Im5vbmUiIHN0cm9rZS13aWR0aD0iMiIgc3Ryb2tlPSIjMzIzMjMyIiBkPSJNNDgzIDEzMTcuNUw0MzguNSAxMzE3LjVMNDM4LjUgMTE5OC41TDM5Ni42IDExOTguNSIgaWQ9IlN2Z2pzUGF0aDI0MTMiLz48cmVjdCBmaWxsPSIjZmZmZmZmIiB5PSIxMjUxLjMiIHg9IjQzMiIgaGVpZ2h0PSIxNiIgd2lkdGg9IjEzIiBpZD0iU3ZnanNSZWN0MjQxNiIvPjx0ZXh0IHRyYW5zZm9ybT0icm90YXRlKDApIiB5PSIxMjQ4LjY3NSIgb3BhY2l0eT0iMSIgZm9udC1zdHlsZT0iIiBzaXplPSIxM3B4IiBhbGlnbj0idG9wIiBmb250LXdlaWdodD0iNDAwIiBmaWxsPSIjMDAwMDAwIiB3aWR0aD0iMTNweCIgZm9udC1zaXplPSIxM3B4IiB0ZXh0LWFuY2hvcj0ibWlkZGxlIiBmb250LWZhbWlseT0i5b6u6L2v6ZuF6buRIiBpZD0iU3ZnanNUZXh0MjQxNyI+PHRzcGFuIHg9IjQzOC41IiBkeT0iMTYiIGlkPSJTdmdqc1RzcGFuMjQxOCI+PHRzcGFuIHN0eWxlPSJ0ZXh0LWRlY29yYXRpb246OyIgaWQ9IlN2Z2pzVHNwYW4yNDE5Ij7lkKY8L3RzcGFuPjwvdHNwYW4+PC90ZXh0PjwvZz48ZyBpZD0iU3ZnanNHMjQyMCI+PHBhdGggbWFya2VyLWVuZD0idXJsKCNTdmdqc01hcmtlcjI0MjIpIiBmaWxsPSJub25lIiBzdHJva2Utd2lkdGg9IjIiIHN0cm9rZT0iIzMyMzIzMiIgZD0iTTI3MiAxMTk4LjVMMjQxIDExOTguNUwyNDEgMTE5OC41TDIxMi42IDExOTguNSIgaWQ9IlN2Z2pzUGF0aDI0MjEiLz48cmVjdCBmaWxsPSIjZmZmZmZmIiB5PSIxMTkwLjUiIHg9IjIzNC43OTk5OTk5OTk5OTk5OCIgaGVpZ2h0PSIxNiIgd2lkdGg9IjE1IiBpZD0iU3ZnanNSZWN0MjQyNCIvPjx0ZXh0IHRyYW5zZm9ybT0icm90YXRlKDApIiB5PSIxMTg3Ljg3NSIgb3BhY2l0eT0iMSIgZm9udC1zdHlsZT0iIiBzaXplPSIxM3B4IiBhbGlnbj0idG9wIiBmb250LXdlaWdodD0iNDAwIiBmaWxsPSIjMDAwMDAwIiB3aWR0aD0iMTVweCIgZm9udC1zaXplPSIxM3B4IiB0ZXh0LWFuY2hvcj0ibWlkZGxlIiBmb250LWZhbWlseT0i5b6u6L2v6ZuF6buRIiBpZD0iU3ZnanNUZXh0MjQyNSI+PHRzcGFuIHg9IjI0Mi4yOTk5OTk5OTk5OTk5OCIgZHk9IjE2IiBpZD0iU3ZnanNUc3BhbjI0MjYiPjx0c3BhbiBzdHlsZT0idGV4dC1kZWNvcmF0aW9uOjsiIGlkPSJTdmdqc1RzcGFuMjQyNyI+b2s8L3RzcGFuPjwvdHNwYW4+PC90ZXh0PjwvZz48ZyBpZD0iU3ZnanNHMjQyOCI+PHBhdGggbWFya2VyLWVuZD0idXJsKCNTdmdqc01hcmtlcjI0MzApIiBmaWxsPSJub25lIiBzdHJva2Utd2lkdGg9IjIiIHN0cm9rZT0iIzMyMzIzMiIgZD0iTTE0OSAxMjM5LjVMMTQ5IDEyNzAuNUwxNDkgMTI3MC41TDE0OSAxMjk4LjkiIGlkPSJTdmdqc1BhdGgyNDI5Ii8+PHJlY3QgZmlsbD0iI2ZmZmZmZiIgeT0iMTI2MS4yIiB4PSIxNDEuNSIgaGVpZ2h0PSIxNiIgd2lkdGg9IjE1IiBpZD0iU3ZnanNSZWN0MjQzMiIvPjx0ZXh0IHRyYW5zZm9ybT0icm90YXRlKDApIiB5PSIxMjU4LjU3NSIgb3BhY2l0eT0iMSIgZm9udC1zdHlsZT0iIiBzaXplPSIxM3B4IiBhbGlnbj0idG9wIiBmb250LXdlaWdodD0iNDAwIiBmaWxsPSIjMDAwMDAwIiB3aWR0aD0iMTVweCIgZm9udC1zaXplPSIxM3B4IiB0ZXh0LWFuY2hvcj0ibWlkZGxlIiBmb250LWZhbWlseT0i5b6u6L2v6ZuF6buRIiBpZD0iU3ZnanNUZXh0MjQzMyI+PHRzcGFuIHg9IjE0OSIgZHk9IjE2IiBpZD0iU3ZnanNUc3BhbjI0MzQiPjx0c3BhbiBzdHlsZT0idGV4dC1kZWNvcmF0aW9uOjsiIGlkPSJTdmdqc1RzcGFuMjQzNSI+b2s8L3RzcGFuPjwvdHNwYW4+PC90ZXh0PjwvZz48ZyB0cmFuc2Zvcm09InRyYW5zbGF0ZSgyNTUsMTQzMi41KSIgaWQ9IlN2Z2pzRzI0MzYiPjxwYXRoIGZpbGw9IiNmZmZmZmYiIGZpbGwtb3BhY2l0eT0iMSIgc3Ryb2tlLXdpZHRoPSIyIiBzdHJva2U9InJnYmEoNTAsNTAsNTAsMSkiIGQ9Ik0gMCA0MEwgNjAgMEwgMTIwIDQwTCA2MCA4MFoiIGlkPSJTdmdqc1BhdGgyNDM3Ii8+PGcgaWQ9IlN2Z2pzRzI0MzgiPjx0ZXh0IHRyYW5zZm9ybT0icm90YXRlKDApIiB5PSIyOS43NzUiIG9wYWNpdHk9IjEiIGZvbnQtc3R5bGU9IiIgc2l6ZT0iMTNweCIgYWxpZ249Im1pZGRsZSIgZm9udC13ZWlnaHQ9IjQwMCIgZmlsbD0iIzAwMDAwMCIgd2lkdGg9IjEwMHB4IiBmb250LXNpemU9IjEzcHgiIHRleHQtYW5jaG9yPSJtaWRkbGUiIGZvbnQtZmFtaWx5PSLlvq7ova/pm4Xpu5EiIGlkPSJTdmdqc1RleHQyNDM5Ij48dHNwYW4geD0iNjAiIGR5PSIxNiIgaWQ9IlN2Z2pzVHNwYW4yNDQwIj48dHNwYW4gc3R5bGU9InRleHQtZGVjb3JhdGlvbjo7IiBpZD0iU3ZnanNUc3BhbjI0NDEiPuiAl+iTneajgOafpTwvdHNwYW4+PC90c3Bhbj48L3RleHQ+PC9nPjwvZz48ZyBpZD0iU3ZnanNHMjQ0MiI+PHBhdGggbWFya2VyLWVuZD0idXJsKCNTdmdqc01hcmtlcjI0NDQpIiBmaWxsPSJub25lIiBzdHJva2Utd2lkdGg9IjIiIHN0cm9rZT0iIzMyMzIzMiIgZD0iTTE0OSAxMzczLjVMMTQ5IDE0MDIuNUwxNDkgMTQwMi41TDE0OSAxNDI4LjkiIGlkPSJTdmdqc1BhdGgyNDQzIi8+PHJlY3QgZmlsbD0iI2ZmZmZmZiIgeT0iMTM5My4yIiB4PSIxMzYiIGhlaWdodD0iMTYiIHdpZHRoPSIyNiIgaWQ9IlN2Z2pzUmVjdDI0NDYiLz48dGV4dCB0cmFuc2Zvcm09InJvdGF0ZSgwKSIgeT0iMTM5MC41NzUiIG9wYWNpdHk9IjEiIGZvbnQtc3R5bGU9IiIgc2l6ZT0iMTNweCIgYWxpZ249InRvcCIgZm9udC13ZWlnaHQ9IjQwMCIgZmlsbD0iIzAwMDAwMCIgd2lkdGg9IjI2cHgiIGZvbnQtc2l6ZT0iMTNweCIgdGV4dC1hbmNob3I9Im1pZGRsZSIgZm9udC1mYW1pbHk9IuW+rui9r+mbhem7kSIgaWQ9IlN2Z2pzVGV4dDI0NDciPjx0c3BhbiB4PSIxNDkiIGR5PSIxNiIgaWQ9IlN2Z2pzVHNwYW4yNDQ4Ij48dHNwYW4gc3R5bGU9InRleHQtZGVjb3JhdGlvbjo7IiBpZD0iU3ZnanNUc3BhbjI0NDkiPui9rOaNojwvdHNwYW4+PC90c3Bhbj48L3RleHQ+PC9nPjxnIHRyYW5zZm9ybT0idHJhbnNsYXRlKDk5LDEzMDIuNSkiIGlkPSJTdmdqc0cyNDUwIj48cGF0aCBmaWxsPSIjZmZmZmZmIiBmaWxsLW9wYWNpdHk9IjEiIHN0cm9rZS13aWR0aD0iMiIgc3Ryb2tlPSJyZ2JhKDUwLDUwLDUwLDEpIiBkPSJNIDAgMEwgMTAwIDBMIDEwMCA3MEwgMCA3MFoiIGlkPSJTdmdqc1BhdGgyNDUxIi8+PGcgaWQ9IlN2Z2pzRzI0NTIiPjx0ZXh0IHRyYW5zZm9ybT0icm90YXRlKDApIiB5PSIxNS44NzUiIG9wYWNpdHk9IjEiIGZvbnQtc3R5bGU9IiIgc2l6ZT0iMTNweCIgYWxpZ249Im1pZGRsZSIgZm9udC13ZWlnaHQ9IjQwMCIgZmlsbD0iIzAwMDAwMCIgd2lkdGg9IjgwcHgiIGZvbnQtc2l6ZT0iMTNweCIgdGV4dC1hbmNob3I9Im1pZGRsZSIgZm9udC1mYW1pbHk9IuW+rui9r+mbhem7kSIgaWQ9IlN2Z2pzVGV4dDI0NTMiPjx0c3BhbiB4PSI1MCIgZHk9IjE2IiBpZD0iU3ZnanNUc3BhbjI0NTQiPjx0c3BhbiBzdHlsZT0idGV4dC1kZWNvcmF0aW9uOjsiIGlkPSJTdmdqc1RzcGFuMjQ1NSI+6L2s5o2i5oqA6IO977yM5o2iPC90c3Bhbj48L3RzcGFuPjx0c3BhbiB4PSI1MCIgZHk9IjE2IiBpZD0iU3ZnanNUc3BhbjI0NTYiPjx0c3BhbiBzdHlsZT0idGV4dC1kZWNvcmF0aW9uOjsiIGlkPSJTdmdqc1RzcGFuMjQ1NyI+5oqA6IO9PC90c3Bhbj48L3RzcGFuPjwvdGV4dD48L2c+PC9nPjxnIGlkPSJTdmdqc0cyNDU4Ij48cGF0aCBtYXJrZXItZW5kPSJ1cmwoI1N2Z2pzTWFya2VyMjQ2MCkiIGZpbGw9Im5vbmUiIHN0cm9rZS13aWR0aD0iMiIgc3Ryb2tlPSIjMzIzMjMyIiBkPSJNMjEwIDE0NzIuNUwyMzIgMTQ3Mi41TDIzMiAxNDcyLjVMMjUxLjM5OTk5OTk5OTk5OTk4IDE0NzIuNSIgaWQ9IlN2Z2pzUGF0aDI0NTkiLz48cmVjdCBmaWxsPSIjZmZmZmZmIiB5PSIxNDY0LjUiIHg9IjIyNC4yIiBoZWlnaHQ9IjE2IiB3aWR0aD0iMTMiIGlkPSJTdmdqc1JlY3QyNDYyIi8+PHRleHQgdHJhbnNmb3JtPSJyb3RhdGUoMCkiIHk9IjE0NjEuODc1IiBvcGFjaXR5PSIxIiBmb250LXN0eWxlPSIiIHNpemU9IjEzcHgiIGFsaWduPSJ0b3AiIGZvbnQtd2VpZ2h0PSI0MDAiIGZpbGw9IiMwMDAwMDAiIHdpZHRoPSIxM3B4IiBmb250LXNpemU9IjEzcHgiIHRleHQtYW5jaG9yPSJtaWRkbGUiIGZvbnQtZmFtaWx5PSLlvq7ova/pm4Xpu5EiIGlkPSJTdmdqc1RleHQyNDYzIj48dHNwYW4geD0iMjMwLjciIGR5PSIxNiIgaWQ9IlN2Z2pzVHNwYW4yNDY0Ij48dHNwYW4gc3R5bGU9InRleHQtZGVjb3JhdGlvbjo7IiBpZD0iU3ZnanNUc3BhbjI0NjUiPuaYrzwvdHNwYW4+PC90c3Bhbj48L3RleHQ+PC9nPjxnIGlkPSJTdmdqc0cyNDY2Ij48cGF0aCBtYXJrZXItZW5kPSJ1cmwoI1N2Z2pzTWFya2VyMjQ2OCkiIGZpbGw9Im5vbmUiIHN0cm9rZS13aWR0aD0iMiIgc3Ryb2tlPSIjMzIzMjMyIiBkPSJNMzc2IDE0NzIuNUw0MDIgMTQ3Mi41TDQwMiAxNDcyLjVMNDI1LjQgMTQ3Mi41IiBpZD0iU3ZnanNQYXRoMjQ2NyIvPjxyZWN0IGZpbGw9IiNmZmZmZmYiIHk9IjE0NjQuNSIgeD0iMzkzLjIiIGhlaWdodD0iMTYiIHdpZHRoPSIxNSIgaWQ9IlN2Z2pzUmVjdDI0NzAiLz48dGV4dCB0cmFuc2Zvcm09InJvdGF0ZSgwKSIgeT0iMTQ2MS44NzUiIG9wYWNpdHk9IjEiIGZvbnQtc3R5bGU9IiIgc2l6ZT0iMTNweCIgYWxpZ249InRvcCIgZm9udC13ZWlnaHQ9IjQwMCIgZmlsbD0iIzAwMDAwMCIgd2lkdGg9IjE1cHgiIGZvbnQtc2l6ZT0iMTNweCIgdGV4dC1hbmNob3I9Im1pZGRsZSIgZm9udC1mYW1pbHk9IuW+rui9r+mbhem7kSIgaWQ9IlN2Z2pzVGV4dDI0NzEiPjx0c3BhbiB4PSI0MDAuNyIgZHk9IjE2IiBpZD0iU3ZnanNUc3BhbjI0NzIiPjx0c3BhbiBzdHlsZT0idGV4dC1kZWNvcmF0aW9uOjsiIGlkPSJTdmdqc1RzcGFuMjQ3MyI+b2s8L3RzcGFuPjwvdHNwYW4+PC90ZXh0PjwvZz48ZyB0cmFuc2Zvcm09InRyYW5zbGF0ZSg0MjksMTQzMi41KSIgaWQ9IlN2Z2pzRzI0NzQiPjxwYXRoIGZpbGw9IiNmZmZmZmYiIGZpbGwtb3BhY2l0eT0iMSIgc3Ryb2tlLXdpZHRoPSIyIiBzdHJva2U9InJnYmEoNTAsNTAsNTAsMSkiIGQ9Ik0gMCA0MEwgNjAgMEwgMTIwIDQwTCA2MCA4MFoiIGlkPSJTdmdqc1BhdGgyNDc1Ii8+PGcgaWQ9IlN2Z2pzRzI0NzYiPjx0ZXh0IHRyYW5zZm9ybT0icm90YXRlKDApIiB5PSIyMS4yNzUiIG9wYWNpdHk9IjEiIGZvbnQtc3R5bGU9IiIgc2l6ZT0iMTNweCIgYWxpZ249Im1pZGRsZSIgZm9udC13ZWlnaHQ9IjQwMCIgZmlsbD0iIzAwMDAwMCIgd2lkdGg9IjEwMHB4IiBmb250LXNpemU9IjEzcHgiIHRleHQtYW5jaG9yPSJtaWRkbGUiIGZvbnQtZmFtaWx5PSLlvq7ova/pm4Xpu5EiIGlkPSJTdmdqc1RleHQyNDc3Ij48dHNwYW4geD0iNjAiIGR5PSIxNiIgaWQ9IlN2Z2pzVHNwYW4yNDc4Ij48dHNwYW4gc3R5bGU9InRleHQtZGVjb3JhdGlvbjo7IiBpZD0iU3ZnanNUc3BhbjI0NzkiPueJueauiuaKgOiDve+8jOWmguaMhzwvdHNwYW4+PC90c3Bhbj48dHNwYW4geD0iNjAiIGR5PSIxNiIgaWQ9IlN2Z2pzVHNwYW4yNDgwIj48dHNwYW4gc3R5bGU9InRleHQtZGVjb3JhdGlvbjo7IiBpZD0iU3ZnanNUc3BhbjI0ODEiPuWumuWPrOWUpOeJqTwvdHNwYW4+PC90c3Bhbj48L3RleHQ+PC9nPjwvZz48ZyB0cmFuc2Zvcm09InRyYW5zbGF0ZSg2MTEsMTQzNy41KSIgaWQ9IlN2Z2pzRzI0ODIiPjxwYXRoIGZpbGw9IiNmZmZmZmYiIGZpbGwtb3BhY2l0eT0iMSIgc3Ryb2tlLXdpZHRoPSIyIiBzdHJva2U9InJnYmEoNTAsNTAsNTAsMSkiIGQ9Ik0gMCAwTCAxMDAgMEwgMTAwIDcwTCAwIDcwWiIgaWQ9IlN2Z2pzUGF0aDI0ODMiLz48ZyBpZD0iU3ZnanNHMjQ4NCI+PHRleHQgdHJhbnNmb3JtPSJyb3RhdGUoMCkiIHk9IjE1Ljg3NSIgb3BhY2l0eT0iMSIgZm9udC1zdHlsZT0iIiBzaXplPSIxM3B4IiBhbGlnbj0ibWlkZGxlIiBmb250LXdlaWdodD0iNDAwIiBmaWxsPSIjMDAwMDAwIiB3aWR0aD0iODBweCIgZm9udC1zaXplPSIxM3B4IiB0ZXh0LWFuY2hvcj0ibWlkZGxlIiBmb250LWZhbWlseT0i5b6u6L2v6ZuF6buRIiBpZD0iU3ZnanNUZXh0MjQ4NSI+PHRzcGFuIHg9IjUwIiBkeT0iMTYiIGlkPSJTdmdqc1RzcGFuMjQ4NiI+PHRzcGFuIHN0eWxlPSJ0ZXh0LWRlY29yYXRpb246OyIgaWQ9IlN2Z2pzVHNwYW4yNDg3Ij7liLfmlrDmlLvlh7vogIXkvY08L3RzcGFuPjwvdHNwYW4+PHRzcGFuIHg9IjUwIiBkeT0iMTYiIGlkPSJTdmdqc1RzcGFuMjQ4OCI+PHRzcGFuIHN0eWxlPSJ0ZXh0LWRlY29yYXRpb246OyIgaWQ9IlN2Z2pzVHNwYW4yNDg5Ij7nva48L3RzcGFuPjwvdHNwYW4+PC90ZXh0PjwvZz48L2c+PGcgaWQ9IlN2Z2pzRzI0OTAiPjxwYXRoIG1hcmtlci1lbmQ9InVybCgjU3ZnanNNYXJrZXIyNDkyKSIgZmlsbD0ibm9uZSIgc3Ryb2tlLXdpZHRoPSIyIiBzdHJva2U9IiMzMjMyMzIiIGQ9Ik01NTAgMTQ3Mi41TDU4MCAxNDcyLjVMNTgwIDE0NzIuNUw2MDcuNCAxNDcyLjUiIGlkPSJTdmdqc1BhdGgyNDkxIi8+PHJlY3QgZmlsbD0iI2ZmZmZmZiIgeT0iMTQ2NC41IiB4PSI1NzEuMTk5OTk5OTk5OTk5OSIgaGVpZ2h0PSIxNiIgd2lkdGg9IjE1IiBpZD0iU3ZnanNSZWN0MjQ5NCIvPjx0ZXh0IHRyYW5zZm9ybT0icm90YXRlKDApIiB5PSIxNDYxLjg3NSIgb3BhY2l0eT0iMSIgZm9udC1zdHlsZT0iIiBzaXplPSIxM3B4IiBhbGlnbj0idG9wIiBmb250LXdlaWdodD0iNDAwIiBmaWxsPSIjMDAwMDAwIiB3aWR0aD0iMTVweCIgZm9udC1zaXplPSIxM3B4IiB0ZXh0LWFuY2hvcj0ibWlkZGxlIiBmb250LWZhbWlseT0i5b6u6L2v6ZuF6buRIiBpZD0iU3ZnanNUZXh0MjQ5NSI+PHRzcGFuIHg9IjU3OC42OTk5OTk5OTk5OTk5IiBkeT0iMTYiIGlkPSJTdmdqc1RzcGFuMjQ5NiI+PHRzcGFuIHN0eWxlPSJ0ZXh0LWRlY29yYXRpb246OyIgaWQ9IlN2Z2pzVHNwYW4yNDk3Ij5vazwvdHNwYW4+PC90c3Bhbj48L3RleHQ+PC9nPjxnIHRyYW5zZm9ybT0idHJhbnNsYXRlKDc2MiwxNDMyLjUpIiBpZD0iU3ZnanNHMjQ5OCI+PHBhdGggZmlsbD0iI2ZmZmZmZiIgZmlsbC1vcGFjaXR5PSIxIiBzdHJva2Utd2lkdGg9IjIiIHN0cm9rZT0icmdiYSg1MCw1MCw1MCwxKSIgZD0iTSAwIDQwTCA2MCAwTCAxMjAgNDBMIDYwIDgwWiIgaWQ9IlN2Z2pzUGF0aDI0OTkiLz48ZyBpZD0iU3ZnanNHMjUwMCI+PHRleHQgdHJhbnNmb3JtPSJyb3RhdGUoMCkiIHk9IjIxLjI3NSIgb3BhY2l0eT0iMSIgZm9udC1zdHlsZT0iIiBzaXplPSIxM3B4IiBhbGlnbj0ibWlkZGxlIiBmb250LXdlaWdodD0iNDAwIiBmaWxsPSIjMDAwMDAwIiB3aWR0aD0iMTAwcHgiIGZvbnQtc2l6ZT0iMTNweCIgdGV4dC1hbmNob3I9Im1pZGRsZSIgZm9udC1mYW1pbHk9IuW+rui9r+mbhem7kSIgaWQ9IlN2Z2pzVGV4dDI1MDEiPjx0c3BhbiB4PSI2MCIgZHk9IjE2IiBpZD0iU3ZnanNUc3BhbjI1MDIiPjx0c3BhbiBzdHlsZT0idGV4dC1kZWNvcmF0aW9uOjsiIGlkPSJTdmdqc1RzcGFuMjUwMyI+5qCh6aqM5a6i5oi356uv5Y+CPC90c3Bhbj48L3RzcGFuPjx0c3BhbiB4PSI2MCIgZHk9IjE2IiBpZD0iU3ZnanNUc3BhbjI1MDQiPjx0c3BhbiBzdHlsZT0idGV4dC1kZWNvcmF0aW9uOjsiIGlkPSJTdmdqc1RzcGFuMjUwNSI+5pWw44CC5pa95rOV5L2N572u562JPC90c3Bhbj48L3RzcGFuPjwvdGV4dD48L2c+PC9nPjxnIGlkPSJTdmdqc0cyNTA2Ij48cGF0aCBtYXJrZXItZW5kPSJ1cmwoI1N2Z2pzTWFya2VyMjUwOCkiIGZpbGw9Im5vbmUiIHN0cm9rZS13aWR0aD0iMiIgc3Ryb2tlPSIjMzIzMjMyIiBkPSJNNzEyIDE0NzIuNUw3MzYuNSAxNDcyLjVMNzM2LjUgMTQ3Mi41TDc1OC40IDE0NzIuNSIgaWQ9IlN2Z2pzUGF0aDI1MDciLz48L2c+PGcgdHJhbnNmb3JtPSJ0cmFuc2xhdGUoNzYyLDE1NDguNSkiIGlkPSJTdmdqc0cyNTEwIj48cGF0aCBmaWxsPSIjZmZmZmZmIiBmaWxsLW9wYWNpdHk9IjEiIHN0cm9rZS13aWR0aD0iMiIgc3Ryb2tlPSJyZ2JhKDUwLDUwLDUwLDEpIiBkPSJNIDAgNDBMIDYwIDBMIDEyMCA0MEwgNjAgODBaIiBpZD0iU3ZnanNQYXRoMjUxMSIvPjxnIGlkPSJTdmdqc0cyNTEyIj48dGV4dCB0cmFuc2Zvcm09InJvdGF0ZSgwKSIgeT0iMjEuMjc1IiBvcGFjaXR5PSIxIiBmb250LXN0eWxlPSIiIHNpemU9IjEzcHgiIGFsaWduPSJtaWRkbGUiIGZvbnQtd2VpZ2h0PSI0MDAiIGZpbGw9IiMwMDAwMDAiIHdpZHRoPSIxMDBweCIgZm9udC1zaXplPSIxM3B4IiB0ZXh0LWFuY2hvcj0ibWlkZGxlIiBmb250LWZhbWlseT0i5b6u6L2v6ZuF6buRIiBpZD0iU3ZnanNUZXh0MjUxMyI+PHRzcGFuIHg9IjYwIiBkeT0iMTYiIGlkPSJTdmdqc1RzcGFuMjUxNCI+PHRzcGFuIHN0eWxlPSJ0ZXh0LWRlY29yYXRpb246OyIgaWQ9IlN2Z2pzVHNwYW4yNTE1Ij7njqnlrrbmmK/lkKbmnInkuIrkuIA8L3RzcGFuPjwvdHNwYW4+PHRzcGFuIHg9IjYwIiBkeT0iMTYiIGlkPSJTdmdqc1RzcGFuMjUxNiI+PHRzcGFuIHN0eWxlPSJ0ZXh0LWRlY29yYXRpb246OyIgaWQ9IlN2Z2pzVHNwYW4yNTE3Ij7lj5HmioDog73lh4blpIfkuK08L3RzcGFuPjwvdHNwYW4+PC90ZXh0PjwvZz48L2c+PGcgaWQ9IlN2Z2pzRzI1MTgiPjxwYXRoIG1hcmtlci1lbmQ9InVybCgjU3ZnanNNYXJrZXIyNTIwKSIgZmlsbD0ibm9uZSIgc3Ryb2tlLXdpZHRoPSIyIiBzdHJva2U9IiMzMjMyMzIiIGQ9Ik04MjIgMTUxMy41TDgyMiAxNTMwLjVMODIyIDE1MzAuNUw4MjIgMTU0NC45IiBpZD0iU3ZnanNQYXRoMjUxOSIvPjxyZWN0IGZpbGw9IiNmZmZmZmYiIHk9IjE1MjEuMiIgeD0iODE0LjUiIGhlaWdodD0iMTYiIHdpZHRoPSIxNSIgaWQ9IlN2Z2pzUmVjdDI1MjIiLz48dGV4dCB0cmFuc2Zvcm09InJvdGF0ZSgwKSIgeT0iMTUxOC41NzUiIG9wYWNpdHk9IjEiIGZvbnQtc3R5bGU9IiIgc2l6ZT0iMTNweCIgYWxpZ249InRvcCIgZm9udC13ZWlnaHQ9IjQwMCIgZmlsbD0iIzAwMDAwMCIgd2lkdGg9IjE1cHgiIGZvbnQtc2l6ZT0iMTNweCIgdGV4dC1hbmNob3I9Im1pZGRsZSIgZm9udC1mYW1pbHk9IuW+rui9r+mbhem7kSIgaWQ9IlN2Z2pzVGV4dDI1MjMiPjx0c3BhbiB4PSI4MjIiIGR5PSIxNiIgaWQ9IlN2Z2pzVHNwYW4yNTI0Ij48dHNwYW4gc3R5bGU9InRleHQtZGVjb3JhdGlvbjo7IiBpZD0iU3ZnanNUc3BhbjI1MjUiPm9rPC90c3Bhbj48L3RzcGFuPjwvdGV4dD48L2c+PGcgdHJhbnNmb3JtPSJ0cmFuc2xhdGUoOTI5LDE2MTcuNSkiIGlkPSJTdmdqc0cyNTI2Ij48cGF0aCBmaWxsPSIjZmZmZmZmIiBmaWxsLW9wYWNpdHk9IjEiIHN0cm9rZS13aWR0aD0iMiIgc3Ryb2tlPSJyZ2JhKDUwLDUwLDUwLDEpIiBkPSJNIDAgMEwgMTAwIDBMIDEwMCA3MEwgMCA3MFoiIGlkPSJTdmdqc1BhdGgyNTI3Ii8+PGcgaWQ9IlN2Z2pzRzI1MjgiPjx0ZXh0IHRyYW5zZm9ybT0icm90YXRlKDApIiB5PSIxNS44NzUiIG9wYWNpdHk9IjEiIGZvbnQtc3R5bGU9IiIgc2l6ZT0iMTNweCIgYWxpZ249Im1pZGRsZSIgZm9udC13ZWlnaHQ9IjQwMCIgZmlsbD0iIzAwMDAwMCIgd2lkdGg9IjgwcHgiIGZvbnQtc2l6ZT0iMTNweCIgdGV4dC1hbmNob3I9Im1pZGRsZSIgZm9udC1mYW1pbHk9IuW+rui9r+mbhem7kSIgaWQ9IlN2Z2pzVGV4dDI1MjkiPjx0c3BhbiB4PSI1MCIgZHk9IjE2IiBpZD0iU3ZnanNUc3BhbjI1MzAiPjx0c3BhbiBzdHlsZT0idGV4dC1kZWNvcmF0aW9uOjsiIGlkPSJTdmdqc1RzcGFuMjUzMSI+5riF55CG5LiK5LiA5Y+R5oqAPC90c3Bhbj48L3RzcGFuPjx0c3BhbiB4PSI1MCIgZHk9IjE2IiBpZD0iU3ZnanNUc3BhbjI1MzIiPjx0c3BhbiBzdHlsZT0idGV4dC1kZWNvcmF0aW9uOjsiIGlkPSJTdmdqc1RzcGFuMjUzMyI+6IO95YeG5aSHPC90c3Bhbj48L3RzcGFuPjwvdGV4dD48L2c+PC9nPjxnIHRyYW5zZm9ybT0idHJhbnNsYXRlKDYwNCwxNTUzLjUpIiBpZD0iU3ZnanNHMjUzNCI+PHBhdGggZmlsbD0iI2ZmZmZmZiIgZmlsbC1vcGFjaXR5PSIxIiBzdHJva2Utd2lkdGg9IjIiIHN0cm9rZT0icmdiYSg1MCw1MCw1MCwxKSIgZD0iTSAwIDBMIDEwMCAwTCAxMDAgNzBMIDAgNzBaIiBpZD0iU3ZnanNQYXRoMjUzNSIvPjxnIGlkPSJTdmdqc0cyNTM2Ij48dGV4dCB0cmFuc2Zvcm09InJvdGF0ZSgwKSIgeT0iLTAuMTI1IiBvcGFjaXR5PSIxIiBmb250LXN0eWxlPSIiIHNpemU9IjEzcHgiIGFsaWduPSJtaWRkbGUiIGZvbnQtd2VpZ2h0PSI0MDAiIGZpbGw9IiMwMDAwMDAiIHdpZHRoPSI4MHB4IiBmb250LXNpemU9IjEzcHgiIHRleHQtYW5jaG9yPSJtaWRkbGUiIGZvbnQtZmFtaWx5PSLlvq7ova/pm4Xpu5EiIGlkPSJTdmdqc1RleHQyNTM3Ij48dHNwYW4geD0iNTAiIGR5PSIxNiIgaWQ9IlN2Z2pzVHNwYW4yNTM4Ij48dHNwYW4gc3R5bGU9InRleHQtZGVjb3JhdGlvbjo7IiBpZD0iU3ZnanNUc3BhbjI1MzkiPuaKgOiDveWHhuWkh+aVsOaNrjwvdHNwYW4+PC90c3Bhbj48dHNwYW4geD0iNTAiIGR5PSIxNiIgaWQ9IlN2Z2pzVHNwYW4yNTQwIj48dHNwYW4gc3R5bGU9InRleHQtZGVjb3JhdGlvbjo7IiBpZD0iU3ZnanNUc3BhbjI1NDEiPuWkhOeQhu+8jOWmguW8leWvvDwvdHNwYW4+PC90c3Bhbj48dHNwYW4geD0iNTAiIGR5PSIxNiIgaWQ9IlN2Z2pzVHNwYW4yNTQyIj48dHNwYW4gc3R5bGU9InRleHQtZGVjb3JhdGlvbjo7IiBpZD0iU3ZnanNUc3BhbjI1NDMiPuaKgOiDveiuvue9ruaXtumXtDwvdHNwYW4+PC90c3Bhbj48dHNwYW4geD0iNTAiIGR5PSIxNiIgaWQ9IlN2Z2pzVHNwYW4yNTQ0Ij48dHNwYW4gc3R5bGU9InRleHQtZGVjb3JhdGlvbjo7IiBpZD0iU3ZnanNUc3BhbjI1NDUiPuetiTwvdHNwYW4+PC90c3Bhbj48L3RleHQ+PC9nPjwvZz48ZyBpZD0iU3ZnanNHMjU0NiI+PHBhdGggbWFya2VyLWVuZD0idXJsKCNTdmdqc01hcmtlcjI1NDgpIiBmaWxsPSJub25lIiBzdHJva2Utd2lkdGg9IjIiIHN0cm9rZT0iIzMyMzIzMiIgZD0iTTc2MSAxNTg4LjVMNzMzIDE1ODguNUw3MzMgMTU4OC41TDcwNy42IDE1ODguNSIgaWQ9IlN2Z2pzUGF0aDI1NDciLz48cmVjdCBmaWxsPSIjZmZmZmZmIiB5PSIxNTgwLjUiIHg9IjcyNy44IiBoZWlnaHQ9IjE2IiB3aWR0aD0iMTMiIGlkPSJTdmdqc1JlY3QyNTUwIi8+PHRleHQgdHJhbnNmb3JtPSJyb3RhdGUoMCkiIHk9IjE1NzcuODc1IiBvcGFjaXR5PSIxIiBmb250LXN0eWxlPSIiIHNpemU9IjEzcHgiIGFsaWduPSJ0b3AiIGZvbnQtd2VpZ2h0PSI0MDAiIGZpbGw9IiMwMDAwMDAiIHdpZHRoPSIxM3B4IiBmb250LXNpemU9IjEzcHgiIHRleHQtYW5jaG9yPSJtaWRkbGUiIGZvbnQtZmFtaWx5PSLlvq7ova/pm4Xpu5EiIGlkPSJTdmdqc1RleHQyNTUxIj48dHNwYW4geD0iNzM0LjMiIGR5PSIxNiIgaWQ9IlN2Z2pzVHNwYW4yNTUyIj48dHNwYW4gc3R5bGU9InRleHQtZGVjb3JhdGlvbjo7IiBpZD0iU3ZnanNUc3BhbjI1NTMiPuWQpjwvdHNwYW4+PC90c3Bhbj48L3RleHQ+PC9nPjxnIGlkPSJTdmdqc0cyNTU0Ij48cGF0aCBtYXJrZXItZW5kPSJ1cmwoI1N2Z2pzTWFya2VyMjU1NikiIGZpbGw9Im5vbmUiIHN0cm9rZS13aWR0aD0iMiIgc3Ryb2tlPSIjMzIzMjMyIiBkPSJNODIyIDE2MjkuNUw4MjIgMTY1Mi41TDkyNS40IDE2NTIuNSIgaWQ9IlN2Z2pzUGF0aDI1NTUiLz48cmVjdCBmaWxsPSIjZmZmZmZmIiB5PSIxNjQ0LjUiIHg9Ijg1NS43IiBoZWlnaHQ9IjE2IiB3aWR0aD0iMTMiIGlkPSJTdmdqc1JlY3QyNTU4Ii8+PHRleHQgdHJhbnNmb3JtPSJyb3RhdGUoMCkiIHk9IjE2NDEuODc1IiBvcGFjaXR5PSIxIiBmb250LXN0eWxlPSIiIHNpemU9IjEzcHgiIGFsaWduPSJ0b3AiIGZvbnQtd2VpZ2h0PSI0MDAiIGZpbGw9IiMwMDAwMDAiIHdpZHRoPSIxM3B4IiBmb250LXNpemU9IjEzcHgiIHRleHQtYW5jaG9yPSJtaWRkbGUiIGZvbnQtZmFtaWx5PSLlvq7ova/pm4Xpu5EiIGlkPSJTdmdqc1RleHQyNTU5Ij48dHNwYW4geD0iODYyLjIiIGR5PSIxNiIgaWQ9IlN2Z2pzVHNwYW4yNTYwIj48dHNwYW4gc3R5bGU9InRleHQtZGVjb3JhdGlvbjo7IiBpZD0iU3ZnanNUc3BhbjI1NjEiPuaYrzwvdHNwYW4+PC90c3Bhbj48L3RleHQ+PC9nPjxnIHRyYW5zZm9ybT0idHJhbnNsYXRlKDQzNiwxNTUzLjUpIiBpZD0iU3ZnanNHMjU2MiI+PHBhdGggZmlsbD0iI2ZmZmZmZiIgZmlsbC1vcGFjaXR5PSIxIiBzdHJva2Utd2lkdGg9IjIiIHN0cm9rZT0icmdiYSg1MCw1MCw1MCwxKSIgZD0iTSAwIDBMIDEwMCAwTCAxMDAgNzBMIDAgNzBaIiBpZD0iU3ZnanNQYXRoMjU2MyIvPjxnIGlkPSJTdmdqc0cyNTY0Ij48dGV4dCB0cmFuc2Zvcm09InJvdGF0ZSgwKSIgeT0iMjQuMzc1IiBvcGFjaXR5PSIxIiBmb250LXN0eWxlPSIiIHNpemU9IjEzcHgiIGFsaWduPSJtaWRkbGUiIGZvbnQtd2VpZ2h0PSI0MDAiIGZpbGw9IiMwMDAwMDAiIHdpZHRoPSI4MHB4IiBmb250LXNpemU9IjEzcHgiIHRleHQtYW5jaG9yPSJtaWRkbGUiIGZvbnQtZmFtaWx5PSLlvq7ova/pm4Xpu5EiIGlkPSJTdmdqc1RleHQyNTY1Ij48dHNwYW4geD0iNTAiIGR5PSIxNiIgaWQ9IlN2Z2pzVHNwYW4yNTY2Ij48dHNwYW4gc3R5bGU9InRleHQtZGVjb3JhdGlvbjo7IiBpZD0iU3ZnanNUc3BhbjI1NjciPuiuvue9ruWHhuWkh+W8leWvvDwvdHNwYW4+PC90c3Bhbj48L3RleHQ+PC9nPjwvZz48ZyBpZD0iU3ZnanNHMjU2OCI+PHBhdGggbWFya2VyLWVuZD0idXJsKCNTdmdqc01hcmtlcjI1NzApIiBmaWxsPSJub25lIiBzdHJva2Utd2lkdGg9IjIiIHN0cm9rZT0iIzMyMzIzMiIgZD0iTTYwMyAxNTg4LjVMNTcwIDE1ODguNUw1NzAgMTU4OC41TDUzOS42IDE1ODguNSIgaWQ9IlN2Z2pzUGF0aDI1NjkiLz48L2c+PGcgdHJhbnNmb3JtPSJ0cmFuc2xhdGUoMjY5LDE1NTMuNSkiIGlkPSJTdmdqc0cyNTcyIj48cGF0aCBmaWxsPSIjZmZmZmZmIiBmaWxsLW9wYWNpdHk9IjEiIHN0cm9rZS13aWR0aD0iMiIgc3Ryb2tlPSJyZ2JhKDUwLDUwLDUwLDEpIiBkPSJNIDAgMEwgMTAwIDBMIDEwMCA3MEwgMCA3MFoiIGlkPSJTdmdqc1BhdGgyNTczIi8+PGcgaWQ9IlN2Z2pzRzI1NzQiPjx0ZXh0IHRyYW5zZm9ybT0icm90YXRlKDApIiB5PSIxNS44NzUiIG9wYWNpdHk9IjEiIGZvbnQtc3R5bGU9IiIgc2l6ZT0iMTNweCIgYWxpZ249Im1pZGRsZSIgZm9udC13ZWlnaHQ9IjQwMCIgZmlsbD0iIzAwMDAwMCIgd2lkdGg9IjgwcHgiIGZvbnQtc2l6ZT0iMTNweCIgdGV4dC1hbmNob3I9Im1pZGRsZSIgZm9udC1mYW1pbHk9IuW+rui9r+mbhem7kSIgaWQ9IlN2Z2pzVGV4dDI1NzUiPjx0c3BhbiB4PSI1MCIgZHk9IjE2IiBpZD0iU3ZnanNUc3BhbjI1NzYiPjx0c3BhbiBzdHlsZT0idGV4dC1kZWNvcmF0aW9uOjsiIGlkPSJTdmdqc1RzcGFuMjU3NyI+54q25oCB5aSE55CG77yM5aaCPC90c3Bhbj48L3RzcGFuPjx0c3BhbiB4PSI1MCIgZHk9IjE2IiBpZD0iU3ZnanNUc3BhbjI1NzgiPjx0c3BhbiBzdHlsZT0idGV4dC1kZWNvcmF0aW9uOjsiIGlkPSJTdmdqc1RzcGFuMjU3OSI+5LiL6ams562JPC90c3Bhbj48L3RzcGFuPjwvdGV4dD48L2c+PC9nPjxnIGlkPSJTdmdqc0cyNTgwIj48cGF0aCBtYXJrZXItZW5kPSJ1cmwoI1N2Z2pzTWFya2VyMjU4MikiIGZpbGw9Im5vbmUiIHN0cm9rZS13aWR0aD0iMiIgc3Ryb2tlPSIjMzIzMjMyIiBkPSJNNDM1IDE1ODguNUw0MDIuNSAxNTg4LjVMNDAyLjUgMTU4OC41TDM3Mi42IDE1ODguNSIgaWQ9IlN2Z2pzUGF0aDI1ODEiLz48L2c+PGcgdHJhbnNmb3JtPSJ0cmFuc2xhdGUoMTA1LDE1NTMuNSkiIGlkPSJTdmdqc0cyNTg0Ij48cGF0aCBmaWxsPSIjZmZmZmZmIiBmaWxsLW9wYWNpdHk9IjEiIHN0cm9rZS13aWR0aD0iMiIgc3Ryb2tlPSJyZ2JhKDUwLDUwLDUwLDEpIiBkPSJNIDAgMEwgMTAwIDBMIDEwMCA3MEwgMCA3MFoiIGlkPSJTdmdqc1BhdGgyNTg1Ii8+PGcgaWQ9IlN2Z2pzRzI1ODYiPjx0ZXh0IHRyYW5zZm9ybT0icm90YXRlKDApIiB5PSIyNC4zNzUiIG9wYWNpdHk9IjEiIGZvbnQtc3R5bGU9IiIgc2l6ZT0iMTNweCIgYWxpZ249Im1pZGRsZSIgZm9udC13ZWlnaHQ9IjQwMCIgZmlsbD0iIzAwMDAwMCIgd2lkdGg9IjgwcHgiIGZvbnQtc2l6ZT0iMTNweCIgdGV4dC1hbmNob3I9Im1pZGRsZSIgZm9udC1mYW1pbHk9IuW+rui9r+mbhem7kSIgaWQ9IlN2Z2pzVGV4dDI1ODciPjx0c3BhbiB4PSI1MCIgZHk9IjE2IiBpZD0iU3ZnanNUc3BhbjI1ODgiPjx0c3BhbiBzdHlsZT0idGV4dC1kZWNvcmF0aW9uOjsiIGlkPSJTdmdqc1RzcGFuMjU4OSI+5raI6ICX77yM6JOd44CBY2Q8L3RzcGFuPjwvdHNwYW4+PC90ZXh0PjwvZz48L2c+PGcgaWQ9IlN2Z2pzRzI1OTAiPjxwYXRoIG1hcmtlci1lbmQ9InVybCgjU3ZnanNNYXJrZXIyNTkyKSIgZmlsbD0ibm9uZSIgc3Ryb2tlLXdpZHRoPSIyIiBzdHJva2U9IiMzMjMyMzIiIGQ9Ik0yNjggMTU4OC41TDIzNyAxNTg4LjVMMjM3IDE1ODguNUwyMDguNiAxNTg4LjUiIGlkPSJTdmdqc1BhdGgyNTkxIi8+PC9nPjxnIHRyYW5zZm9ybT0idHJhbnNsYXRlKDEwNSwxNjc3LjUpIiBpZD0iU3ZnanNHMjU5NCI+PHBhdGggZmlsbD0iI2ZmZmZmZiIgZmlsbC1vcGFjaXR5PSIxIiBzdHJva2Utd2lkdGg9IjIiIHN0cm9rZT0icmdiYSg1MCw1MCw1MCwxKSIgZD0iTSAwIDBMIDEwMCAwTCAxMDAgNzBMIDAgNzBaIiBpZD0iU3ZnanNQYXRoMjU5NSIvPjxnIGlkPSJTdmdqc0cyNTk2Ij48dGV4dCB0cmFuc2Zvcm09InJvdGF0ZSgwKSIgeT0iMjQuMzc1IiBvcGFjaXR5PSIxIiBmb250LXN0eWxlPSIiIHNpemU9IjEzcHgiIGFsaWduPSJtaWRkbGUiIGZvbnQtd2VpZ2h0PSI0MDAiIGZpbGw9IiMwMDAwMDAiIHdpZHRoPSI4MHB4IiBmb250LXNpemU9IjEzcHgiIHRleHQtYW5jaG9yPSJtaWRkbGUiIGZvbnQtZmFtaWx5PSLlvq7ova/pm4Xpu5EiIGlkPSJTdmdqc1RleHQyNTk3Ij48dHNwYW4geD0iNTAiIGR5PSIxNiIgaWQ9IlN2Z2pzVHNwYW4yNTk4Ij48dHNwYW4gc3R5bGU9InRleHQtZGVjb3JhdGlvbjo7IiBpZD0iU3ZnanNUc3BhbjI1OTkiPuinpuWPkeW8leWvvOS6i+S7tjwvdHNwYW4+PC90c3Bhbj48L3RleHQ+PC9nPjwvZz48ZyBpZD0iU3ZnanNHMjYwMCI+PHBhdGggbWFya2VyLWVuZD0idXJsKCNTdmdqc01hcmtlcjI2MDIpIiBmaWxsPSJub25lIiBzdHJva2Utd2lkdGg9IjIiIHN0cm9rZT0iIzMyMzIzMiIgZD0iTTE1NSAxNjI0LjVMMTU1IDE2NTAuNUwxNTUgMTY1MC41TDE1NSAxNjczLjkiIGlkPSJTdmdqc1BhdGgyNjAxIi8+PC9nPjxnIHRyYW5zZm9ybT0idHJhbnNsYXRlKDI2OSwxNjc3LjUpIiBpZD0iU3ZnanNHMjYwNCI+PHBhdGggZmlsbD0iI2ZmZmZmZiIgZmlsbC1vcGFjaXR5PSIxIiBzdHJva2Utd2lkdGg9IjIiIHN0cm9rZT0icmdiYSg1MCw1MCw1MCwxKSIgZD0iTSAwIDBMIDEwMCAwTCAxMDAgNzBMIDAgNzBaIiBpZD0iU3ZnanNQYXRoMjYwNSIvPjxnIGlkPSJTdmdqc0cyNjA2Ij48dGV4dCB0cmFuc2Zvcm09InJvdGF0ZSgwKSIgeT0iMjQuMzc1IiBvcGFjaXR5PSIxIiBmb250LXN0eWxlPSIiIHNpemU9IjEzcHgiIGFsaWduPSJtaWRkbGUiIGZvbnQtd2VpZ2h0PSI0MDAiIGZpbGw9IiMwMDAwMDAiIHdpZHRoPSI4MHB4IiBmb250LXNpemU9IjEzcHgiIHRleHQtYW5jaG9yPSJtaWRkbGUiIGZvbnQtZmFtaWx5PSLlvq7ova/pm4Xpu5EiIGlkPSJTdmdqc1RleHQyNjA3Ij48dHNwYW4geD0iNTAiIGR5PSIxNiIgaWQ9IlN2Z2pzVHNwYW4yNjA4Ij48dHNwYW4gc3R5bGU9InRleHQtZGVjb3JhdGlvbjo7IiBpZD0iU3ZnanNUc3BhbjI2MDkiPuinpuWPkeWKqOS9nOS6i+S7tjwvdHNwYW4+PC90c3Bhbj48L3RleHQ+PC9nPjwvZz48ZyBpZD0iU3ZnanNHMjYxMCI+PHBhdGggbWFya2VyLWVuZD0idXJsKCNTdmdqc01hcmtlcjI2MTIpIiBmaWxsPSJub25lIiBzdHJva2Utd2lkdGg9IjIiIHN0cm9rZT0iIzMyMzIzMiIgZD0iTTIwNiAxNzEyLjVMMjM3IDE3MTIuNUwyMzcgMTcxMi41TDI2NS40IDE3MTIuNSIgaWQ9IlN2Z2pzUGF0aDI2MTEiLz48L2c+PGcgdHJhbnNmb3JtPSJ0cmFuc2xhdGUoNDM2LDE2NzcuNSkiIGlkPSJTdmdqc0cyNjE0Ij48cGF0aCBmaWxsPSIjZmZmZmZmIiBmaWxsLW9wYWNpdHk9IjEiIHN0cm9rZS13aWR0aD0iMiIgc3Ryb2tlPSJyZ2JhKDUwLDUwLDUwLDEpIiBkPSJNIDAgMEwgMTAwIDBMIDEwMCA3MEwgMCA3MFoiIGlkPSJTdmdqc1BhdGgyNjE1Ii8+PGcgaWQ9IlN2Z2pzRzI2MTYiPjx0ZXh0IHRyYW5zZm9ybT0icm90YXRlKDApIiB5PSIxNS44NzUiIG9wYWNpdHk9IjEiIGZvbnQtc3R5bGU9IiIgc2l6ZT0iMTNweCIgYWxpZ249Im1pZGRsZSIgZm9udC13ZWlnaHQ9IjQwMCIgZmlsbD0iIzAwMDAwMCIgd2lkdGg9IjgwcHgiIGZvbnQtc2l6ZT0iMTNweCIgdGV4dC1hbmNob3I9Im1pZGRsZSIgZm9udC1mYW1pbHk9IuW+rui9r+mbhem7kSIgaWQ9IlN2Z2pzVGV4dDI2MTciPjx0c3BhbiB4PSI1MCIgZHk9IjE2IiBpZD0iU3ZnanNUc3BhbjI2MTgiPjx0c3BhbiBzdHlsZT0idGV4dC1kZWNvcmF0aW9uOjsiIGlkPSJTdmdqc1RzcGFuMjYxOSI+5p+Q5Lqb5oqA6IO96YeK5pS+PC90c3Bhbj48L3RzcGFuPjx0c3BhbiB4PSI1MCIgZHk9IjE2IiBpZD0iU3ZnanNUc3BhbjI2MjAiPjx0c3BhbiBzdHlsZT0idGV4dC1kZWNvcmF0aW9uOjsiIGlkPSJTdmdqc1RzcGFuMjYyMSI+5pe26ZyA6KaB5YqgYnVmZjwvdHNwYW4+PC90c3Bhbj48L3RleHQ+PC9nPjwvZz48ZyBpZD0iU3ZnanNHMjYyMiI+PHBhdGggbWFya2VyLWVuZD0idXJsKCNTdmdqc01hcmtlcjI2MjQpIiBmaWxsPSJub25lIiBzdHJva2Utd2lkdGg9IjIiIHN0cm9rZT0iIzMyMzIzMiIgZD0iTTM3MCAxNzEyLjVMNDAyLjUgMTcxMi41TDQwMi41IDE3MTIuNUw0MzIuNCAxNzEyLjUiIGlkPSJTdmdqc1BhdGgyNjIzIi8+PC9nPjxnIHRyYW5zZm9ybT0idHJhbnNsYXRlKDYwNCwxNjc3LjUpIiBpZD0iU3ZnanNHMjYyNiI+PHBhdGggZmlsbD0iI2ZmZmZmZiIgZmlsbC1vcGFjaXR5PSIxIiBzdHJva2Utd2lkdGg9IjIiIHN0cm9rZT0icmdiYSg1MCw1MCw1MCwxKSIgZD0iTSAwIDBMIDEwMCAwTCAxMDAgNzBMIDAgNzBaIiBpZD0iU3ZnanNQYXRoMjYyNyIvPjxnIGlkPSJTdmdqc0cyNjI4Ij48dGV4dCB0cmFuc2Zvcm09InJvdGF0ZSgwKSIgeT0iMjQuMzc1IiBvcGFjaXR5PSIxIiBmb250LXN0eWxlPSIiIHNpemU9IjEzcHgiIGFsaWduPSJtaWRkbGUiIGZvbnQtd2VpZ2h0PSI0MDAiIGZpbGw9IiMwMDAwMDAiIHdpZHRoPSI4MHB4IiBmb250LXNpemU9IjEzcHgiIHRleHQtYW5jaG9yPSJtaWRkbGUiIGZvbnQtZmFtaWx5PSLlvq7ova/pm4Xpu5EiIGlkPSJTdmdqc1RleHQyNjI5Ij48dHNwYW4geD0iNTAiIGR5PSIxNiIgaWQ9IlN2Z2pzVHNwYW4yNjMwIj48dHNwYW4gc3R5bGU9InRleHQtZGVjb3JhdGlvbjo7IiBpZD0iU3ZnanNUc3BhbjI2MzEiPuWbnuWMhTwvdHNwYW4+PC90c3Bhbj48L3RleHQ+PC9nPjwvZz48ZyBpZD0iU3ZnanNHMjYzMiI+PHBhdGggbWFya2VyLWVuZD0idXJsKCNTdmdqc01hcmtlcjI2MzQpIiBmaWxsPSJub25lIiBzdHJva2Utd2lkdGg9IjIiIHN0cm9rZT0iIzMyMzIzMiIgZD0iTTUzNyAxNzEyLjVMNTcwIDE3MTIuNUw1NzAgMTcxMi41TDYwMC40IDE3MTIuNSIgaWQ9IlN2Z2pzUGF0aDI2MzMiLz48L2c+PGcgdHJhbnNmb3JtPSJ0cmFuc2xhdGUoNTIsOTgzLjUpIiBpZD0iU3ZnanNHMjYzNiI+PHBhdGggZmlsbD0ibm9uZSIgc3Ryb2tlPSJub25lIiBkPSJNIDAgMEwgNDI5IDBMIDQyOSAzN0wgMCAzN1oiIGlkPSJTdmdqc1BhdGgyNjM3Ii8+PGcgaWQ9IlN2Z2pzRzI2MzgiPjx0ZXh0IHRyYW5zZm9ybT0icm90YXRlKDApIiB5PSI3Ljg3NSIgb3BhY2l0eT0iMSIgZm9udC1zdHlsZT0iIiBzaXplPSIxM3B4IiBhbGlnbj0ibWlkZGxlIiBmb250LXdlaWdodD0iNDAwIiBmaWxsPSIjMDAwMDAwIiB3aWR0aD0iNDI5cHgiIGZvbnQtc2l6ZT0iMTNweCIgdGV4dC1hbmNob3I9Im1pZGRsZSIgZm9udC1mYW1pbHk9IuW+rui9r+mbhem7kSIgaWQ9IlN2Z2pzVGV4dDI2MzkiPjx0c3BhbiB4PSIyMTQuNSIgZHk9IjE2IiBpZD0iU3ZnanNUc3BhbjI2NDAiPjx0c3BhbiBzdHlsZT0idGV4dC1kZWNvcmF0aW9uOjsiIGlkPSJTdmdqc1RzcGFuMjY0MSI+5byV5a+857G75oqA6IO955qE5a6i5oi356uv5raI5oGv77yaYWN0aW9uLSZndDtwcmVBdGstJmd0O2F0ay0mZ3Q7YXRrLSZndDthdGstJmd0O2F0azwvdHNwYW4+PC90c3Bhbj48L3RleHQ+PC9nPjwvZz48L3N2Zz4=;" vertex="1" parent="1">
          <mxGeometry x="40" y="-350" width="891.35" height="1500" as="geometry" />
        </mxCell>
      </root>
    </mxGraphModel>
  </diagram>
</mxfile>
